SplineFontDB: 3.0
FontName: Aubrey
FullName: Aubrey
FamilyName: Aubrey
Weight: Book
Copyright: Copyright (c) 2011 by Gayaneh Bagdasaryan | Cyreal.org. All rights reserved.
Version: 1.000
ItalicAngle: 0
UnderlinePosition: -103
UnderlineWidth: 102
Ascent: 1638
Descent: 410
LayerCount: 2
Layer: 0 1 "Back"  1
Layer: 1 1 "Fore"  0
NeedsXUIDChange: 1
XUID: [1021 230 1610532706 982470]
FSType: 0
OS2Version: 3
OS2_WeightWidthSlopeOnly: 0
OS2_UseTypoMetrics: 1
CreationTime: 1310970240
ModificationTime: 1311252472
PfmFamily: 17
TTFWeight: 400
TTFWidth: 5
LineGap: 0
VLineGap: 0
Panose: 2 0 0 0 0 0 0 0 0 0
OS2TypoAscent: 1699
OS2TypoAOffset: 0
OS2TypoDescent: -433
OS2TypoDOffset: 0
OS2TypoLinegap: 0
OS2WinAscent: 1699
OS2WinAOffset: 0
OS2WinDescent: 433
OS2WinDOffset: 0
HheadAscent: 1699
HheadAOffset: 0
HheadDescent: -433
HheadDOffset: 0
OS2SubXSize: 1434
OS2SubYSize: 1331
OS2SubXOff: 0
OS2SubYOff: 287
OS2SupXSize: 1434
OS2SupYSize: 1331
OS2SupXOff: 0
OS2SupYOff: 977
OS2StrikeYSize: 102
OS2StrikeYPos: 512
OS2Vendor: 'pyrs'
OS2CodePages: 00000003.00000000
OS2UnicodeRanges: 800000a7.10000043.00000000.00000000
Lookup: 258 0 0 "'kern' Horizontal Kerning in Latin lookup 0"  {"'kern' Horizontal Kerning in Latin lookup 0 per glyph data 0"  "'kern' Horizontal Kerning in Latin lookup 0 kerning class 1"  } ['kern' ('latn' <'dflt' > ) ]
DEI: 91125
KernClass2: 70+ 60 "'kern' Horizontal Kerning in Latin lookup 0 kerning class 1" 
 20 quotesingle quotedbl
 8 asterisk
 28 hyphen endash emdash uni00AD
 40 comma period quotesinglbase quotedblbase
 5 slash
 5 three
 4 five
 5 seven
 4 nine
 9 backslash
 22 quoteleft quotedblleft
 24 quoteright quotedblright
 29 guilsinglright guillemotright
 13 guillemotleft
 12 questiondown
 50 A Agrave Aacute Acircumflex Atilde Adieresis Aring
 1 B
 10 C Ccedilla
 5 D Eth
 43 E OE AE Egrave Eacute Ecircumflex Edieresis
 1 F
 1 G
 1 H
 37 I Igrave Iacute Icircumflex Idieresis
 1 J
 1 K
 1 L
 1 M
 8 N Ntilde

StartChar: .notdef
Encoding: 65536 -1 0
Width: 1083
Flags: W
HStem: 0 127<229 823> 897 127<229 823>
VStem: 102 127<127 897> 823 127<127 897>
LayerCount: 2
Fore
SplineSet
102 1024 m 1,0,-1
 950 1024 l 1,1,-1
 950 0 l 1,2,-1
 102 0 l 1,3,-1
 102 1024 l 1,0,-1
229 127 m 1,4,-1
 823 127 l 1,5,-1
 823 897 l 1,6,-1
 229 897 l 1,7,-1
 229 127 l 1,4,-1
EndSplineSet
EndChar

StartChar: dollar
Encoding: 36 36 4
Width: 827
Flags: W
HStem: -20 131<177.642 343> 1151 129<483 627.296>
VStem: 89 144<832.931 1088.5> 343 140<-233 -20 1280 1462> 571 143<236 419.215>
LayerCount: 2
Fore
SplineSet
343 -233 m 1,0,-1
 343 -20 l 1,1,2
 316 -19 316 -19 283.5 -15 c 128,-1,3
 251 -11 251 -11 215.5 -3 c 128,-1,4
 180 5 180 5 144 17.5 c 128,-1,5
 108 30 108 30 75 49 c 1,6,-1
 134 178 l 1,7,8
 194 143 194 143 258 127 c 128,-1,9
 322 111 322 111 378 111 c 0,10,11
 438 111 438 111 484 125.5 c 128,-1,12
 530 140 530 140 571 166 c 1,13,-1
 571 307 l 2,14,15
 571 351 571 351 547.5 389 c 128,-1,16
 524 427 524 427 489 461 c 128,-1,17
 454 495 454 495 413.5 524.5 c 128,-1,18
 373 554 373 554 339 580 c 0,19,20
 291 617 291 617 245.5 656.5 c 128,-1,21
 200 696 200 696 165.5 741.5 c 128,-1,22
 131 787 131 787 110 841 c 128,-1,23
 89 895 89 895 89 963 c 0,24,25
 89 1028 89 1028 107 1080.5 c 128,-1,26
 125 1133 125 1133 158 1172 c 128,-1,27
 191 1211 191 1211 238 1236.5 c 128,-1,28
 285 1262 285 1262 343 1274 c 1,29,-1
 343 1462 l 1,30,-1
 483 1462 l 1,31,-1
 483 1280 l 1,32,33
 545 1277 545 1277 596 1263 c 128,-1,34
 647 1249 647 1249 698 1223 c 1,35,-1
 636 1102 l 1,36,37
 580 1128 580 1128 531.5 1139.5 c 128,-1,38
 483 1151 483 1151 440 1151 c 0,39,40
 394 1151 394 1151 356 1138 c 128,-1,41
 318 1125 318 1125 290.5 1101 c 128,-1,42
 263 1077 263 1077 248 1043 c 128,-1,43
 233 1009 233 1009 233 967 c 0,44,45
 233 921 233 921 250 882.5 c 128,-1,46
 267 844 267 844 294 811 c 128,-1,47
 321 778 321 778 356 749.5 c 128,-1,48
 391 721 391 721 427 694 c 0,49,50
 499 640 499 640 552.5 595 c 128,-1,51
 606 550 606 550 642 507 c 128,-1,52
 678 464 678 464 696 419.5 c 128,-1,53
 714 375 714 375 714 324 c 2,54,-1
 714 236 l 1,55,-1
 773 123 l 1,56,57
 708 69 708 69 635.5 35.5 c 128,-1,58
 563 2 563 2 483 -12 c 1,59,-1
 483 -233 l 1,60,-1
 343 -233 l 1,0,-1
EndSplineSet
EndChar

StartChar: percent
Encoding: 37 37 5
Width: 1154
Flags: W
HStem: -20 112<814.084 952.207> 481 113<818.705 952.308> 668 112<197.208 336.223> 1169 113<197.087 336.324>
VStem: 80 110<787.359 1161.88> 342 117<785.083 1164.16> 696 111<98.7411 452.499> 958 117<97.0829 475.917>
LayerCount: 2
Fore
SplineSet
741 1282 m 1,0,-1
 864 1239 l 1,1,-1
 412 -20 l 1,2,-1
 289 23 l 1,3,-1
 741 1282 l 1,0,-1
459 897 m 2,4,5
 459 881 459 881 458.5 859 c 128,-1,6
 458 837 458 837 453.5 813 c 128,-1,7
 449 789 449 789 439 764.5 c 128,-1,8
 429 740 429 740 410 719 c 0,9,10
 394 701 394 701 375.5 691 c 128,-1,11
 357 681 357 681 338 676 c 128,-1,12
 319 671 319 671 301 669.5 c 128,-1,13
 283 668 283 668 268 668 c 256,14,15
 253 668 253 668 235.5 669.5 c 128,-1,16
 218 671 218 671 199.5 676 c 128,-1,17
 181 681 181 681 162.5 691 c 128,-1,18
 144 701 144 701 127 719 c 0,19,20
 108 740 108 740 98 764.5 c 128,-1,21
 88 789 88 789 84 813 c 128,-1,22
 80 837 80 837 80 859 c 128,-1,23
 80 881 80 881 80 897 c 2,24,-1
 80 1053 l 2,25,26
 80 1069 80 1069 80 1091 c 128,-1,27
 80 1113 80 1113 84 1137 c 128,-1,28
 88 1161 88 1161 98 1185.5 c 128,-1,29
 108 1210 108 1210 127 1231 c 0,30,31
 144 1249 144 1249 162.5 1259 c 128,-1,32
 181 1269 181 1269 199.5 1274 c 128,-1,33
 218 1279 218 1279 235.5 1280.5 c 128,-1,34
 253 1282 253 1282 268 1282 c 256,35,36
 283 1282 283 1282 301 1280.5 c 128,-1,37
 319 1279 319 1279 338 1274 c 128,-1,38
 357 1269 357 1269 375.5 1259 c 128,-1,39
 394 1249 394 1249 410 1231 c 0,40,41
 429 1210 429 1210 439 1185.5 c 128,-1,42
 449 1161 449 1161 453.5 1137 c 128,-1,43
 458 1113 458 1113 458.5 1091 c 128,-1,44
 459 1069 459 1069 459 1053 c 2,45,-1
 459 897 l 2,4,5
190 887 m 2,46,47
 190 868 190 868 192 846 c 128,-1,48
 194 824 194 824 207 809 c 0,49,50
 213 803 213 803 227.5 791.5 c 128,-1,51
 242 780 242 780 268 780 c 256,52,53
 294 780 294 780 308.5 791.5 c 128,-1,54
 323 803 323 803 328 809 c 0,55,56
 339 824 339 824 340.5 846 c 128,-1,57
 342 868 342 868 342 887 c 2,58,-1
 342 1063 l 2,59,60
 342 1081 342 1081 340.5 1103 c 128,-1,61
 339 1125 339 1125 328 1141 c 0,62,63
 323 1147 323 1147 308.5 1158 c 128,-1,64
 294 1169 294 1169 268 1169 c 256,65,66
 242 1169 242 1169 227.5 1158 c 128,-1,67
 213 1147 213 1147 207 1141 c 0,68,69
 194 1125 194 1125 192 1103 c 128,-1,70
 190 1081 190 1081 190 1063 c 2,71,-1
 190 887 l 2,46,47
1075 209 m 2,72,73
 1075 193 1075 193 1074.5 171 c 128,-1,74
 1074 149 1074 149 1069.5 125 c 128,-1,75
 1065 101 1065 101 1055 76.5 c 128,-1,76
 1045 52 1045 52 1026 31 c 0,77,78
 1010 13 1010 13 991.5 3 c 128,-1,79
 973 -7 973 -7 954.5 -12 c 128,-1,80
 936 -17 936 -17 918 -18.5 c 128,-1,81
 900 -20 900 -20 885 -20 c 256,82,83
 870 -20 870 -20 852.5 -18.5 c 128,-1,84
 835 -17 835 -17 816 -12 c 128,-1,85
 797 -7 797 -7 778.5 3 c 128,-1,86
 760 13 760 13 743 31 c 0,87,88
 724 52 724 52 714 76.5 c 128,-1,89
 704 101 704 101 700 125 c 128,-1,90
 696 149 696 149 696 171 c 128,-1,91
 696 193 696 193 696 209 c 2,92,-1
 696 365 l 2,93,94
 696 381 696 381 696 402.5 c 128,-1,95
 696 424 696 424 700 448 c 128,-1,96
 704 472 704 472 714 496.5 c 128,-1,97
 724 521 724 521 743 543 c 1,98,99
 760 561 760 561 778.5 571 c 128,-1,100
 797 581 797 581 816 586 c 128,-1,101
 835 591 835 591 852.5 592.5 c 128,-1,102
 870 594 870 594 885 594 c 256,103,104
 900 594 900 594 918 592.5 c 128,-1,105
 936 591 936 591 954.5 586 c 128,-1,106
 973 581 973 581 991.5 571 c 128,-1,107
 1010 561 1010 561 1026 543 c 0,108,109
 1045 521 1045 521 1055 496.5 c 128,-1,110
 1065 472 1065 472 1069.5 448 c 128,-1,111
 1074 424 1074 424 1074.5 402.5 c 128,-1,112
 1075 381 1075 381 1075 365 c 2,113,-1
 1075 209 l 2,72,73
807 199 m 2,114,115
 807 180 807 180 809 158 c 128,-1,116
 811 136 811 136 823 121 c 0,117,118
 829 115 829 115 844 103.5 c 128,-1,119
 859 92 859 92 885 92 c 256,120,121
 911 92 911 92 925 103.5 c 128,-1,122
 939 115 939 115 944 121 c 0,123,124
 955 136 955 136 956.5 158 c 128,-1,125
 958 180 958 180 958 199 c 2,126,-1
 958 375 l 2,127,128
 958 393 958 393 956.5 415 c 128,-1,129
 955 437 955 437 944 453 c 0,130,131
 939 459 939 459 925 470 c 128,-1,132
 911 481 911 481 885 481 c 256,133,134
 859 481 859 481 844 470 c 128,-1,135
 829 459 829 459 823 453 c 1,136,137
 811 437 811 437 809 415 c 128,-1,138
 807 393 807 393 807 375 c 2,139,-1
 807 199 l 2,114,115
EndSplineSet
EndChar

StartChar: ampersand
Encoding: 38 38 6
Width: 944
Flags: W
HStem: -20 131<327.057 686.255> 367 131<539 692> 662 131<373.917 602> 1130 132<373 770>
VStem: 65 148<219.752 553.772> 229 144<780 1130> 692 144<225 367>
LayerCount: 2
Fore
SplineSet
602 662 m 1,0,-1
 479 662 l 2,1,2
 414 662 414 662 364.5 642 c 128,-1,3
 315 622 315 622 281.5 585.5 c 128,-1,4
 248 549 248 549 230.5 497.5 c 128,-1,5
 213 446 213 446 213 383 c 0,6,7
 213 321 213 321 231.5 270.5 c 128,-1,8
 250 220 250 220 287.5 184.5 c 128,-1,9
 325 149 325 149 380.5 130 c 128,-1,10
 436 111 436 111 510 111 c 0,11,12
 563 111 563 111 610 122.5 c 128,-1,13
 657 134 657 134 692 160 c 1,14,-1
 692 367 l 1,15,-1
 539 367 l 1,16,-1
 539 498 l 1,17,-1
 836 498 l 1,18,-1
 836 225 l 1,19,-1
 909 131 l 1,20,21
 874 94 874 94 827.5 66 c 128,-1,22
 781 38 781 38 729 19 c 128,-1,23
 677 0 677 0 622 -10 c 128,-1,24
 567 -20 567 -20 514 -20 c 0,25,26
 400 -20 400 -20 316.5 7.5 c 128,-1,27
 233 35 233 35 177.5 87 c 128,-1,28
 122 139 122 139 94.5 212 c 128,-1,29
 67 285 67 285 65 377 c 0,30,31
 65 382 65 382 65 387 c 0,32,33
 65 446 65 446 76 496 c 0,34,35
 88 549 88 549 110 591.5 c 128,-1,36
 132 634 132 634 162.5 666.5 c 128,-1,37
 193 699 193 699 229 723 c 1,38,-1
 229 1130 l 1,39,-1
 188 1262 l 1,40,-1
 770 1262 l 1,41,-1
 770 1130 l 1,42,-1
 373 1130 l 1,43,-1
 373 780 l 1,44,45
 399 786 399 786 425 789.5 c 128,-1,46
 451 793 451 793 477 793 c 2,47,-1
 602 793 l 1,48,-1
 602 662 l 1,0,-1
EndSplineSet
EndChar

StartChar: quotesingle
Encoding: 39 39 7
Width: 331
Flags: W
HStem: 922 340<100 231>
VStem: 100 131<922 1262>
LayerCount: 2
Fore
SplineSet
231 1262 m 1,0,-1
 231 922 l 1,1,-1
 100 922 l 1,2,-1
 100 1262 l 1,3,-1
 231 1262 l 1,0,-1
EndSplineSet
EndChar

StartChar: parenleft
Encoding: 40 40 8
Width: 495
Flags: W
VStem: 87 135<180.02 861.98>
LayerCount: 2
Fore
SplineSet
343 -301 m 1,0,1
 262 -182 262 -182 211.5 -70.5 c 128,-1,2
 161 41 161 41 133.5 144 c 128,-1,3
 106 247 106 247 96.5 341.5 c 128,-1,4
 87 436 87 436 87 520 c 0,5,6
 87 605 87 605 96.5 700 c 128,-1,7
 106 795 106 795 133.5 898 c 128,-1,8
 161 1001 161 1001 211.5 1112.5 c 128,-1,9
 262 1224 262 1224 343 1343 c 1,10,-1
 455 1270 l 1,11,12
 383 1170 383 1170 337.5 1065.5 c 128,-1,13
 292 961 292 961 266.5 862 c 128,-1,14
 241 763 241 763 231.5 675 c 128,-1,15
 222 587 222 587 222 520 c 0,16,17
 222 452 222 452 231.5 365 c 128,-1,18
 241 278 241 278 266.5 180 c 128,-1,19
 292 82 292 82 337.5 -21.5 c 128,-1,20
 383 -125 383 -125 455 -225 c 1,21,-1
 343 -301 l 1,0,1
EndSplineSet
EndChar

StartChar: parenright
Encoding: 41 41 9
Width: 496
Flags: W
VStem: 274 135<180.02 861.98>
LayerCount: 2
Fore
SplineSet
41 -225 m 1,0,1
 113 -125 113 -125 158.5 -21.5 c 128,-1,2
 204 82 204 82 229.5 180 c 128,-1,3
 255 278 255 278 264.5 365 c 128,-1,4
 274 452 274 452 274 520 c 0,5,6
 274 587 274 587 264.5 675 c 128,-1,7
 255 763 255 763 229.5 862 c 128,-1,8
 204 961 204 961 158.5 1065.5 c 128,-1,9
 113 1170 113 1170 41 1270 c 1,10,-1
 153 1343 l 1,11,12
 234 1224 234 1224 284.5 1112.5 c 128,-1,13
 335 1001 335 1001 362.5 898 c 128,-1,14
 390 795 390 795 399.5 700 c 128,-1,15
 409 605 409 605 409 520 c 0,16,17
 409 436 409 436 399.5 341.5 c 128,-1,18
 390 247 390 247 362.5 144 c 128,-1,19
 335 41 335 41 284.5 -70.5 c 128,-1,20
 234 -182 234 -182 153 -301 c 1,21,-1
 41 -225 l 1,0,1
EndSplineSet
EndChar

StartChar: asterisk
Encoding: 42 42 10
Width: 854
Flags: W
HStem: 1242 20G<354 500>
VStem: 363 127<985 1262>
LayerCount: 2
Fore
SplineSet
62 940 m 1,0,-1
 105 1081 l 1,1,-1
 363 983 l 1,2,-1
 354 1262 l 1,3,-1
 500 1262 l 1,4,-1
 490 985 l 1,5,-1
 748 1081 l 1,6,-1
 791 940 l 1,7,-1
 522 866 l 1,8,-1
 701 647 l 1,9,-1
 584 559 l 1,10,-1
 426 788 l 1,11,-1
 272 559 l 1,12,-1
 156 647 l 1,13,-1
 328 864 l 1,14,-1
 62 940 l 1,0,-1
EndSplineSet
EndChar

StartChar: plus
Encoding: 43 43 11
Width: 822
Flags: W
HStem: 662 131<64 342 480 758>
VStem: 342 138<362 662 793 1092>
LayerCount: 2
Fore
SplineSet
64 793 m 1,0,-1
 342 793 l 1,1,-1
 342 1092 l 1,2,-1
 480 1092 l 1,3,-1
 480 793 l 1,4,-1
 758 793 l 1,5,-1
 758 662 l 1,6,-1
 480 662 l 1,7,-1
 480 362 l 1,8,-1
 342 362 l 1,9,-1
 342 662 l 1,10,-1
 64 662 l 1,11,-1
 64 793 l 1,0,-1
EndSplineSet
EndChar

StartChar: comma
Encoding: 44 44 12
Width: 355
Flags: W
HStem: -209 381
VStem: 157 102<-97.6841 0>
LayerCount: 2
Fore
SplineSet
259 172 m 1,0,-1
 259 0 l 2,1,2
 259 -40 259 -40 246.5 -77.5 c 128,-1,3
 234 -115 234 -115 212 -141 c 0,4,5
 195 -161 195 -161 167.5 -179.5 c 128,-1,6
 140 -198 140 -198 114 -209 c 1,7,-1
 67 -123 l 1,8,9
 79 -118 79 -118 99.5 -106 c 128,-1,10
 120 -94 120 -94 132 -80 c 0,11,12
 144 -67 144 -67 152 -46.5 c 128,-1,13
 160 -26 160 -26 157 0 c 1,14,-1
 73 172 l 1,15,-1
 259 172 l 1,0,-1
EndSplineSet
EndChar

StartChar: hyphen
Encoding: 45 45 13
Width: 804
Flags: W
HStem: 434 144<113 691>
VStem: 113 578<434 578>
LayerCount: 2
Fore
SplineSet
113 578 m 1,0,-1
 691 578 l 1,1,-1
 691 434 l 1,2,-1
 113 434 l 1,3,-1
 113 578 l 1,0,-1
EndSplineSet
EndChar

StartChar: period
Encoding: 46 46 14
Width: 361
Flags: W
HStem: 0 172<95 267>
VStem: 95 172<0 172>
LayerCount: 2
Fore
SplineSet
267 172 m 1,0,-1
 267 0 l 1,1,-1
 95 0 l 1,2,-1
 95 172 l 1,3,-1
 267 172 l 1,0,-1
EndSplineSet
EndChar

StartChar: slash
Encoding: 47 47 15
Width: 812
Flags: W
HStem: -432 21G<109.791 174.181> 1262 20G<636.819 701.209>
LayerCount: 2
Fore
SplineSet
644 1282 m 1,0,-1
 767 1239 l 1,1,-1
 167 -432 l 1,2,-1
 44 -389 l 1,3,-1
 644 1282 l 1,0,-1
EndSplineSet
EndChar

StartChar: zero
Encoding: 48 48 16
Width: 971
Flags: W
HStem: -20 131<298.947 657.267> 1151 131<349.988 605.842>
VStem: 130 143<146.438 1064.4> 683 143<240 1064.4>
LayerCount: 2
Fore
SplineSet
478 111 m 0,0,1
 605 111 605 111 683 174 c 1,2,-1
 683 829 l 2,3,4
 683 899 683 899 673.5 958 c 128,-1,5
 664 1017 664 1017 641 1060 c 128,-1,6
 618 1103 618 1103 578.5 1127 c 128,-1,7
 539 1151 539 1151 478 1151 c 256,8,9
 417 1151 417 1151 377.5 1127 c 128,-1,10
 338 1103 338 1103 314.5 1060 c 128,-1,11
 291 1017 291 1017 282 958 c 128,-1,12
 273 899 273 899 273 829 c 2,13,-1
 273 174 l 1,14,15
 352 111 352 111 478 111 c 0,0,1
478 1282 m 256,16,17
 577 1282 577 1282 643.5 1248 c 128,-1,18
 710 1214 710 1214 750.5 1153.5 c 128,-1,19
 791 1093 791 1093 808.5 1010 c 128,-1,20
 826 927 826 927 826 829 c 2,21,-1
 826 240 l 1,22,-1
 894 145 l 1,23,24
 863 116 863 116 823 86.5 c 128,-1,25
 783 57 783 57 731.5 33.5 c 128,-1,26
 680 10 680 10 617 -5 c 128,-1,27
 554 -20 554 -20 478 -20 c 0,28,29
 410 -20 410 -20 354.5 -8.5 c 128,-1,30
 299 3 299 3 256 20 c 128,-1,31
 213 37 213 37 182 57 c 128,-1,32
 151 77 151 77 130 94 c 1,33,-1
 130 829 l 2,34,35
 130 927 130 927 147 1010 c 128,-1,36
 164 1093 164 1093 204.5 1153.5 c 128,-1,37
 245 1214 245 1214 312 1248 c 128,-1,38
 379 1282 379 1282 478 1282 c 256,16,17
EndSplineSet
EndChar

StartChar: one
Encoding: 49 49 17
Width: 435
Flags: W
HStem: 0 21G<147 291> 1242 20G<104 291>
VStem: 147 144<0 1172.67>
LayerCount: 2
Fore
SplineSet
291 1262 m 1,0,-1
 291 0 l 1,1,-1
 147 0 l 1,2,-1
 147 1128 l 1,3,-1
 104 1262 l 1,4,-1
 291 1262 l 1,0,-1
EndSplineSet
EndChar

StartChar: two
Encoding: 50 50 18
Width: 766
Flags: W
HStem: 0 131<262 673> 1151 131<148.947 463.081>
VStem: 522 151<800.401 1092.4>
LayerCount: 2
Fore
SplineSet
327 1151 m 0,0,1
 287 1151 287 1151 239.5 1139.5 c 128,-1,2
 192 1128 192 1128 141 1102 c 1,3,-1
 90 1223 l 1,4,5
 147 1254 147 1254 204.5 1268 c 128,-1,6
 262 1282 262 1282 336 1282 c 0,7,8
 412 1282 412 1282 473 1259.5 c 128,-1,9
 534 1237 534 1237 577 1196 c 128,-1,10
 620 1155 620 1155 642.5 1095.5 c 128,-1,11
 665 1036 665 1036 665 963 c 0,12,13
 665 925 665 925 657 889.5 c 128,-1,14
 649 854 649 854 636 819.5 c 128,-1,15
 623 785 623 785 606 751.5 c 128,-1,16
 589 718 589 718 571 684 c 2,17,-1
 262 131 l 1,18,-1
 673 131 l 1,19,-1
 673 0 l 1,20,-1
 34 0 l 1,21,-1
 462 770 l 2,22,23
 493 826 493 826 507.5 871 c 128,-1,24
 522 916 522 916 522 967 c 0,25,26
 522 1007 522 1007 509.5 1040.5 c 128,-1,27
 497 1074 497 1074 472 1098.5 c 128,-1,28
 447 1123 447 1123 411 1137 c 128,-1,29
 375 1151 375 1151 327 1151 c 0,0,1
EndSplineSet
EndChar

StartChar: three
Encoding: 51 51 19
Width: 746
Flags: W
HStem: 662 131<378 479.764> 1130 132<91 419>
VStem: 519 143<356.641 621.969>
LayerCount: 2
Fore
SplineSet
91 1130 m 1,0,-1
 91 1262 l 1,1,-1
 652 1262 l 1,2,-1
 378 793 l 1,3,4
 444 793 444 793 496.5 774.5 c 128,-1,5
 549 756 549 756 586 720.5 c 128,-1,6
 623 685 623 685 642.5 633 c 128,-1,7
 662 581 662 581 662 514 c 0,8,9
 662 409 662 409 620 325 c 128,-1,10
 578 241 578 241 506 175.5 c 128,-1,11
 434 110 434 110 338 61.5 c 128,-1,12
 242 13 242 13 134 -23 c 1,13,-1
 81 111 l 1,14,15
 177 141 177 141 257.5 179.5 c 128,-1,16
 338 218 338 218 396 267 c 128,-1,17
 454 316 454 316 486.5 376.5 c 128,-1,18
 519 437 519 437 519 510 c 0,19,20
 519 541 519 541 510 569 c 128,-1,21
 501 597 501 597 480 617.5 c 128,-1,22
 459 638 459 638 424.5 650 c 128,-1,23
 390 662 390 662 339 662 c 2,24,-1
 144 662 l 1,25,-1
 419 1130 l 1,26,-1
 91 1130 l 1,0,-1
EndSplineSet
EndChar

StartChar: four
Encoding: 52 52 20
Width: 882
Flags: W
HStem: 0 21G<549 692> 662 131<263.036 549 692 794> 1242 20G<69 205 549 692>
VStem: 69 136<852.137 1262> 549 143<0 662 793 1262>
LayerCount: 2
Fore
SplineSet
549 793 m 1,0,-1
 549 1262 l 1,1,-1
 692 1262 l 1,2,-1
 692 793 l 1,3,-1
 794 793 l 1,4,-1
 833 662 l 1,5,-1
 692 662 l 1,6,-1
 692 0 l 1,7,-1
 549 0 l 1,8,-1
 549 662 l 1,9,-1
 409 662 l 2,10,11
 328 662 328 662 265 685 c 128,-1,12
 202 708 202 708 158.5 751.5 c 128,-1,13
 115 795 115 795 92 858 c 128,-1,14
 69 921 69 921 69 1001 c 2,15,-1
 69 1262 l 1,16,-1
 205 1262 l 1,17,-1
 205 1001 l 2,18,19
 205 899 205 899 254 846 c 128,-1,20
 303 793 303 793 405 793 c 2,21,-1
 549 793 l 1,0,-1
EndSplineSet
EndChar

StartChar: five
Encoding: 53 53 21
Width: 765
Flags: W
HStem: 662 131<256 499.128> 1130 132<256 563.342>
VStem: 125 131<793 1130> 537 143<355.354 623.234>
LayerCount: 2
Fore
SplineSet
519 1262 m 1,0,-1
 652 1305 l 1,1,-1
 652 1130 l 1,2,-1
 256 1130 l 1,3,-1
 256 793 l 1,4,-1
 351 793 l 2,5,6
 425 793 425 793 486 777.5 c 128,-1,7
 547 762 547 762 590 728 c 128,-1,8
 633 694 633 694 656.5 641.5 c 128,-1,9
 680 589 680 589 680 514 c 0,10,11
 680 413 680 413 638 329.5 c 128,-1,12
 596 246 596 246 524 179.5 c 128,-1,13
 452 113 452 113 356 63 c 128,-1,14
 260 13 260 13 152 -23 c 1,15,-1
 99 111 l 1,16,17
 195 141 195 141 275.5 180 c 128,-1,18
 356 219 356 219 414 267.5 c 128,-1,19
 472 316 472 316 504.5 374.5 c 128,-1,20
 537 433 537 433 537 502 c 0,21,22
 537 549 537 549 524 580 c 128,-1,23
 511 611 511 611 485 629 c 128,-1,24
 459 647 459 647 418.5 654.5 c 128,-1,25
 378 662 378 662 324 662 c 2,26,-1
 125 662 l 1,27,-1
 125 1262 l 1,28,-1
 519 1262 l 1,0,-1
EndSplineSet
EndChar

StartChar: six
Encoding: 54 54 22
Width: 844
Flags: W
HStem: 0 131<280 530.359> 1262 20G<573 631.786>
VStem: 136 144<131 662 788.255 958.297> 626 143<223.649 532.316>
LayerCount: 2
Fore
SplineSet
675 1151 m 1,0,1
 593 1120 593 1120 521 1093.5 c 128,-1,2
 449 1067 449 1067 395.5 1030 c 128,-1,3
 342 993 342 993 311 937.5 c 128,-1,4
 280 882 280 882 280 793 c 1,5,6
 335 788 335 788 393 777.5 c 128,-1,7
 451 767 451 767 505 748 c 128,-1,8
 559 729 559 729 607 699 c 128,-1,9
 655 669 655 669 691 625 c 128,-1,10
 727 581 727 581 748 521 c 128,-1,11
 769 461 769 461 769 381 c 0,12,13
 769 292 769 292 741 221.5 c 128,-1,14
 713 151 713 151 663 102 c 128,-1,15
 613 53 613 53 543.5 26.5 c 128,-1,16
 474 0 474 0 392 0 c 2,17,-1
 61 0 l 1,18,-1
 136 131 l 1,19,-1
 136 795 l 2,20,21
 136 901 136 901 174 978 c 128,-1,22
 212 1055 212 1055 278 1111.5 c 128,-1,23
 344 1168 344 1168 433 1208.5 c 128,-1,24
 522 1249 522 1249 624 1282 c 1,25,-1
 675 1151 l 1,0,1
280 131 m 1,26,-1
 362 131 l 2,27,28
 416 131 416 131 464 144.5 c 128,-1,29
 512 158 512 158 548 188 c 128,-1,30
 584 218 584 218 605 265.5 c 128,-1,31
 626 313 626 313 626 381 c 0,32,33
 626 455 626 455 598.5 505.5 c 128,-1,34
 571 556 571 556 523.5 589 c 128,-1,35
 476 622 476 622 413 639 c 128,-1,36
 350 656 350 656 280 662 c 1,37,-1
 280 131 l 1,26,-1
EndSplineSet
EndChar

StartChar: seven
Encoding: 55 55 23
Width: 693
Flags: W
HStem: 1130 132<59 477>
VStem: 59 606<1218.65 1262>
LayerCount: 2
Fore
SplineSet
665 1262 m 1,0,-1
 241 -20 l 1,1,-1
 110 23 l 1,2,-1
 477 1130 l 1,3,-1
 59 1130 l 1,4,-1
 59 1262 l 1,5,-1
 665 1262 l 1,0,-1
EndSplineSet
EndChar

StartChar: eight
Encoding: 56 56 24
Width: 917
Flags: W
HStem: -20 131<270.619 630.055> 1151 131<329.245 558.346>
VStem: 102 143<145.021 509.818> 147 143<874.072 1111.17> 596 143<878.07 1112.9> 655 143<240 510.43>
LayerCount: 2
Fore
SplineSet
442 786 m 1,0,1
 454 793 454 793 468 803.5 c 128,-1,2
 482 814 482 814 496.5 826 c 128,-1,3
 511 838 511 838 524.5 850.5 c 128,-1,4
 538 863 538 863 548 874 c 0,5,6
 574 903 574 903 585 939 c 128,-1,7
 596 975 596 975 596 1010 c 0,8,9
 596 1042 596 1042 584.5 1068 c 128,-1,10
 573 1094 573 1094 552 1112.5 c 128,-1,11
 531 1131 531 1131 503 1141 c 128,-1,12
 475 1151 475 1151 442 1151 c 0,13,14
 413 1151 413 1151 385.5 1141.5 c 128,-1,15
 358 1132 358 1132 337 1113.5 c 128,-1,16
 316 1095 316 1095 303 1069 c 128,-1,17
 290 1043 290 1043 290 1010 c 0,18,19
 290 975 290 975 301 939 c 128,-1,20
 312 903 312 903 335 874 c 0,21,22
 345 863 345 863 359 850.5 c 128,-1,23
 373 838 373 838 388 826 c 128,-1,24
 403 814 403 814 417 803.5 c 128,-1,25
 431 793 431 793 442 786 c 1,0,1
448 -20 m 0,26,27
 403 -20 403 -20 356 -13 c 128,-1,28
 309 -6 309 -6 263.5 8 c 128,-1,29
 218 22 218 22 176.5 43.5 c 128,-1,30
 135 65 135 65 102 94 c 1,31,-1
 102 375 l 2,32,33
 102 483 102 483 153.5 571 c 128,-1,34
 205 659 205 659 305 731 c 1,35,36
 229 787 229 787 188 853 c 128,-1,37
 147 919 147 919 147 1006 c 0,38,39
 147 1066 147 1066 169 1117 c 128,-1,40
 191 1168 191 1168 230.5 1204.5 c 128,-1,41
 270 1241 270 1241 324 1261.5 c 128,-1,42
 378 1282 378 1282 442 1282 c 0,43,44
 501 1282 501 1282 555 1263.5 c 128,-1,45
 609 1245 609 1245 650 1209.5 c 128,-1,46
 691 1174 691 1174 715 1122.5 c 128,-1,47
 739 1071 739 1071 739 1006 c 0,48,49
 739 919 739 919 699 853 c 128,-1,50
 659 787 659 787 583 731 c 1,51,52
 681 659 681 659 739.5 570.5 c 128,-1,53
 798 482 798 482 798 375 c 2,54,-1
 798 240 l 1,55,-1
 866 145 l 1,56,57
 775 60 775 60 672.5 20 c 128,-1,58
 570 -20 570 -20 448 -20 c 0,26,27
448 666 m 1,59,60
 348 606 348 606 296.5 523 c 128,-1,61
 245 440 245 440 245 322 c 2,62,-1
 245 174 l 1,63,64
 289 139 289 139 343 125 c 128,-1,65
 397 111 397 111 448 111 c 0,66,67
 504 111 504 111 558.5 125 c 128,-1,68
 613 139 613 139 655 174 c 1,69,-1
 655 322 l 2,70,71
 655 440 655 440 604 523 c 128,-1,72
 553 606 553 606 448 666 c 1,59,60
EndSplineSet
EndChar

StartChar: nine
Encoding: 57 57 25
Width: 856
Flags: W
HStem: 662 131<234 572> 1130 132<292.489 572>
VStem: 91 143<793 1071.86> 572 144<419.611 662 793 1130>
LayerCount: 2
Fore
SplineSet
175 113 m 1,0,1
 257 136 257 136 328 178 c 128,-1,2
 399 220 399 220 452 286 c 128,-1,3
 505 352 505 352 536.5 444.5 c 128,-1,4
 568 537 568 537 572 662 c 1,5,-1
 91 662 l 1,6,-1
 91 922 l 2,7,8
 91 1003 91 1003 115.5 1066 c 128,-1,9
 140 1129 140 1129 185 1172.5 c 128,-1,10
 230 1216 230 1216 294.5 1239 c 128,-1,11
 359 1262 359 1262 439 1262 c 2,12,-1
 716 1262 l 1,13,-1
 716 793 l 1,14,-1
 816 662 l 1,15,-1
 716 662 l 1,16,17
 714 509 714 509 671.5 394 c 128,-1,18
 629 279 629 279 561 196.5 c 128,-1,19
 493 114 493 114 406 61.5 c 128,-1,20
 319 9 319 9 228 -20 c 1,21,-1
 175 113 l 1,0,1
572 1130 m 1,22,-1
 439 1130 l 2,23,24
 234 1130 234 1130 234 926 c 2,25,-1
 234 793 l 1,26,-1
 572 793 l 1,27,-1
 572 1130 l 1,22,-1
EndSplineSet
EndChar

StartChar: colon
Encoding: 58 58 26
Width: 409
Flags: W
HStem: 0 172<118 290> 750 172<118 290>
VStem: 118 172<0 172 750 922>
LayerCount: 2
Fore
SplineSet
290 172 m 1,0,-1
 290 0 l 1,1,-1
 118 0 l 1,2,-1
 118 172 l 1,3,-1
 290 172 l 1,0,-1
290 922 m 1,4,-1
 290 750 l 1,5,-1
 118 750 l 1,6,-1
 118 922 l 1,7,-1
 290 922 l 1,4,-1
EndSplineSet
EndChar

StartChar: semicolon
Encoding: 59 59 27
Width: 445
Flags: W
HStem: 750 172<143 316>
VStem: 143 173<750 922> 201 102<-97.6841 0>
LayerCount: 2
Fore
SplineSet
316 922 m 1,0,-1
 316 750 l 1,1,-1
 143 750 l 1,2,-1
 143 922 l 1,3,-1
 316 922 l 1,0,-1
303 172 m 1,4,-1
 303 0 l 2,5,6
 303 -40 303 -40 290.5 -77.5 c 128,-1,7
 278 -115 278 -115 256 -141 c 0,8,9
 239 -161 239 -161 211.5 -179.5 c 128,-1,10
 184 -198 184 -198 158 -209 c 1,11,-1
 111 -123 l 1,12,13
 123 -118 123 -118 143.5 -106 c 128,-1,14
 164 -94 164 -94 176 -80 c 1,15,16
 189 -67 189 -67 196.5 -46.5 c 128,-1,17
 204 -26 204 -26 201 0 c 1,18,-1
 117 172 l 1,19,-1
 303 172 l 1,4,-1
EndSplineSet
EndChar

StartChar: less
Encoding: 60 60 28
Width: 771
Flags: W
VStem: 63 614
LayerCount: 2
Fore
SplineSet
63 793 m 1,0,-1
 599 1126 l 1,1,-1
 677 1008 l 1,2,-1
 229 727 l 1,3,-1
 677 446 l 1,4,-1
 599 328 l 1,5,-1
 63 662 l 1,6,-1
 63 793 l 1,0,-1
EndSplineSet
EndChar

StartChar: equal
Encoding: 61 61 29
Width: 917
Flags: W
HStem: 500 131<132 785> 823 131<132 785>
VStem: 132 653<500 631 823 954>
LayerCount: 2
Fore
SplineSet
132 631 m 1,0,-1
 785 631 l 1,1,-1
 785 500 l 1,2,-1
 132 500 l 1,3,-1
 132 631 l 1,0,-1
132 954 m 1,4,-1
 785 954 l 1,5,-1
 785 823 l 1,6,-1
 132 823 l 1,7,-1
 132 954 l 1,4,-1
EndSplineSet
EndChar

StartChar: greater
Encoding: 62 62 30
Width: 771
Flags: W
VStem: 94 614
LayerCount: 2
Fore
SplineSet
708 662 m 1,0,-1
 172 328 l 1,1,-1
 94 446 l 1,2,-1
 542 727 l 1,3,-1
 94 1008 l 1,4,-1
 172 1126 l 1,5,-1
 708 793 l 1,6,-1
 708 662 l 1,0,-1
EndSplineSet
EndChar

StartChar: question
Encoding: 63 63 31
Width: 734
Flags: W
HStem: 1151 131<114.141 449.373>
VStem: 249 143<334 547> 517 143<830.196 1084.92>
LayerCount: 2
Fore
SplineSet
312 1282 m 0,0,1
 393 1282 393 1282 457.5 1258.5 c 128,-1,2
 522 1235 522 1235 567 1193.5 c 128,-1,3
 612 1152 612 1152 636 1094 c 128,-1,4
 660 1036 660 1036 660 967 c 0,5,6
 660 915 660 915 648.5 873 c 128,-1,7
 637 831 637 831 618 795.5 c 128,-1,8
 599 760 599 760 573 729.5 c 128,-1,9
 547 699 547 699 519 672 c 2,10,-1
 392 547 l 1,11,-1
 392 334 l 1,12,-1
 249 334 l 1,13,-1
 249 604 l 1,14,-1
 413 762 l 2,15,16
 433 781 433 781 451.5 803 c 128,-1,17
 470 825 470 825 484.5 850 c 128,-1,18
 499 875 499 875 508 904 c 128,-1,19
 517 933 517 933 517 967 c 0,20,21
 517 1006 517 1006 502 1039.5 c 128,-1,22
 487 1073 487 1073 459.5 1098 c 128,-1,23
 432 1123 432 1123 394 1137 c 128,-1,24
 356 1151 356 1151 310 1151 c 0,25,26
 256 1151 256 1151 208.5 1139.5 c 128,-1,27
 161 1128 161 1128 105 1102 c 1,28,-1
 52 1223 l 1,29,30
 112 1254 112 1254 173 1268 c 128,-1,31
 234 1282 234 1282 312 1282 c 0,0,1
236 172 m 1,32,-1
 236 0 l 1,33,-1
 408 0 l 1,34,-1
 408 172 l 1,35,-1
 236 172 l 1,32,-1
EndSplineSet
EndChar

StartChar: at
Encoding: 64 64 32
Width: 1099
Flags: W
HStem: -225 121<382.36 773.436> 96 123<604.811 842.405> 819 123<609.504 841.094> 1141 121<379.693 733.032>
VStem: 121 131<32.9135 1005.02> 384 139<309.759 721.928> 844 133<270 810.498>
LayerCount: 2
Fore
SplineSet
560 -104 m 0,0,1
 615 -104 615 -104 670 -94 c 128,-1,2
 725 -84 725 -84 775 -61 c 1,3,-1
 775 -186 l 1,4,5
 725 -206 725 -206 668.5 -215.5 c 128,-1,6
 612 -225 612 -225 554 -225 c 0,7,8
 435 -225 435 -225 353 -187.5 c 128,-1,9
 271 -150 271 -150 219 -86 c 128,-1,10
 167 -22 167 -22 144 64 c 128,-1,11
 121 150 121 150 121 248 c 2,12,-1
 121 788 l 2,13,14
 121 886 121 886 144 972 c 128,-1,15
 167 1058 167 1058 219 1122.5 c 128,-1,16
 271 1187 271 1187 353 1224.5 c 128,-1,17
 435 1262 435 1262 554 1262 c 0,18,19
 672 1262 672 1262 753 1228.5 c 128,-1,20
 834 1195 834 1195 883.5 1134 c 128,-1,21
 933 1073 933 1073 955 989 c 128,-1,22
 977 905 977 905 977 805 c 2,23,-1
 977 270 l 1,24,-1
 1029 178 l 1,25,26
 973 146 973 146 894.5 121 c 128,-1,27
 816 96 816 96 724 96 c 0,28,29
 631 96 631 96 566 131.5 c 128,-1,30
 501 167 501 167 460.5 225.5 c 128,-1,31
 420 284 420 284 402 360.5 c 128,-1,32
 384 437 384 437 384 518 c 256,33,34
 384 599 384 599 404.5 675.5 c 128,-1,35
 425 752 425 752 466.5 811.5 c 128,-1,36
 508 871 508 871 570.5 906.5 c 128,-1,37
 633 942 633 942 717 942 c 0,38,39
 758 942 758 942 785.5 936 c 128,-1,40
 813 930 813 930 842 922 c 1,41,42
 831 967 831 967 812 1007 c 128,-1,43
 793 1047 793 1047 760 1076.5 c 128,-1,44
 727 1106 727 1106 675.5 1123.5 c 128,-1,45
 624 1141 624 1141 547 1141 c 0,46,47
 460 1141 460 1141 403.5 1111 c 128,-1,48
 347 1081 347 1081 313 1032 c 128,-1,49
 279 983 279 983 265.5 920.5 c 128,-1,50
 252 858 252 858 252 793 c 2,51,-1
 252 252 l 2,52,53
 252 187 252 187 264.5 123 c 128,-1,54
 277 59 277 59 311.5 8.5 c 128,-1,55
 346 -42 346 -42 405.5 -73 c 128,-1,56
 465 -104 465 -104 560 -104 c 0,0,1
844 793 m 1,57,58
 829 802 829 802 799.5 810.5 c 128,-1,59
 770 819 770 819 728 819 c 0,60,61
 669 819 669 819 629.5 791 c 128,-1,62
 590 763 590 763 566.5 719.5 c 128,-1,63
 543 676 543 676 533 622.5 c 128,-1,64
 523 569 523 569 523 518 c 256,65,66
 523 467 523 467 531.5 414 c 128,-1,67
 540 361 540 361 563 317.5 c 128,-1,68
 586 274 586 274 626 246.5 c 128,-1,69
 666 219 666 219 728 219 c 0,70,71
 757 219 757 219 789 226.5 c 128,-1,72
 821 234 821 234 844 248 c 1,73,-1
 844 793 l 1,57,58
EndSplineSet
EndChar

StartChar: A
Encoding: 65 65 33
Width: 915
Flags: W
HStem: 662 131<320 591> 1151 131<365.626 549.374>
LayerCount: 2
Fore
SplineSet
304 662 m 1,0,-1
 216 -20 l 1,1,-1
 74 -2 l 1,2,-1
 238 1257 l 1,3,4
 272 1266 272 1266 305 1271 c 128,-1,5
 338 1276 338 1276 367 1278.5 c 128,-1,6
 396 1281 396 1281 419 1281.5 c 128,-1,7
 442 1282 442 1282 457 1282 c 0,8,9
 488 1282 488 1282 548.5 1278 c 128,-1,10
 609 1274 609 1274 679 1257 c 1,11,-1
 840 -2 l 1,12,-1
 699 -20 l 1,13,-1
 611 662 l 1,14,-1
 304 662 l 1,0,-1
457 1151 m 0,15,16
 433 1151 433 1151 409 1148.5 c 128,-1,17
 385 1146 385 1146 365 1141 c 1,18,-1
 320 793 l 1,19,-1
 591 793 l 1,20,-1
 550 1141 l 1,21,22
 530 1146 530 1146 506 1148.5 c 128,-1,23
 482 1151 482 1151 457 1151 c 0,15,16
EndSplineSet
EndChar

StartChar: B
Encoding: 66 66 34
Width: 926
Flags: W
HStem: -20 131<294.714 616.503> 662 131<289 546.102> 1151 131<290.561 495.183>
VStem: 145 144<134.784 662 793 1100> 547 143<782 1098.17> 707 147<205.836 553.679>
LayerCount: 2
Fore
SplineSet
690 723 m 1,0,1
 725 700 725 700 755.5 668 c 128,-1,2
 786 636 786 636 808 594 c 128,-1,3
 830 552 830 552 842 499 c 0,4,5
 854 450 854 450 854 391 c 0,6,7
 854 386 854 386 854 381 c 0,8,9
 852 289 852 289 827 215 c 128,-1,10
 802 141 802 141 753 89 c 128,-1,11
 704 37 704 37 630.5 8.5 c 128,-1,12
 557 -20 557 -20 459 -20 c 0,13,14
 416 -20 416 -20 372 -14 c 128,-1,15
 328 -8 328 -8 287 4 c 128,-1,16
 246 16 246 16 209.5 33.5 c 128,-1,17
 173 51 173 51 145 74 c 1,18,-1
 145 1100 l 1,19,-1
 100 1208 l 1,20,21
 169 1243 169 1243 241.5 1262.5 c 128,-1,22
 314 1282 314 1282 383 1282 c 0,23,24
 463 1282 463 1282 521 1256 c 128,-1,25
 579 1230 579 1230 616.5 1184.5 c 128,-1,26
 654 1139 654 1139 672 1077.5 c 128,-1,27
 690 1016 690 1016 690 944 c 2,28,-1
 690 723 l 1,0,1
289 160 m 1,29,30
 324 134 324 134 371 122.5 c 128,-1,31
 418 111 418 111 471 111 c 0,32,33
 529 111 529 111 573.5 130 c 128,-1,34
 618 149 618 149 647.5 184.5 c 128,-1,35
 677 220 677 220 692 270.5 c 128,-1,36
 707 321 707 321 707 383 c 0,37,38
 707 446 707 446 689.5 497.5 c 128,-1,39
 672 549 672 549 638 585.5 c 128,-1,40
 604 622 604 622 554 642 c 128,-1,41
 504 662 504 662 440 662 c 2,42,-1
 289 662 l 1,43,-1
 289 160 l 1,29,30
442 793 m 2,44,45
 467 793 467 793 494 790 c 128,-1,46
 521 787 521 787 547 782 c 1,47,-1
 547 942 l 2,48,49
 547 983 547 983 538.5 1020.5 c 128,-1,50
 530 1058 530 1058 511 1087 c 128,-1,51
 492 1116 492 1116 461 1133.5 c 128,-1,52
 430 1151 430 1151 385 1151 c 0,53,54
 327 1151 327 1151 289 1135 c 1,55,-1
 289 793 l 1,56,-1
 442 793 l 2,44,45
EndSplineSet
EndChar

StartChar: C
Encoding: 67 67 35
Width: 853
Flags: W
HStem: -20 131<313.512 721.561> 1151 131<378.537 713.296>
VStem: 137 143<240 1043.53>
LayerCount: 2
Fore
SplineSet
723 1102 m 1,0,1
 670 1128 670 1128 621.5 1139.5 c 128,-1,2
 573 1151 573 1151 532 1151 c 0,3,4
 451 1151 451 1151 401.5 1122.5 c 128,-1,5
 352 1094 352 1094 325 1045 c 128,-1,6
 298 996 298 996 289 931 c 128,-1,7
 280 866 280 866 280 793 c 2,8,-1
 280 174 l 1,9,10
 337 139 337 139 394.5 125 c 128,-1,11
 452 111 452 111 524 111 c 0,12,13
 558 111 558 111 587 114 c 128,-1,14
 616 117 616 117 642.5 124 c 128,-1,15
 669 131 669 131 695.5 142.5 c 128,-1,16
 722 154 722 154 752 172 c 1,17,-1
 811 43 l 1,18,19
 758 15 758 15 683.5 -2.5 c 128,-1,20
 609 -20 609 -20 516 -20 c 0,21,22
 479 -20 479 -20 426.5 -14.5 c 128,-1,23
 374 -9 374 -9 313.5 8 c 128,-1,24
 253 25 253 25 188.5 58 c 128,-1,25
 124 91 124 91 63 145 c 1,26,-1
 137 240 l 1,27,-1
 137 788 l 2,28,29
 137 890 137 890 154.5 979.5 c 128,-1,30
 172 1069 172 1069 216 1136.5 c 128,-1,31
 260 1204 260 1204 335.5 1243 c 128,-1,32
 411 1282 411 1282 528 1282 c 0,33,34
 602 1282 602 1282 659.5 1268 c 128,-1,35
 717 1254 717 1254 774 1223 c 1,36,-1
 723 1102 l 1,0,1
EndSplineSet
EndChar

StartChar: D
Encoding: 68 68 36
Width: 989
Flags: W
HStem: 0 131<288 534.486> 1151 131<288.497 551.132>
VStem: 145 143<131 1116> 741 143<359.867 919.902>
LayerCount: 2
Fore
SplineSet
145 1116 m 1,0,-1
 106 1229 l 1,1,2
 155 1252 155 1252 226 1267 c 128,-1,3
 297 1282 297 1282 382 1282 c 0,4,5
 512 1282 512 1282 607 1231 c 128,-1,6
 702 1180 702 1180 763.5 1092.5 c 128,-1,7
 825 1005 825 1005 854.5 888.5 c 128,-1,8
 884 772 884 772 884 641 c 0,9,10
 884 500 884 500 852.5 382 c 128,-1,11
 821 264 821 264 752 179 c 128,-1,12
 683 94 683 94 573.5 47 c 128,-1,13
 464 0 464 0 308 0 c 2,14,-1
 145 0 l 1,15,-1
 145 1116 l 1,0,-1
288 131 m 1,16,-1
 329 131 l 2,17,18
 444 131 444 131 523 169 c 128,-1,19
 602 207 602 207 650.5 275 c 128,-1,20
 699 343 699 343 720 436.5 c 128,-1,21
 741 530 741 530 741 641 c 0,22,23
 741 767 741 767 715 862.5 c 128,-1,24
 689 958 689 958 642 1022 c 128,-1,25
 595 1086 595 1086 529.5 1118.5 c 128,-1,26
 464 1151 464 1151 384 1151 c 0,27,28
 356 1151 356 1151 331.5 1148.5 c 128,-1,29
 307 1146 307 1146 288 1141 c 1,30,-1
 288 131 l 1,16,-1
EndSplineSet
EndChar

StartChar: E
Encoding: 69 69 37
Width: 767
Flags: W
HStem: -20 131<410 681> 662 131<294 560> 1130 132<294 691>
VStem: 151 143<295 662 793 1130>
LayerCount: 2
Fore
SplineSet
691 1130 m 1,0,-1
 294 1130 l 1,1,-1
 294 793 l 1,2,-1
 560 793 l 1,3,-1
 560 662 l 1,4,-1
 294 662 l 1,5,-1
 294 217 l 1,6,7
 340 186 340 186 386 165.5 c 128,-1,8
 432 145 432 145 480.5 133 c 128,-1,9
 529 121 529 121 581 116 c 128,-1,10
 633 111 633 111 691 111 c 1,11,-1
 681 -20 l 1,12,13
 582 -20 582 -20 494.5 -2.5 c 128,-1,14
 407 15 407 15 331.5 45 c 128,-1,15
 256 75 256 75 192 115.5 c 128,-1,16
 128 156 128 156 77 201 c 1,17,-1
 151 295 l 1,18,-1
 151 1130 l 1,19,-1
 110 1262 l 1,20,-1
 691 1262 l 1,21,-1
 691 1130 l 1,0,-1
EndSplineSet
EndChar

StartChar: F
Encoding: 70 70 38
Width: 759
Flags: W
HStem: 0 21G<147 291> 662 131<291 557> 1130 132<291 717>
VStem: 147 144<0 662 793 1130>
LayerCount: 2
Fore
SplineSet
717 1130 m 1,0,-1
 291 1130 l 1,1,-1
 291 793 l 1,2,-1
 557 793 l 1,3,-1
 557 662 l 1,4,-1
 291 662 l 1,5,-1
 291 0 l 1,6,-1
 147 0 l 1,7,-1
 147 1130 l 1,8,-1
 106 1262 l 1,9,-1
 717 1262 l 1,10,-1
 717 1130 l 1,0,-1
EndSplineSet
EndChar

StartChar: G
Encoding: 71 71 39
Width: 959
Flags: W
HStem: -20 131<311.46 710.662> 1151 131<378.537 713.296>
VStem: 137 143<240 1043.53> 715 143<137.206 582>
LayerCount: 2
Fore
SplineSet
508 -20 m 0,0,1
 472 -20 472 -20 420.5 -14.5 c 128,-1,2
 369 -9 369 -9 309.5 8 c 128,-1,3
 250 25 250 25 186.5 58 c 128,-1,4
 123 91 123 91 63 145 c 1,5,-1
 137 240 l 1,6,-1
 137 788 l 2,7,8
 137 890 137 890 154.5 979.5 c 128,-1,9
 172 1069 172 1069 216 1136.5 c 128,-1,10
 260 1204 260 1204 335.5 1243 c 128,-1,11
 411 1282 411 1282 528 1282 c 0,12,13
 602 1282 602 1282 659.5 1268 c 128,-1,14
 717 1254 717 1254 774 1223 c 1,15,-1
 723 1102 l 1,16,17
 670 1128 670 1128 621.5 1139.5 c 128,-1,18
 573 1151 573 1151 532 1151 c 0,19,20
 451 1151 451 1151 401.5 1122.5 c 128,-1,21
 352 1094 352 1094 325 1045 c 128,-1,22
 298 996 298 996 289 931 c 128,-1,23
 280 866 280 866 280 793 c 2,24,-1
 280 174 l 1,25,26
 336 139 336 139 391.5 125 c 128,-1,27
 447 111 447 111 516 111 c 0,28,29
 581 111 581 111 627.5 123 c 128,-1,30
 674 135 674 135 715 158 c 1,31,-1
 715 582 l 1,32,-1
 858 582 l 1,33,-1
 858 61 l 1,34,35
 816 41 816 41 776.5 26 c 128,-1,36
 737 11 737 11 695 0.5 c 128,-1,37
 653 -10 653 -10 607.5 -15 c 128,-1,38
 562 -20 562 -20 508 -20 c 0,0,1
EndSplineSet
EndChar

StartChar: H
Encoding: 72 72 40
Width: 1001
Flags: W
HStem: 0 21G<144 288 714 857> 662 131<288 714> 1242 20G<144 288 714 857>
VStem: 144 144<0 662 793 1262> 714 143<0 662 793 1262>
LayerCount: 2
Fore
SplineSet
288 1262 m 1,0,-1
 288 793 l 1,1,-1
 714 793 l 1,2,-1
 714 1262 l 1,3,-1
 857 1262 l 1,4,-1
 857 0 l 1,5,-1
 714 0 l 1,6,-1
 714 662 l 1,7,-1
 288 662 l 1,8,-1
 288 0 l 1,9,-1
 144 0 l 1,10,-1
 144 1262 l 1,11,-1
 288 1262 l 1,0,-1
EndSplineSet
EndChar

StartChar: I
Encoding: 73 73 41
Width: 432
Flags: W
HStem: 0 21G<144 288> 1242 20G<144 288>
VStem: 144 144<0 1262>
LayerCount: 2
Fore
SplineSet
144 1262 m 1,0,-1
 288 1262 l 1,1,-1
 288 0 l 1,2,-1
 144 0 l 1,3,-1
 144 1262 l 1,0,-1
EndSplineSet
EndChar

StartChar: J
Encoding: 74 74 42
Width: 549
Flags: W
HStem: 1130 132<106 276>
VStem: 276 144<296.798 1130>
LayerCount: 2
Fore
SplineSet
420 1262 m 1,0,-1
 420 555 l 2,1,2
 420 514 420 514 419 467.5 c 128,-1,3
 418 421 418 421 410 371.5 c 128,-1,4
 402 322 402 322 384 271 c 128,-1,5
 366 220 366 220 332 170 c 0,6,7
 315 144 315 144 291.5 118.5 c 128,-1,8
 268 93 268 93 240.5 68 c 128,-1,9
 213 43 213 43 182.5 20.5 c 128,-1,10
 152 -2 152 -2 121 -20 c 1,11,-1
 39 102 l 1,12,13
 66 117 66 117 93 136 c 128,-1,14
 120 155 120 155 144 178 c 128,-1,15
 168 201 168 201 188.5 226.5 c 128,-1,16
 209 252 209 252 223 279 c 0,17,18
 252 334 252 334 264 414 c 128,-1,19
 276 494 276 494 276 608 c 2,20,-1
 276 1130 l 1,21,-1
 106 1130 l 1,22,-1
 65 1262 l 1,23,-1
 420 1262 l 1,0,-1
EndSplineSet
EndChar

StartChar: K
Encoding: 75 75 43
Width: 891
Flags: W
HStem: 0 21G<144 288> 1242 20G<144 288 719 779.031>
VStem: 144 144<0 1262>
LayerCount: 2
Fore
SplineSet
288 0 m 1,0,-1
 144 0 l 1,1,-1
 144 1262 l 1,2,-1
 288 1262 l 1,3,-1
 288 0 l 1,0,-1
323 662 m 1,4,5
 325 764 325 764 356.5 863 c 128,-1,6
 388 962 388 962 445.5 1045.5 c 128,-1,7
 503 1129 503 1129 585 1191 c 128,-1,8
 667 1253 667 1253 771 1282 c 1,9,-1
 822 1155 l 1,10,11
 762 1142 762 1142 705.5 1107 c 128,-1,12
 649 1072 649 1072 603 1023 c 128,-1,13
 557 974 557 974 525 914.5 c 128,-1,14
 493 855 493 855 482 793 c 1,15,-1
 869 45 l 1,16,-1
 744 -20 l 1,17,-1
 392 662 l 1,18,-1
 323 662 l 1,4,5
EndSplineSet
EndChar

StartChar: L
Encoding: 76 76 44
Width: 768
Flags: W
HStem: 0 131<288 732> 1242 20G<144 288>
VStem: 144 144<131 1262>
LayerCount: 2
Fore
SplineSet
144 1262 m 1,0,-1
 288 1262 l 1,1,-1
 288 131 l 1,2,-1
 732 131 l 1,3,-1
 732 0 l 1,4,-1
 144 0 l 1,5,-1
 144 1262 l 1,0,-1
EndSplineSet
EndChar

StartChar: M
Encoding: 77 77 45
Width: 1225
Flags: W
HStem: 1262 20G<198.299 283.5 938 1026.7>
LayerCount: 2
Fore
SplineSet
613 774 m 1,0,1
 672 931 672 931 768 1056 c 128,-1,2
 864 1181 864 1181 1012 1282 c 1,3,-1
 1098 1165 l 1,4,-1
 1034 1120 l 1,5,-1
 1110 -12 l 1,6,-1
 969 -20 l 1,7,-1
 901 993 l 1,8,9
 859 940 859 940 826 888 c 128,-1,10
 793 836 793 836 766.5 781 c 128,-1,11
 740 726 740 726 718.5 667 c 128,-1,12
 697 608 697 608 678 541 c 1,13,-1
 545 541 l 1,14,15
 527 604 527 604 507 661 c 128,-1,16
 487 718 487 718 461.5 772.5 c 128,-1,17
 436 827 436 827 402.5 881.5 c 128,-1,18
 369 936 369 936 324 993 c 1,19,-1
 256 -20 l 1,20,-1
 115 -12 l 1,21,-1
 191 1118 l 1,22,-1
 127 1165 l 1,23,-1
 213 1282 l 1,24,25
 354 1191 354 1191 451 1066.5 c 128,-1,26
 548 942 548 942 613 774 c 1,0,1
EndSplineSet
EndChar

StartChar: N
Encoding: 78 78 46
Width: 1016
Flags: W
HStem: 0 21G<160 303 728.938 872> 1141 141<114.255 158.526> 1242 20G<729 872>
VStem: 160 143<0 1090> 729 143<0 718.969 918 1262>
LayerCount: 2
Fore
SplineSet
160 1124 m 1,0,1
 144 1129 144 1129 126 1133.5 c 128,-1,2
 108 1138 108 1138 90 1141 c 1,3,-1
 117 1282 l 1,4,5
 206 1270 206 1270 291.5 1241.5 c 128,-1,6
 377 1213 377 1213 455 1167.5 c 128,-1,7
 533 1122 533 1122 602.5 1059.5 c 128,-1,8
 672 997 672 997 729 918 c 1,9,-1
 729 1262 l 1,10,-1
 872 1262 l 1,11,-1
 872 0 l 1,12,-1
 729 0 l 1,13,-1
 727 645 l 1,14,15
 649 798 649 798 545.5 910.5 c 128,-1,16
 442 1023 442 1023 303 1090 c 1,17,-1
 303 0 l 1,18,-1
 160 0 l 1,19,-1
 160 1124 l 1,0,1
EndSplineSet
EndChar

StartChar: O
Encoding: 79 79 47
Width: 1023
Flags: W
HStem: -20 131<302.008 712.569> 1151 131<368.676 646.359>
VStem: 129 143<148.388 1044.01> 743 144<240 1044.01>
LayerCount: 2
Fore
SplineSet
508 111 m 0,0,1
 582 111 582 111 639.5 126.5 c 128,-1,2
 697 142 697 142 743 174 c 1,3,-1
 743 809 l 2,4,5
 743 871 743 871 734 932.5 c 128,-1,6
 725 994 725 994 699 1042.5 c 128,-1,7
 673 1091 673 1091 627 1121 c 128,-1,8
 581 1151 581 1151 508 1151 c 0,9,10
 434 1151 434 1151 388 1121 c 128,-1,11
 342 1091 342 1091 316 1042.5 c 128,-1,12
 290 994 290 994 281 932.5 c 128,-1,13
 272 871 272 871 272 809 c 2,14,-1
 272 174 l 1,15,16
 319 142 319 142 376 126.5 c 128,-1,17
 433 111 433 111 508 111 c 0,0,1
508 1282 m 0,18,19
 615 1282 615 1282 687.5 1244.5 c 128,-1,20
 760 1207 760 1207 804.5 1143 c 128,-1,21
 849 1079 849 1079 868 992.5 c 128,-1,22
 887 906 887 906 887 809 c 2,23,-1
 887 240 l 1,24,-1
 960 145 l 1,25,26
 926 116 926 116 882 86.5 c 128,-1,27
 838 57 838 57 782.5 33.5 c 128,-1,28
 727 10 727 10 658.5 -5 c 128,-1,29
 590 -20 590 -20 508 -20 c 0,30,31
 433 -20 433 -20 373 -8.5 c 128,-1,32
 313 3 313 3 266.5 20 c 128,-1,33
 220 37 220 37 186 57 c 128,-1,34
 152 77 152 77 129 94 c 1,35,-1
 129 809 l 2,36,37
 129 906 129 906 148 992.5 c 128,-1,38
 167 1079 167 1079 211 1143 c 128,-1,39
 255 1207 255 1207 327.5 1244.5 c 128,-1,40
 400 1282 400 1282 508 1282 c 0,18,19
EndSplineSet
EndChar

StartChar: P
Encoding: 80 80 48
Width: 894
Flags: W
HStem: 0 21G<151 294> 662 131<294 683> 1151 131<295.473 598.975>
VStem: 151 143<0 662 793 1094> 683 139<793 1065.03>
LayerCount: 2
Fore
SplineSet
95 1206 m 1,0,1
 133 1223 133 1223 179 1237 c 128,-1,2
 225 1251 225 1251 273 1261 c 128,-1,3
 321 1271 321 1271 368.5 1276.5 c 128,-1,4
 416 1282 416 1282 456 1282 c 0,5,6
 541 1282 541 1282 612.5 1256 c 128,-1,7
 684 1230 684 1230 730 1184 c 0,8,9
 765 1148 765 1148 784 1108.5 c 128,-1,10
 803 1069 803 1069 811.5 1029 c 128,-1,11
 820 989 820 989 821 949 c 128,-1,12
 822 909 822 909 822 870 c 2,13,-1
 822 662 l 1,14,-1
 294 662 l 1,15,-1
 294 0 l 1,16,-1
 151 0 l 1,17,-1
 151 1094 l 1,18,-1
 95 1206 l 1,0,1
294 793 m 1,19,-1
 683 793 l 1,20,-1
 683 868 l 2,21,22
 683 890 683 890 682 916.5 c 128,-1,23
 681 943 681 943 676 971 c 128,-1,24
 671 999 671 999 659 1027.5 c 128,-1,25
 647 1056 647 1056 626 1081 c 0,26,27
 604 1106 604 1106 580.5 1120 c 128,-1,28
 557 1134 557 1134 533.5 1141 c 128,-1,29
 510 1148 510 1148 488 1149.5 c 128,-1,30
 466 1151 466 1151 448 1151 c 0,31,32
 428 1151 428 1151 406 1149 c 128,-1,33
 384 1147 384 1147 363.5 1144 c 128,-1,34
 343 1141 343 1141 325 1136.5 c 128,-1,35
 307 1132 307 1132 294 1126 c 1,36,-1
 294 793 l 1,19,-1
EndSplineSet
EndChar

StartChar: Q
Encoding: 81 81 49
Width: 1017
Flags: W
HStem: 0 131<360.832 735> 1151 131<360.676 638.359>
VStem: 121 143<239.876 1044.01> 735 144<131 1044.01>
LayerCount: 2
Fore
SplineSet
879 131 m 1,0,-1
 983 0 l 1,1,-1
 500 0 l 2,2,3
 392 0 392 0 319.5 37.5 c 128,-1,4
 247 75 247 75 203 139 c 128,-1,5
 159 203 159 203 140 289 c 128,-1,6
 121 375 121 375 121 473 c 2,7,-1
 121 809 l 2,8,9
 121 906 121 906 140 992.5 c 128,-1,10
 159 1079 159 1079 203 1143 c 128,-1,11
 247 1207 247 1207 319.5 1244.5 c 128,-1,12
 392 1282 392 1282 500 1282 c 0,13,14
 607 1282 607 1282 679.5 1244.5 c 128,-1,15
 752 1207 752 1207 796.5 1143 c 128,-1,16
 841 1079 841 1079 860 992.5 c 128,-1,17
 879 906 879 906 879 809 c 2,18,-1
 879 131 l 1,0,-1
735 809 m 2,19,20
 735 871 735 871 726 932.5 c 128,-1,21
 717 994 717 994 691 1042.5 c 128,-1,22
 665 1091 665 1091 619 1121 c 128,-1,23
 573 1151 573 1151 500 1151 c 0,24,25
 426 1151 426 1151 380 1121 c 128,-1,26
 334 1091 334 1091 308 1042.5 c 128,-1,27
 282 994 282 994 273 932.5 c 128,-1,28
 264 871 264 871 264 809 c 2,29,-1
 264 473 l 2,30,31
 264 411 264 411 273 349.5 c 128,-1,32
 282 288 282 288 308 239.5 c 128,-1,33
 334 191 334 191 380 161 c 128,-1,34
 426 131 426 131 500 131 c 2,35,-1
 735 131 l 1,36,-1
 735 809 l 2,19,20
EndSplineSet
EndChar

StartChar: R
Encoding: 82 82 50
Width: 947
Flags: W
HStem: 0 21G<150 293> 662 131<293 463 623 682> 1151 131<294.736 579.796>
VStem: 150 143<0 662 793 1094> 682 139<793 1050.56>
LayerCount: 2
Fore
SplineSet
94 1206 m 1,0,1
 172 1240 172 1240 259.5 1261 c 128,-1,2
 347 1282 347 1282 428 1282 c 0,3,4
 515 1282 515 1282 589 1258.5 c 128,-1,5
 663 1235 663 1235 713 1190 c 0,6,7
 750 1157 750 1157 771.5 1121 c 128,-1,8
 793 1085 793 1085 804 1047 c 128,-1,9
 815 1009 815 1009 818 970 c 128,-1,10
 821 931 821 931 821 893 c 2,11,-1
 821 662 l 1,12,-1
 623 662 l 1,13,-1
 891 37 l 1,14,-1
 758 -20 l 1,15,-1
 463 662 l 1,16,-1
 293 662 l 1,17,-1
 293 0 l 1,18,-1
 150 0 l 1,19,-1
 150 1094 l 1,20,-1
 94 1206 l 1,0,1
293 793 m 1,21,-1
 682 793 l 1,22,-1
 682 862 l 2,23,24
 682 885 682 885 680 912.5 c 128,-1,25
 678 940 678 940 671.5 967.5 c 128,-1,26
 665 995 665 995 653.5 1021.5 c 128,-1,27
 642 1048 642 1048 623 1069 c 0,28,29
 576 1118 576 1118 526.5 1134.5 c 128,-1,30
 477 1151 477 1151 428 1151 c 0,31,32
 347 1151 347 1151 293 1126 c 1,33,-1
 293 793 l 1,21,-1
EndSplineSet
EndChar

StartChar: S
Encoding: 83 83 51
Width: 812
Flags: W
HStem: -20 131<183.642 558.828> 1151 131<303.519 632.397>
VStem: 95 144<832.931 1088.28> 577 143<236 419.215>
LayerCount: 2
Fore
SplineSet
444 1282 m 256,0,1
 522 1282 522 1282 583 1268 c 128,-1,2
 644 1254 644 1254 704 1223 c 1,3,-1
 642 1102 l 1,4,5
 586 1128 586 1128 537.5 1139.5 c 128,-1,6
 489 1151 489 1151 446 1151 c 0,7,8
 400 1151 400 1151 362 1138 c 128,-1,9
 324 1125 324 1125 296.5 1101 c 128,-1,10
 269 1077 269 1077 254 1043 c 128,-1,11
 239 1009 239 1009 239 967 c 0,12,13
 239 921 239 921 256 882.5 c 128,-1,14
 273 844 273 844 300 811 c 128,-1,15
 327 778 327 778 362 749.5 c 128,-1,16
 397 721 397 721 433 694 c 0,17,18
 505 640 505 640 558.5 595 c 128,-1,19
 612 550 612 550 648 507 c 128,-1,20
 684 464 684 464 702 419.5 c 128,-1,21
 720 375 720 375 720 324 c 2,22,-1
 720 236 l 1,23,-1
 779 123 l 1,24,25
 694 54 694 54 596 17 c 128,-1,26
 498 -20 498 -20 388 -20 c 0,27,28
 364 -20 364 -20 328.5 -18 c 128,-1,29
 293 -16 293 -16 251 -9 c 128,-1,30
 209 -2 209 -2 165 11.5 c 128,-1,31
 121 25 121 25 81 49 c 1,32,-1
 140 178 l 1,33,34
 200 143 200 143 264 127 c 128,-1,35
 328 111 328 111 384 111 c 0,36,37
 444 111 444 111 490 125.5 c 128,-1,38
 536 140 536 140 577 166 c 1,39,-1
 577 307 l 2,40,41
 577 351 577 351 553.5 389 c 128,-1,42
 530 427 530 427 495 461 c 128,-1,43
 460 495 460 495 419.5 524.5 c 128,-1,44
 379 554 379 554 345 580 c 0,45,46
 297 617 297 617 251.5 656.5 c 128,-1,47
 206 696 206 696 171.5 741.5 c 128,-1,48
 137 787 137 787 116 841 c 128,-1,49
 95 895 95 895 95 963 c 0,50,51
 95 1040 95 1040 120 1099.5 c 128,-1,52
 145 1159 145 1159 191 1199.5 c 128,-1,53
 237 1240 237 1240 301.5 1261 c 128,-1,54
 366 1282 366 1282 444 1282 c 256,0,1
EndSplineSet
EndChar

StartChar: T
Encoding: 84 84 52
Width: 803
Flags: W
HStem: 0 21G<331 474> 1130 132<64 331 474 761>
VStem: 331 143<0 1130>
LayerCount: 2
Fore
SplineSet
331 1130 m 1,0,-1
 64 1130 l 1,1,-1
 24 1262 l 1,2,-1
 761 1262 l 1,3,-1
 761 1130 l 1,4,-1
 474 1130 l 1,5,-1
 474 0 l 1,6,-1
 331 0 l 1,7,-1
 331 1130 l 1,0,-1
EndSplineSet
EndChar

StartChar: U
Encoding: 85 85 53
Width: 1043
Flags: W
HStem: -20 131<392.812 734.831> 1242 20G<134 278 747 890>
VStem: 134 144<235.719 1262> 747 143<236 1262>
LayerCount: 2
Fore
SplineSet
957 121 m 1,0,1
 893 73 893 73 834 45 c 128,-1,2
 775 17 775 17 723 2.5 c 128,-1,3
 671 -12 671 -12 627.5 -16 c 128,-1,4
 584 -20 584 -20 552 -20 c 0,5,6
 425 -20 425 -20 337.5 24.5 c 128,-1,7
 250 69 250 69 196 162 c 0,8,9
 170 206 170 206 157.5 251 c 128,-1,10
 145 296 145 296 139.5 341.5 c 128,-1,11
 134 387 134 387 134 432 c 128,-1,12
 134 477 134 477 134 522 c 2,13,-1
 134 1262 l 1,14,-1
 278 1262 l 1,15,-1
 278 518 l 2,16,17
 278 395 278 395 294 319 c 128,-1,18
 310 243 310 243 347 197 c 0,19,20
 359 183 359 183 376.5 168 c 128,-1,21
 394 153 394 153 419.5 140 c 128,-1,22
 445 127 445 127 477.5 119 c 128,-1,23
 510 111 510 111 552 111 c 0,24,25
 600 111 600 111 650 124 c 128,-1,26
 700 137 700 137 747 162 c 1,27,-1
 747 1262 l 1,28,-1
 890 1262 l 1,29,-1
 890 236 l 1,30,-1
 957 121 l 1,0,1
EndSplineSet
EndChar

StartChar: V
Encoding: 86 86 54
Width: 965
Flags: W
HStem: 6 131<395.656 572.383> 1262 20G<63 207.319 757.699 903>
LayerCount: 2
Fore
SplineSet
204 1282 m 1,0,-1
 395 131 l 1,1,2
 416 134 416 134 437 135.5 c 128,-1,3
 458 137 458 137 483 137 c 0,4,5
 530 137 530 137 571 131 c 1,6,-1
 761 1282 l 1,7,-1
 903 1262 l 1,8,-1
 690 -20 l 1,9,10
 630 -5 630 -5 579 0.5 c 128,-1,11
 528 6 528 6 483 6 c 256,12,13
 438 6 438 6 387 0.5 c 128,-1,14
 336 -5 336 -5 276 -20 c 1,15,-1
 63 1262 l 1,16,-1
 204 1282 l 1,0,-1
EndSplineSet
EndChar

StartChar: W
Encoding: 87 87 55
Width: 1278
Flags: W
HStem: 902 20G<565 712> 1262 20G<91.5556 199.817 1077.18 1185.44>
VStem: 565 147<158.97 922>
LayerCount: 2
Fore
SplineSet
196 1282 m 1,0,-1
 413 145 l 1,1,2
 429 148 429 148 449 151 c 128,-1,3
 469 154 469 154 489 156 c 128,-1,4
 509 158 509 158 529 159.5 c 128,-1,5
 549 161 549 161 565 162 c 1,6,-1
 565 922 l 1,7,-1
 712 922 l 1,8,-1
 712 162 l 1,9,10
 729 161 729 161 749.5 159.5 c 128,-1,11
 770 158 770 158 790.5 156 c 128,-1,12
 811 154 811 154 830 151 c 128,-1,13
 849 148 849 148 864 145 c 1,14,-1
 1081 1282 l 1,15,-1
 1222 1255 l 1,16,-1
 979 -20 l 1,17,18
 944 -10 944 -10 900 -1 c 128,-1,19
 856 8 856 8 809.5 15 c 128,-1,20
 763 22 763 22 718.5 26.5 c 128,-1,21
 674 31 674 31 639 31 c 0,22,23
 603 31 603 31 558.5 26.5 c 128,-1,24
 514 22 514 22 468 15 c 128,-1,25
 422 8 422 8 377.5 -1 c 128,-1,26
 333 -10 333 -10 299 -20 c 1,27,-1
 55 1255 l 1,28,-1
 196 1282 l 1,0,-1
EndSplineSet
EndChar

StartChar: X
Encoding: 88 88 56
Width: 917
Flags: W
HStem: 662 131<385 532> 1262 20G<158.953 231.544 685.456 757.581>
LayerCount: 2
Fore
SplineSet
225 1282 m 1,0,-1
 385 793 l 1,1,-1
 532 793 l 1,2,-1
 692 1282 l 1,3,-1
 833 1239 l 1,4,-1
 667 727 l 1,5,-1
 833 12 l 1,6,-1
 692 -20 l 1,7,-1
 534 662 l 1,8,-1
 382 662 l 1,9,-1
 225 -20 l 1,10,-1
 83 12 l 1,11,-1
 249 727 l 1,12,-1
 83 1239 l 1,13,-1
 225 1282 l 1,0,-1
EndSplineSet
EndChar

StartChar: Y
Encoding: 89 89 57
Width: 831
Flags: W
HStem: 0 21G<344 487> 1262 20G<60 193.063 637.937 771>
VStem: 344 143<0 671.691>
LayerCount: 2
Fore
SplineSet
190 1282 m 1,0,-1
 207 1171 l 2,1,2
 219 1089 219 1089 230 1033 c 128,-1,3
 241 977 241 977 251.5 940 c 128,-1,4
 262 903 262 903 273.5 881 c 128,-1,5
 285 859 285 859 297 844 c 0,6,7
 325 812 325 812 357.5 802.5 c 128,-1,8
 390 793 390 793 416 793 c 256,9,10
 442 793 442 793 474 802.5 c 128,-1,11
 506 812 506 812 534 844 c 0,12,13
 546 859 546 859 557.5 881 c 128,-1,14
 569 903 569 903 579.5 940 c 128,-1,15
 590 977 590 977 601 1033 c 128,-1,16
 612 1089 612 1089 624 1171 c 2,17,-1
 641 1282 l 1,18,-1
 784 1260 l 1,19,20
 767 1148 767 1148 752.5 1065 c 128,-1,21
 738 982 738 982 722 921.5 c 128,-1,22
 706 861 706 861 687 820 c 128,-1,23
 668 779 668 779 643 750 c 0,24,25
 623 726 623 726 602 710 c 128,-1,26
 581 694 581 694 560.5 684 c 128,-1,27
 540 674 540 674 521 668 c 128,-1,28
 502 662 502 662 487 659 c 1,29,-1
 487 0 l 1,30,-1
 344 0 l 1,31,-1
 344 659 l 1,32,33
 329 662 329 662 310 668 c 128,-1,34
 291 674 291 674 270.5 684 c 128,-1,35
 250 694 250 694 229 710 c 128,-1,36
 208 726 208 726 188 750 c 0,37,38
 163 779 163 779 144 820 c 128,-1,39
 125 861 125 861 109 921.5 c 128,-1,40
 93 982 93 982 78.5 1065 c 128,-1,41
 64 1148 64 1148 47 1260 c 1,42,-1
 190 1282 l 1,0,-1
EndSplineSet
EndChar

StartChar: Z
Encoding: 90 90 58
Width: 869
Flags: W
HStem: 0 131<264 798> 1130 132<91 583>
LayerCount: 2
Fore
SplineSet
264 131 m 1,0,-1
 798 131 l 1,1,-1
 798 0 l 1,2,-1
 51 0 l 1,3,-1
 583 1130 l 1,4,-1
 91 1130 l 1,5,-1
 91 1262 l 1,6,-1
 798 1262 l 1,7,-1
 264 131 l 1,0,-1
EndSplineSet
EndChar

StartChar: bracketleft
Encoding: 91 91 59
Width: 686
Flags: W
HStem: -301 127<263 638> 1214 127<263 638>
VStem: 132 131<-174 1214>
LayerCount: 2
Fore
SplineSet
132 1341 m 1,0,-1
 638 1341 l 1,1,-1
 638 1214 l 1,2,-1
 263 1214 l 1,3,-1
 263 -174 l 1,4,-1
 638 -174 l 1,5,-1
 638 -301 l 1,6,-1
 132 -301 l 1,7,-1
 132 1341 l 1,0,-1
EndSplineSet
EndChar

StartChar: backslash
Encoding: 92 92 60
Width: 813
Flags: W
HStem: -432 21G<638.819 703.209> 1262 20G<111.791 176.181>
LayerCount: 2
Fore
SplineSet
769 -389 m 1,0,-1
 646 -432 l 1,1,-1
 46 1239 l 1,2,-1
 169 1282 l 1,3,-1
 769 -389 l 1,0,-1
EndSplineSet
EndChar

StartChar: bracketright
Encoding: 93 93 61
Width: 687
Flags: W
HStem: -301 127<49 423> 1214 127<49 423>
VStem: 423 132<-174 1214>
LayerCount: 2
Fore
SplineSet
555 -301 m 1,0,-1
 49 -301 l 1,1,-1
 49 -174 l 1,2,-1
 423 -174 l 1,3,-1
 423 1214 l 1,4,-1
 49 1214 l 1,5,-1
 49 1341 l 1,6,-1
 555 1341 l 1,7,-1
 555 -301 l 1,0,-1
EndSplineSet
EndChar

StartChar: asciicircum
Encoding: 94 94 62
Width: 932
Flags: W
HStem: 788 553
LayerCount: 2
Fore
SplineSet
526 1341 m 1,0,-1
 981 883 l 1,1,-1
 887 788 l 1,2,-1
 461 1219 l 1,3,-1
 33 788 l 1,4,-1
 -61 883 l 1,5,-1
 395 1341 l 1,6,-1
 526 1341 l 1,0,-1
EndSplineSet
EndChar

StartChar: underscore
Encoding: 95 95 63
Width: 970
Flags: W
HStem: -301 133<155 815>
VStem: 155 660<-301 -168>
LayerCount: 2
Fore
SplineSet
155 -168 m 1,0,-1
 815 -168 l 1,1,-1
 815 -301 l 1,2,-1
 155 -301 l 1,3,-1
 155 -168 l 1,0,-1
EndSplineSet
EndChar

StartChar: grave
Encoding: 96 96 64
Width: 475
Flags: W
HStem: 1032 309
VStem: 82 311
LayerCount: 2
Fore
SplineSet
176 1341 m 1,0,-1
 393 1126 l 1,1,-1
 299 1032 l 1,2,-1
 82 1247 l 1,3,-1
 176 1341 l 1,0,-1
EndSplineSet
EndChar

StartChar: a
Encoding: 97 97 65
Width: 827
Flags: W
HStem: -20 122<259.244 573.843> 483 125<303.346 575> 813 129<219 462.059>
VStem: 63 139<158.195 397.588> 575 131<174 485>
LayerCount: 2
Fore
SplineSet
219 942 m 1,0,1
 276 942 276 942 334.5 936 c 128,-1,2
 393 930 393 930 447 915 c 128,-1,3
 501 900 501 900 548.5 874 c 128,-1,4
 596 848 596 848 631 808 c 128,-1,5
 666 768 666 768 686 713 c 128,-1,6
 706 658 706 658 706 584 c 2,7,-1
 706 174 l 1,8,-1
 761 80 l 1,9,10
 666 26 666 26 574 3 c 128,-1,11
 482 -20 482 -20 403 -20 c 0,12,13
 353 -20 353 -20 313 -13.5 c 128,-1,14
 273 -7 273 -7 241.5 4.5 c 128,-1,15
 210 16 210 16 186.5 31 c 128,-1,16
 163 46 163 46 145 63 c 1,17,18
 111 98 111 98 87 150 c 128,-1,19
 63 202 63 202 63 268 c 0,20,21
 63 371 63 371 106.5 437 c 128,-1,22
 150 503 150 503 221.5 540.5 c 128,-1,23
 293 578 293 578 385 592.5 c 128,-1,24
 477 607 477 607 575 608 c 1,25,26
 570 675 570 675 534.5 714.5 c 128,-1,27
 499 754 499 754 446 775.5 c 128,-1,28
 393 797 393 797 330 804 c 128,-1,29
 267 811 267 811 209 813 c 1,30,-1
 219 942 l 1,0,1
575 485 m 1,31,32
 542 485 542 485 502 483 c 128,-1,33
 462 481 462 481 420.5 474 c 128,-1,34
 379 467 379 467 339.5 453.5 c 128,-1,35
 300 440 300 440 269.5 418 c 128,-1,36
 239 396 239 396 220.5 362.5 c 128,-1,37
 202 329 202 329 202 283 c 0,38,39
 202 235 202 235 216.5 204 c 128,-1,40
 231 173 231 173 249 156 c 0,41,42
 281 124 281 124 323 113 c 128,-1,43
 365 102 365 102 407 102 c 0,44,45
 457 102 457 102 497.5 112 c 128,-1,46
 538 122 538 122 575 137 c 1,47,-1
 575 485 l 1,31,32
EndSplineSet
EndChar

StartChar: b
Encoding: 98 98 66
Width: 899
Flags: W
HStem: -20 122<265.015 556.844> 819 123<265.343 553.164> 1321 20G<92 264>
VStem: 133 131<178 803.24 918 1257.11> 673 135<232.643 681.999>
LayerCount: 2
Fore
SplineSet
133 178 m 1,0,-1
 133 1212 l 1,1,-1
 92 1341 l 1,2,-1
 264 1341 l 1,3,-1
 264 918 l 1,4,5
 307 930 307 930 345 936 c 128,-1,6
 383 942 383 942 429 942 c 0,7,8
 524 942 524 942 595 901.5 c 128,-1,9
 666 861 666 861 713.5 794 c 128,-1,10
 761 727 761 727 784.5 640 c 128,-1,11
 808 553 808 553 808 461 c 256,12,13
 808 369 808 369 787.5 282 c 128,-1,14
 767 195 767 195 721 128 c 128,-1,15
 675 61 675 61 601 20.5 c 128,-1,16
 527 -20 527 -20 421 -20 c 0,17,18
 369 -20 369 -20 320 -12 c 128,-1,19
 271 -4 271 -4 227 9 c 128,-1,20
 183 22 183 22 144.5 39 c 128,-1,21
 106 56 106 56 75 74 c 1,22,-1
 133 178 l 1,0,-1
264 135 m 1,23,24
 295 120 295 120 335 111 c 128,-1,25
 375 102 375 102 413 102 c 0,26,27
 491 102 491 102 541.5 135 c 128,-1,28
 592 168 592 168 621.5 220 c 128,-1,29
 651 272 651 272 662 335.5 c 128,-1,30
 673 399 673 399 673 461 c 0,31,32
 673 522 673 522 660.5 586 c 128,-1,33
 648 650 648 650 617.5 701.5 c 128,-1,34
 587 753 587 753 536.5 786 c 128,-1,35
 486 819 486 819 411 819 c 0,36,37
 360 819 360 819 322.5 807.5 c 128,-1,38
 285 796 285 796 264 786 c 1,39,-1
 264 135 l 1,23,24
EndSplineSet
EndChar

StartChar: c
Encoding: 99 99 67
Width: 734
Flags: W
HStem: -20 122<262.531 665.406> 819 123<313.093 620.78>
VStem: 114 131<209 749.375>
LayerCount: 2
Fore
SplineSet
622 795 m 1,0,1
 583 806 583 806 539 812.5 c 128,-1,2
 495 819 495 819 458 819 c 256,3,4
 421 819 421 819 393 812 c 128,-1,5
 365 805 365 805 344.5 794.5 c 128,-1,6
 324 784 324 784 310.5 772 c 128,-1,7
 297 760 297 760 290 750 c 0,8,9
 273 728 273 728 264 701.5 c 128,-1,10
 255 675 255 675 250.5 647 c 128,-1,11
 246 619 246 619 245.5 592 c 128,-1,12
 245 565 245 565 245 543 c 2,13,-1
 245 156 l 1,14,15
 296 128 296 128 347 115 c 128,-1,16
 398 102 398 102 458 102 c 0,17,18
 515 102 515 102 565.5 112.5 c 128,-1,19
 616 123 616 123 667 147 c 1,20,-1
 667 18 l 1,21,22
 617 -2 617 -2 566 -11 c 128,-1,23
 515 -20 515 -20 456 -20 c 0,24,25
 377 -20 377 -20 312.5 -5.5 c 128,-1,26
 248 9 248 9 197 30.5 c 128,-1,27
 146 52 146 52 108 77.5 c 128,-1,28
 70 103 70 103 44 125 c 1,29,-1
 114 209 l 1,30,-1
 114 543 l 2,31,32
 114 571 114 571 114.5 609 c 128,-1,33
 115 647 115 647 122.5 689 c 128,-1,34
 130 731 130 731 148.5 773 c 128,-1,35
 167 815 167 815 202 852 c 0,36,37
 232 883 232 883 266 901 c 128,-1,38
 300 919 300 919 334.5 928 c 128,-1,39
 369 937 369 937 401.5 939.5 c 128,-1,40
 434 942 434 942 462 942 c 0,41,42
 516 942 516 942 563.5 934 c 128,-1,43
 611 926 611 926 656 913 c 1,44,-1
 622 795 l 1,0,1
EndSplineSet
EndChar

StartChar: d
Encoding: 100 100 68
Width: 900
Flags: W
HStem: -20 122<341.595 635.427> 819 123<348.024 634.657> 1321 20G<595 767>
VStem: 91 135<233.912 679.872> 636 131<178 802.89 918 1257.11>
LayerCount: 2
Fore
SplineSet
824 74 m 1,0,1
 761 37 761 37 672.5 8.5 c 128,-1,2
 584 -20 584 -20 478 -20 c 256,3,4
 372 -20 372 -20 298.5 20.5 c 128,-1,5
 225 61 225 61 179 128 c 128,-1,6
 133 195 133 195 112 282 c 128,-1,7
 91 369 91 369 91 461 c 256,8,9
 91 553 91 553 114.5 640 c 128,-1,10
 138 727 138 727 185 794 c 128,-1,11
 232 861 232 861 303.5 901.5 c 128,-1,12
 375 942 375 942 470 942 c 0,13,14
 517 942 517 942 555 936 c 128,-1,15
 593 930 593 930 636 918 c 1,16,-1
 636 1212 l 1,17,-1
 595 1341 l 1,18,-1
 767 1341 l 1,19,-1
 767 178 l 1,20,-1
 824 74 l 1,0,1
636 786 m 1,21,22
 614 796 614 796 577 807.5 c 128,-1,23
 540 819 540 819 489 819 c 0,24,25
 414 819 414 819 363.5 786 c 128,-1,26
 313 753 313 753 282.5 701.5 c 128,-1,27
 252 650 252 650 239 586 c 128,-1,28
 226 522 226 522 226 461 c 0,29,30
 226 399 226 399 237.5 335.5 c 128,-1,31
 249 272 249 272 278 220 c 128,-1,32
 307 168 307 168 357.5 135 c 128,-1,33
 408 102 408 102 486 102 c 0,34,35
 525 102 525 102 565 111 c 128,-1,36
 605 120 605 120 636 135 c 1,37,-1
 636 786 l 1,21,22
EndSplineSet
EndChar

StartChar: e
Encoding: 101 101 69
Width: 847
Flags: W
HStem: -20 122<261.21 676.951> 424 123<245 603> 819 123<302.359 545.295>
VStem: 114 131<209 424 547 761.188> 603 143<547 759.875>
LayerCount: 2
Fore
SplineSet
603 547 m 1,0,1
 603 569 603 569 602.5 595.5 c 128,-1,2
 602 622 602 622 598.5 649 c 128,-1,3
 595 676 595 676 587.5 702 c 128,-1,4
 580 728 580 728 566 750 c 0,5,6
 559 760 559 760 547.5 772 c 128,-1,7
 536 784 536 784 519 794.5 c 128,-1,8
 502 805 502 805 478 812 c 128,-1,9
 454 819 454 819 423 819 c 256,10,11
 392 819 392 819 369 812 c 128,-1,12
 346 805 346 805 328.5 794.5 c 128,-1,13
 311 784 311 784 299.5 772 c 128,-1,14
 288 760 288 760 281 750 c 0,15,16
 267 728 267 728 260 702 c 128,-1,17
 253 676 253 676 249.5 649 c 128,-1,18
 246 622 246 622 245.5 595.5 c 128,-1,19
 245 569 245 569 245 547 c 1,20,-1
 603 547 l 1,0,1
245 424 m 1,21,-1
 245 156 l 1,22,23
 293 124 293 124 348 113 c 128,-1,24
 403 102 403 102 451 102 c 0,25,26
 539 102 539 102 609.5 121.5 c 128,-1,27
 680 141 680 141 746 186 c 1,28,-1
 746 49 l 1,29,30
 684 12 684 12 611.5 -4 c 128,-1,31
 539 -20 539 -20 454 -20 c 0,32,33
 323 -20 323 -20 224 16.5 c 128,-1,34
 125 53 125 53 44 125 c 1,35,-1
 114 209 l 1,36,-1
 114 543 l 2,37,38
 114 571 114 571 114 609 c 128,-1,39
 114 647 114 647 121 689 c 128,-1,40
 128 731 128 731 144.5 773 c 128,-1,41
 161 815 161 815 193 852 c 0,42,43
 221 883 221 883 251.5 901 c 128,-1,44
 282 919 282 919 313 928 c 128,-1,45
 344 937 344 937 373.5 939.5 c 128,-1,46
 403 942 403 942 429 942 c 0,47,48
 454 942 454 942 484 939.5 c 128,-1,49
 514 937 514 937 544.5 928 c 128,-1,50
 575 919 575 919 606 901 c 128,-1,51
 637 883 637 883 664 852 c 0,52,53
 696 815 696 815 713 773 c 128,-1,54
 730 731 730 731 737.5 689 c 128,-1,55
 745 647 745 647 745.5 609 c 128,-1,56
 746 571 746 571 746 543 c 2,57,-1
 746 424 l 1,58,-1
 245 424 l 1,21,-1
EndSplineSet
EndChar

StartChar: f
Encoding: 102 102 70
Width: 485
Flags: W
HStem: 0 21G<123 254> 799 123<254 442> 1219 122<340.945 568.293>
VStem: 123 131<0 799 922 1073>
LayerCount: 2
Fore
SplineSet
123 1073 m 1,0,-1
 64 1165 l 1,1,2
 112 1207 112 1207 171 1238 c 128,-1,3
 230 1269 230 1269 295.5 1290.5 c 128,-1,4
 361 1312 361 1312 430 1324 c 128,-1,5
 499 1336 499 1336 567 1341 c 1,6,-1
 578 1219 l 1,7,8
 536 1216 536 1216 491.5 1209 c 128,-1,9
 447 1202 447 1202 404.5 1192 c 128,-1,10
 362 1182 362 1182 323.5 1168.5 c 128,-1,11
 285 1155 285 1155 254 1137 c 1,12,-1
 254 922 l 1,13,-1
 442 922 l 1,14,-1
 442 799 l 1,15,-1
 254 799 l 1,16,-1
 254 0 l 1,17,-1
 123 0 l 1,18,-1
 123 1073 l 1,0,-1
EndSplineSet
EndChar

StartChar: g
Encoding: 103 103 71
Width: 867
Flags: W
HStem: -432 123<227.485 651.483> 0 123<360 629.545> 246 123<360.515 549.586> 819 123<275.432 617.189>
VStem: 75 131<429.002 750.922> 228 132<123 250> 618 131<439.012 745> 679 131<-190 -50.2529>
LayerCount: 2
Fore
SplineSet
618 780 m 1,0,1
 583 796 583 796 536 807.5 c 128,-1,2
 489 819 489 819 429 819 c 0,3,4
 381 819 381 819 340 806.5 c 128,-1,5
 299 794 299 794 269 769.5 c 128,-1,6
 239 745 239 745 222.5 709 c 128,-1,7
 206 673 206 673 206 627 c 2,8,-1
 206 555 l 2,9,10
 206 511 206 511 220.5 476.5 c 128,-1,11
 235 442 235 442 262 418 c 128,-1,12
 289 394 289 394 326.5 381.5 c 128,-1,13
 364 369 364 369 409 369 c 0,14,15
 503 369 503 369 558.5 421.5 c 128,-1,16
 614 474 614 474 618 578 c 1,17,-1
 618 780 l 1,0,1
749 745 m 1,18,-1
 749 575 l 2,19,20
 749 500 749 500 726 439 c 128,-1,21
 703 378 703 378 659.5 335.5 c 128,-1,22
 616 293 616 293 553.5 269.5 c 128,-1,23
 491 246 491 246 413 246 c 0,24,25
 399 246 399 246 384 247 c 128,-1,26
 369 248 369 248 360 250 c 1,27,-1
 360 123 l 1,28,-1
 468 123 l 2,29,30
 531 123 531 123 592.5 111 c 128,-1,31
 654 99 654 99 702 69 c 128,-1,32
 750 39 750 39 780 -12 c 128,-1,33
 810 -63 810 -63 810 -141 c 2,34,-1
 810 -190 l 1,35,-1
 880 -274 l 1,36,37
 793 -353 793 -353 683 -392.5 c 128,-1,38
 573 -432 573 -432 448 -432 c 0,39,40
 211 -432 211 -432 42 -297 c 1,41,-1
 112 -193 l 1,42,43
 160 -228 160 -228 200.5 -250.5 c 128,-1,44
 241 -273 241 -273 280.5 -286 c 128,-1,45
 320 -299 320 -299 360.5 -304 c 128,-1,46
 401 -309 401 -309 448 -309 c 0,47,48
 528 -309 528 -309 585 -291 c 128,-1,49
 642 -273 642 -273 679 -248 c 1,50,-1
 679 -205 l 2,51,52
 679 -154 679 -154 669.5 -116 c 128,-1,53
 660 -78 660 -78 636.5 -52 c 128,-1,54
 613 -26 613 -26 572 -13 c 128,-1,55
 531 0 531 0 468 0 c 2,56,-1
 228 0 l 1,57,-1
 228 281 l 1,58,59
 153 316 153 316 114 387 c 128,-1,60
 75 458 75 458 75 555 c 2,61,-1
 75 627 l 2,62,63
 75 707 75 707 104 766 c 128,-1,64
 133 825 133 825 182.5 864 c 128,-1,65
 232 903 232 903 298.5 922.5 c 128,-1,66
 365 942 365 942 441 942 c 0,67,68
 507 942 507 942 562 933 c 128,-1,69
 617 924 617 924 661.5 910.5 c 128,-1,70
 706 897 706 897 739.5 881.5 c 128,-1,71
 773 866 773 866 796 854 c 1,72,-1
 749 745 l 1,18,-1
EndSplineSet
EndChar

StartChar: h
Encoding: 104 104 72
Width: 898
Flags: W
HStem: 0 21G<124 255 652 783> 819 123<256.189 577.285> 1321 20G<83 255>
VStem: 124 131<0 803.352 915 1257.11> 652 131<0 742.983>
LayerCount: 2
Fore
SplineSet
255 915 m 1,0,1
 293 928 293 928 336.5 935 c 128,-1,2
 380 942 380 942 429 942 c 0,3,4
 467 942 467 942 512 936.5 c 128,-1,5
 557 931 557 931 600.5 914 c 128,-1,6
 644 897 644 897 682.5 865 c 128,-1,7
 721 833 721 833 746 780 c 0,8,9
 757 757 757 757 764 728 c 128,-1,10
 771 699 771 699 775.5 657 c 128,-1,11
 780 615 780 615 781.5 556.5 c 128,-1,12
 783 498 783 498 783 416 c 2,13,-1
 783 0 l 1,14,-1
 652 0 l 1,15,-1
 652 420 l 2,16,17
 652 487 652 487 651 537.5 c 128,-1,18
 650 588 650 588 646 625.5 c 128,-1,19
 642 663 642 663 634 689.5 c 128,-1,20
 626 716 626 716 613 735 c 0,21,22
 604 749 604 749 589 764 c 128,-1,23
 574 779 574 779 551 791 c 128,-1,24
 528 803 528 803 495.5 811 c 128,-1,25
 463 819 463 819 419 819 c 0,26,27
 369 819 369 819 329 810.5 c 128,-1,28
 289 802 289 802 255 788 c 1,29,-1
 255 0 l 1,30,-1
 124 0 l 1,31,-1
 124 1212 l 1,32,-1
 83 1341 l 1,33,-1
 255 1341 l 1,34,-1
 255 915 l 1,0,1
EndSplineSet
EndChar

StartChar: i
Encoding: 105 105 73
Width: 382
Flags: W
HStem: 0 21G<128 259> 902 20G<87 259> 1108 154<120 267>
VStem: 128 131<0 838.106 1108 1262>
LayerCount: 2
Fore
SplineSet
267 1262 m 1,0,-1
 267 1108 l 1,1,-1
 120 1108 l 1,2,-1
 120 1262 l 1,3,-1
 267 1262 l 1,0,-1
259 922 m 1,4,-1
 259 0 l 1,5,-1
 128 0 l 1,6,-1
 128 793 l 1,7,-1
 87 922 l 1,8,-1
 259 922 l 1,4,-1
EndSplineSet
EndChar

StartChar: j
Encoding: 106 106 74
Width: 383
Flags: W
HStem: -432 21G<-50.3462 10> 902 20G<88 260> 1108 154<121 268>
VStem: 129 131<-167.852 838.106 1108 1262>
LayerCount: 2
Fore
SplineSet
-98 -328 m 1,0,1
 -22 -288 -22 -288 23 -247 c 128,-1,2
 68 -206 68 -206 91.5 -153.5 c 128,-1,3
 115 -101 115 -101 122 -32.5 c 128,-1,4
 129 36 129 36 129 131 c 2,5,-1
 129 793 l 1,6,-1
 88 922 l 1,7,-1
 260 922 l 1,8,-1
 260 131 l 2,9,10
 260 28 260 28 250 -54.5 c 128,-1,11
 240 -137 240 -137 208.5 -205 c 128,-1,12
 177 -273 177 -273 118 -328.5 c 128,-1,13
 59 -384 59 -384 -39 -432 c 1,14,-1
 -98 -328 l 1,0,1
268 1262 m 1,15,-1
 268 1108 l 1,16,-1
 121 1108 l 1,17,-1
 121 1262 l 1,18,-1
 268 1262 l 1,15,-1
EndSplineSet
EndChar

StartChar: k
Encoding: 107 107 75
Width: 783
Flags: W
HStem: 0 21G<124 255> 922 20G<651.5 702.317> 1321 20G<83 255>
VStem: 124 131<0 1257.11>
LayerCount: 2
Fore
SplineSet
255 1341 m 1,0,-1
 255 0 l 1,1,-1
 124 0 l 1,2,-1
 124 1212 l 1,3,-1
 83 1341 l 1,4,-1
 255 1341 l 1,0,-1
284 444 m 1,5,6
 294 529 294 529 327 608 c 128,-1,7
 360 687 360 687 412.5 753 c 128,-1,8
 465 819 465 819 536.5 868.5 c 128,-1,9
 608 918 608 918 695 942 c 1,10,-1
 740 819 l 1,11,12
 634 788 634 788 554 717.5 c 128,-1,13
 474 647 474 647 437 535 c 1,14,-1
 761 53 l 1,15,-1
 652 -20 l 1,16,-1
 339 444 l 1,17,-1
 284 444 l 1,5,6
EndSplineSet
EndChar

StartChar: l
Encoding: 108 108 76
Width: 457
Flags: W
HStem: 1321 20G<75 247>
VStem: 116 131<239.945 1225.64>
LayerCount: 2
Fore
SplineSet
247 1341 m 1,0,-1
 247 530 l 2,1,2
 247 446 247 446 252.5 382.5 c 128,-1,3
 258 319 258 319 278.5 268 c 128,-1,4
 299 217 299 217 339.5 174 c 128,-1,5
 380 131 380 131 450 88 c 1,6,-1
 382 -20 l 1,7,8
 298 25 298 25 245.5 77 c 128,-1,9
 193 129 193 129 164.5 194.5 c 128,-1,10
 136 260 136 260 126 342 c 128,-1,11
 116 424 116 424 116 530 c 2,12,-1
 116 1212 l 1,13,-1
 75 1341 l 1,14,-1
 247 1341 l 1,0,-1
EndSplineSet
EndChar

StartChar: m
Encoding: 109 109 77
Width: 1208
Flags: W
HStem: 0 21G<133 264 550 682 968 1097> 819 123<291.125 550 682 849.01>
VStem: 133 131<0 707> 550 132<0 819> 968 129<0 704.141>
LayerCount: 2
Fore
SplineSet
75 807 m 1,0,1
 188 875 188 875 325 908.5 c 128,-1,2
 462 942 462 942 612 942 c 0,3,4
 639 942 639 942 685.5 939.5 c 128,-1,5
 732 937 732 937 785.5 926 c 128,-1,6
 839 915 839 915 893 892.5 c 128,-1,7
 947 870 947 870 989 831 c 1,8,9
 1027 794 1027 794 1049 751.5 c 128,-1,10
 1071 709 1071 709 1081.5 664.5 c 128,-1,11
 1092 620 1092 620 1094.5 574.5 c 128,-1,12
 1097 529 1097 529 1097 487 c 2,13,-1
 1097 0 l 1,14,-1
 968 0 l 1,15,-1
 968 416 l 2,16,17
 968 454 968 454 967.5 498.5 c 128,-1,18
 967 543 967 543 960.5 587 c 128,-1,19
 954 631 954 631 939.5 670.5 c 128,-1,20
 925 710 925 710 897 739 c 0,21,22
 878 758 878 758 851.5 773 c 128,-1,23
 825 788 825 788 796 798.5 c 128,-1,24
 767 809 767 809 737 814 c 128,-1,25
 707 819 707 819 682 819 c 1,26,-1
 682 0 l 1,27,-1
 550 0 l 1,28,-1
 550 819 l 1,29,30
 478 819 478 819 403.5 805.5 c 128,-1,31
 329 792 329 792 264 764 c 1,32,-1
 264 0 l 1,33,-1
 133 0 l 1,34,-1
 133 707 l 1,35,-1
 75 807 l 1,0,1
EndSplineSet
EndChar

StartChar: n
Encoding: 110 110 78
Width: 904
Flags: W
HStem: 0 21G<130 261 659 790> 819 123<262.471 582.913>
VStem: 130 131<0 748> 659 131<0 742.983>
LayerCount: 2
Fore
SplineSet
81 848 m 1,0,1
 108 864 108 864 143.5 881 c 128,-1,2
 179 898 179 898 223.5 911.5 c 128,-1,3
 268 925 268 925 320.5 933.5 c 128,-1,4
 373 942 373 942 435 942 c 0,5,6
 474 942 474 942 519 936.5 c 128,-1,7
 564 931 564 931 607.5 914 c 128,-1,8
 651 897 651 897 689 865 c 128,-1,9
 727 833 727 833 753 780 c 1,10,11
 763 757 763 757 770.5 728 c 128,-1,12
 778 699 778 699 782 657 c 128,-1,13
 786 615 786 615 788 556.5 c 128,-1,14
 790 498 790 498 790 416 c 2,15,-1
 790 0 l 1,16,-1
 659 0 l 1,17,-1
 659 420 l 2,18,19
 659 487 659 487 657.5 537.5 c 128,-1,20
 656 588 656 588 652 625.5 c 128,-1,21
 648 663 648 663 640.5 689.5 c 128,-1,22
 633 716 633 716 620 735 c 0,23,24
 611 749 611 749 595.5 764 c 128,-1,25
 580 779 580 779 557 791 c 128,-1,26
 534 803 534 803 501.5 811 c 128,-1,27
 469 819 469 819 425 819 c 0,28,29
 376 819 376 819 335.5 810.5 c 128,-1,30
 295 802 295 802 261 788 c 1,31,-1
 261 0 l 1,32,-1
 130 0 l 1,33,-1
 130 748 l 1,34,-1
 81 848 l 1,0,1
EndSplineSet
EndChar

StartChar: o
Encoding: 111 111 79
Width: 883
Flags: W
HStem: -20 122<256.57 622.441> 819 123<305.49 574.682>
VStem: 111 131<130.614 754.625> 639 131<209 754.625>
LayerCount: 2
Fore
SplineSet
242 156 m 1,0,1
 288 124 288 124 342 113 c 128,-1,2
 396 102 396 102 441 102 c 256,3,4
 486 102 486 102 539.5 113 c 128,-1,5
 593 124 593 124 639 156 c 1,6,-1
 639 547 l 2,7,8
 639 569 639 569 638.5 595.5 c 128,-1,9
 638 622 638 622 634 649 c 128,-1,10
 630 676 630 676 621.5 702 c 128,-1,11
 613 728 613 728 598 750 c 0,12,13
 590 760 590 760 577.5 772 c 128,-1,14
 565 784 565 784 546.5 794.5 c 128,-1,15
 528 805 528 805 501.5 812 c 128,-1,16
 475 819 475 819 441 819 c 0,17,18
 406 819 406 819 380 812 c 128,-1,19
 354 805 354 805 335 794.5 c 128,-1,20
 316 784 316 784 303 772 c 128,-1,21
 290 760 290 760 283 750 c 0,22,23
 268 728 268 728 259.5 702 c 128,-1,24
 251 676 251 676 247 649 c 128,-1,25
 243 622 243 622 242.5 595.5 c 128,-1,26
 242 569 242 569 242 547 c 2,27,-1
 242 156 l 1,0,1
111 543 m 2,28,29
 111 571 111 571 111.5 609 c 128,-1,30
 112 647 112 647 119.5 689 c 128,-1,31
 127 731 127 731 144 773 c 128,-1,32
 161 815 161 815 195 852 c 0,33,34
 223 883 223 883 255.5 901 c 128,-1,35
 288 919 288 919 320.5 928 c 128,-1,36
 353 937 353 937 384 939.5 c 128,-1,37
 415 942 415 942 441 942 c 256,38,39
 467 942 467 942 498 939.5 c 128,-1,40
 529 937 529 937 561.5 928 c 128,-1,41
 594 919 594 919 626 901 c 128,-1,42
 658 883 658 883 686 852 c 0,43,44
 720 815 720 815 737.5 773 c 128,-1,45
 755 731 755 731 762 689 c 128,-1,46
 769 647 769 647 769.5 609 c 128,-1,47
 770 571 770 571 770 543 c 2,48,-1
 770 209 l 1,49,-1
 840 125 l 1,50,51
 758 53 758 53 660 16.5 c 128,-1,52
 562 -20 562 -20 441 -20 c 0,53,54
 381 -20 381 -20 331 -12 c 128,-1,55
 281 -4 281 -4 240.5 9 c 128,-1,56
 200 22 200 22 167.5 38.5 c 128,-1,57
 135 55 135 55 111 72 c 1,58,-1
 111 543 l 2,28,29
EndSplineSet
EndChar

StartChar: p
Encoding: 112 112 80
Width: 901
Flags: W
HStem: -432 21G<134 265> -20 122<266.343 552.729> 819 123<265.971 558.585>
VStem: 134 131<-432 4 118.751 743> 674 136<239.827 687.893>
LayerCount: 2
Fore
SplineSet
76 848 m 1,0,1
 107 866 107 866 145.5 883 c 128,-1,2
 184 900 184 900 228.5 913 c 128,-1,3
 273 926 273 926 321.5 934 c 128,-1,4
 370 942 370 942 423 942 c 0,5,6
 529 942 529 942 602.5 901.5 c 128,-1,7
 676 861 676 861 722 794 c 128,-1,8
 768 727 768 727 789 640 c 128,-1,9
 810 553 810 553 810 461 c 256,10,11
 810 369 810 369 786.5 282 c 128,-1,12
 763 195 763 195 715.5 128 c 128,-1,13
 668 61 668 61 597 20.5 c 128,-1,14
 526 -20 526 -20 431 -20 c 0,15,16
 384 -20 384 -20 346 -14 c 128,-1,17
 308 -8 308 -8 265 4 c 1,18,-1
 265 -432 l 1,19,-1
 134 -432 l 1,20,-1
 134 743 l 1,21,-1
 76 848 l 1,0,1
265 135 m 1,22,23
 287 126 287 126 324 114 c 128,-1,24
 361 102 361 102 412 102 c 0,25,26
 487 102 487 102 537.5 135 c 128,-1,27
 588 168 588 168 618.5 220 c 128,-1,28
 649 272 649 272 661.5 335.5 c 128,-1,29
 674 399 674 399 674 461 c 0,30,31
 674 522 674 522 663 586 c 128,-1,32
 652 650 652 650 622.5 701.5 c 128,-1,33
 593 753 593 753 542.5 786 c 128,-1,34
 492 819 492 819 414 819 c 0,35,36
 376 819 376 819 336 810.5 c 128,-1,37
 296 802 296 802 265 786 c 1,38,-1
 265 135 l 1,22,23
EndSplineSet
EndChar

StartChar: q
Encoding: 113 113 81
Width: 901
Flags: W
HStem: -432 21G<636 767> -20 122<348.024 634.657> 819 123<342.415 635.029>
VStem: 91 136<239.827 687.893> 636 131<-432 4 118.751 743>
LayerCount: 2
Fore
SplineSet
767 743 m 1,0,-1
 767 -432 l 1,1,-1
 636 -432 l 1,2,-1
 636 4 l 1,3,4
 593 -8 593 -8 555 -14 c 128,-1,5
 517 -20 517 -20 470 -20 c 0,6,7
 375 -20 375 -20 303.5 20.5 c 128,-1,8
 232 61 232 61 185 128 c 128,-1,9
 138 195 138 195 114.5 282 c 128,-1,10
 91 369 91 369 91 461 c 256,11,12
 91 553 91 553 112 640 c 128,-1,13
 133 727 133 727 179 794 c 128,-1,14
 225 861 225 861 298.5 901.5 c 128,-1,15
 372 942 372 942 478 942 c 0,16,17
 530 942 530 942 579 934 c 128,-1,18
 628 926 628 926 672.5 913 c 128,-1,19
 717 900 717 900 755 883 c 128,-1,20
 793 866 793 866 825 848 c 1,21,-1
 767 743 l 1,0,-1
636 786 m 1,22,23
 605 802 605 802 565 810.5 c 128,-1,24
 525 819 525 819 487 819 c 0,25,26
 409 819 409 819 358.5 786 c 128,-1,27
 308 753 308 753 278.5 701.5 c 128,-1,28
 249 650 249 650 238 586 c 128,-1,29
 227 522 227 522 227 461 c 0,30,31
 227 399 227 399 239.5 335.5 c 128,-1,32
 252 272 252 272 282.5 220 c 128,-1,33
 313 168 313 168 363.5 135 c 128,-1,34
 414 102 414 102 489 102 c 0,35,36
 540 102 540 102 577 114 c 128,-1,37
 614 126 614 126 636 135 c 1,38,-1
 636 786 l 1,22,23
EndSplineSet
EndChar

StartChar: r
Encoding: 114 114 82
Width: 551
Flags: W
HStem: 0 21G<130 261> 922 20G<435 495.74>
VStem: 130 131<0 682>
LayerCount: 2
Fore
SplineSet
130 682 m 1,0,-1
 70 774 l 1,1,2
 161 849 161 849 269.5 887 c 128,-1,3
 378 925 378 925 492 942 c 1,4,-1
 515 819 l 1,5,6
 415 804 415 804 356.5 784.5 c 128,-1,7
 298 765 298 765 261 745 c 1,8,-1
 261 0 l 1,9,-1
 130 0 l 1,10,-1
 130 682 l 1,0,-1
EndSplineSet
EndChar

StartChar: s
Encoding: 115 115 83
Width: 779
Flags: W
HStem: -20 122<128.797 546.12> 815 127<251.467 589.531>
VStem: 92 132<595.461 786.173> 547 131<195 310.376>
LayerCount: 2
Fore
SplineSet
623 754 m 1,0,1
 594 769 594 769 566.5 780 c 128,-1,2
 539 791 539 791 510.5 799 c 128,-1,3
 482 807 482 807 452 811 c 128,-1,4
 422 815 422 815 387 815 c 0,5,6
 353 815 353 815 323.5 809 c 128,-1,7
 294 803 294 803 272 788.5 c 128,-1,8
 250 774 250 774 237 750 c 128,-1,9
 224 726 224 726 224 690 c 0,10,11
 224 662 224 662 233.5 641 c 128,-1,12
 243 620 243 620 260.5 603 c 128,-1,13
 278 586 278 586 301 572 c 128,-1,14
 324 558 324 558 351 545 c 2,15,-1
 486 479 l 2,16,17
 575 436 575 436 626.5 379.5 c 128,-1,18
 678 323 678 323 678 242 c 2,19,-1
 678 195 l 1,20,-1
 748 111 l 1,21,22
 703 70 703 70 655.5 44.5 c 128,-1,23
 608 19 608 19 560 4.5 c 128,-1,24
 512 -10 512 -10 465 -15 c 128,-1,25
 418 -20 418 -20 373 -20 c 0,26,27
 283 -20 283 -20 212.5 -5.5 c 128,-1,28
 142 9 142 9 92 31 c 1,29,-1
 92 162 l 1,30,31
 120 150 120 150 149.5 139 c 128,-1,32
 179 128 179 128 212 119.5 c 128,-1,33
 245 111 245 111 283.5 106.5 c 128,-1,34
 322 102 322 102 369 102 c 0,35,36
 425 102 425 102 472 114 c 128,-1,37
 519 126 519 126 547 147 c 1,38,-1
 547 188 l 2,39,40
 547 219 547 219 541 243.5 c 128,-1,41
 535 268 535 268 520.5 289.5 c 128,-1,42
 506 311 506 311 481 330 c 128,-1,43
 456 349 456 349 418 369 c 1,44,-1
 260 446 l 2,45,46
 226 463 226 463 195.5 484 c 128,-1,47
 165 505 165 505 142 533.5 c 128,-1,48
 119 562 119 562 105.5 600.5 c 128,-1,49
 92 639 92 639 92 690 c 0,50,51
 92 747 92 747 112 793.5 c 128,-1,52
 132 840 132 840 170.5 873 c 128,-1,53
 209 906 209 906 263.5 924 c 128,-1,54
 318 942 318 942 387 942 c 0,55,56
 475 942 475 942 547.5 921 c 128,-1,57
 620 900 620 900 676 868 c 1,58,-1
 623 754 l 1,0,1
EndSplineSet
EndChar

StartChar: t
Encoding: 116 116 84
Width: 501
Flags: W
HStem: 795 127<238 432>
VStem: 107 131<264.007 795 922 1075.24>
LayerCount: 2
Fore
SplineSet
238 1167 m 1,0,-1
 238 922 l 1,1,-1
 432 922 l 1,2,-1
 432 795 l 1,3,-1
 238 795 l 1,4,-1
 238 530 l 2,5,6
 238 501 238 501 238 468.5 c 128,-1,7
 238 436 238 436 241.5 401.5 c 128,-1,8
 245 367 245 367 254.5 332 c 128,-1,9
 264 297 264 297 283 264 c 0,10,11
 297 240 297 240 320.5 215 c 128,-1,12
 344 190 344 190 371.5 165.5 c 128,-1,13
 399 141 399 141 429 119.5 c 128,-1,14
 459 98 459 98 486 82 c 1,15,-1
 408 -20 l 1,16,17
 378 -4 378 -4 347 16.5 c 128,-1,18
 316 37 316 37 287.5 61 c 128,-1,19
 259 85 259 85 233.5 111 c 128,-1,20
 208 137 208 137 189 164 c 0,21,22
 161 203 161 203 145 242 c 128,-1,23
 129 281 129 281 120.5 320.5 c 128,-1,24
 112 360 112 360 109.5 399 c 128,-1,25
 107 438 107 438 107 477 c 2,26,-1
 107 1038 l 1,27,-1
 66 1167 l 1,28,-1
 238 1167 l 1,0,-1
EndSplineSet
EndChar

StartChar: u
Encoding: 117 117 85
Width: 905
Flags: W
HStem: -20 122<322.18 642.936> 902 20G<115 246 644 775>
VStem: 115 131<178.287 922> 644 131<174 922>
LayerCount: 2
Fore
SplineSet
824 74 m 1,0,1
 797 58 797 58 761.5 41 c 128,-1,2
 726 24 726 24 681.5 10.5 c 128,-1,3
 637 -3 637 -3 584 -11.5 c 128,-1,4
 531 -20 531 -20 470 -20 c 0,5,6
 431 -20 431 -20 386 -14.5 c 128,-1,7
 341 -9 341 -9 297.5 8 c 128,-1,8
 254 25 254 25 215.5 56.5 c 128,-1,9
 177 88 177 88 152 141 c 0,10,11
 141 164 141 164 134 193.5 c 128,-1,12
 127 223 127 223 123 265 c 128,-1,13
 119 307 119 307 117 365.5 c 128,-1,14
 115 424 115 424 115 506 c 2,15,-1
 115 922 l 1,16,-1
 246 922 l 1,17,-1
 246 502 l 2,18,19
 246 434 246 434 247.5 383.5 c 128,-1,20
 249 333 249 333 253 295.5 c 128,-1,21
 257 258 257 258 264.5 231.5 c 128,-1,22
 272 205 272 205 285 186 c 0,23,24
 294 172 294 172 309.5 157.5 c 128,-1,25
 325 143 325 143 348 130.5 c 128,-1,26
 371 118 371 118 403.5 110 c 128,-1,27
 436 102 436 102 480 102 c 0,28,29
 529 102 529 102 569.5 110.5 c 128,-1,30
 610 119 610 119 644 133 c 1,31,-1
 644 922 l 1,32,-1
 775 922 l 1,33,-1
 775 174 l 1,34,-1
 824 74 l 1,0,1
EndSplineSet
EndChar

StartChar: v
Encoding: 118 118 86
Width: 871
Flags: W
HStem: -20 122<386.244 498.75> 922 20G<78.4444 178.672 689.346 789.556>
LayerCount: 2
Fore
SplineSet
174 942 m 1,0,-1
 327 287 l 2,1,2
 336 252 336 252 346.5 219.5 c 128,-1,3
 357 187 357 187 373.5 161.5 c 128,-1,4
 390 136 390 136 413.5 119.5 c 128,-1,5
 437 103 437 103 471 102 c 0,6,7
 477 102 477 102 484 102 c 128,-1,8
 491 102 491 102 499 104 c 1,9,-1
 694 942 l 1,10,-1
 823 915 l 1,11,-1
 639 129 l 1,12,-1
 686 35 l 1,13,14
 654 13 654 13 601.5 -3.5 c 128,-1,15
 549 -20 549 -20 481 -20 c 0,16,17
 365 -20 365 -20 299.5 48 c 128,-1,18
 234 116 234 116 200 256 c 1,19,-1
 45 915 l 1,20,-1
 174 942 l 1,0,-1
EndSplineSet
EndChar

StartChar: w
Encoding: 119 119 87
Width: 1136
Flags: W
HStem: -20 122<365.282 493.751 626 812.716> 922 20G<61 195.039 934.917 1069>
VStem: 495 131<102 748>
LayerCount: 2
Fore
SplineSet
192 942 m 1,0,-1
 290 297 l 2,1,2
 298 244 298 244 316 208 c 128,-1,3
 334 172 334 172 360.5 149.5 c 128,-1,4
 387 127 387 127 421 116 c 128,-1,5
 455 105 455 105 495 102 c 1,6,-1
 495 748 l 1,7,-1
 626 748 l 1,8,-1
 626 102 l 1,9,10
 651 101 651 101 679.5 104 c 128,-1,11
 708 107 708 107 734.5 111.5 c 128,-1,12
 761 116 761 116 782.5 121 c 128,-1,13
 804 126 804 126 813 131 c 1,14,-1
 938 942 l 1,15,-1
 1069 926 l 1,16,-1
 948 152 l 1,17,-1
 987 55 l 1,18,19
 963 42 963 42 921.5 28.5 c 128,-1,20
 880 15 880 15 827 4.5 c 128,-1,21
 774 -6 774 -6 713 -13 c 128,-1,22
 652 -20 652 -20 589 -20 c 0,23,24
 514 -20 514 -20 444 -10.5 c 128,-1,25
 374 -1 374 -1 316.5 30.5 c 128,-1,26
 259 62 259 62 218 120 c 128,-1,27
 177 178 177 178 161 276 c 2,28,-1
 61 926 l 1,29,-1
 192 942 l 1,0,-1
EndSplineSet
EndChar

StartChar: x
Encoding: 120 120 88
Width: 842
Flags: W
HStem: 922 20G<149.339 199.172 618 730.833>
VStem: 625 127<717.095 920.709>
LayerCount: 2
Fore
SplineSet
189 942 m 1,0,-1
 396 535 l 1,1,-1
 468 571 l 2,2,3
 504 590 504 590 528 616.5 c 128,-1,4
 552 643 552 643 569 685.5 c 128,-1,5
 586 728 586 728 598.5 790 c 128,-1,6
 611 852 611 852 625 942 c 1,7,-1
 752 918 l 1,8,9
 740 828 740 828 724.5 757.5 c 128,-1,10
 709 687 709 687 687.5 633 c 128,-1,11
 666 579 666 579 635.5 540.5 c 128,-1,12
 605 502 605 502 562 477 c 1,13,-1
 785 37 l 1,14,-1
 666 -23 l 1,15,-1
 447 416 l 1,16,-1
 375 377 l 2,17,18
 328 351 328 351 298.5 305 c 128,-1,19
 269 259 269 259 250 203.5 c 128,-1,20
 231 148 231 148 220 89.5 c 128,-1,21
 209 31 209 31 199 -20 c 1,22,-1
 72 4 l 1,23,24
 82 55 82 55 96 120 c 128,-1,25
 110 185 110 185 133.5 250 c 128,-1,26
 157 315 157 315 192 374 c 128,-1,27
 227 433 227 433 279 473 c 1,28,-1
 72 883 l 1,29,-1
 189 942 l 1,0,-1
EndSplineSet
EndChar

StartChar: y
Encoding: 121 121 89
Width: 869
Flags: W
HStem: -433 21G<422.667 512.674> -20 122<385.086 469> 922 20G<78.4444 178.672 689.346 789.556>
LayerCount: 2
Fore
SplineSet
174 942 m 1,0,-1
 327 287 l 2,1,2
 336 252 336 252 346.5 219.5 c 128,-1,3
 357 187 357 187 373.5 161.5 c 128,-1,4
 390 136 390 136 413.5 119.5 c 128,-1,5
 437 103 437 103 471 102 c 0,6,7
 477 102 477 102 484 102 c 128,-1,8
 491 102 491 102 499 104 c 1,9,-1
 694 942 l 1,10,-1
 823 915 l 1,11,-1
 508 -433 l 1,12,-1
 380 -403 l 1,13,-1
 469 -20 l 1,14,15
 414 -18 414 -18 371.5 -0.5 c 128,-1,16
 329 17 329 17 296.5 51.5 c 128,-1,17
 264 86 264 86 240 137 c 128,-1,18
 216 188 216 188 200 256 c 2,19,-1
 45 915 l 1,20,-1
 174 942 l 1,0,-1
EndSplineSet
EndChar

StartChar: z
Encoding: 122 122 90
Width: 730
Flags: W
HStem: 0 127<260 659> 795 127<94 448>
VStem: 51 608<0 28.7081>
LayerCount: 2
Fore
SplineSet
260 127 m 1,0,-1
 659 127 l 1,1,-1
 659 0 l 1,2,-1
 51 0 l 1,3,-1
 448 795 l 1,4,-1
 94 795 l 1,5,-1
 94 922 l 1,6,-1
 659 922 l 1,7,-1
 260 127 l 1,0,-1
EndSplineSet
EndChar

StartChar: braceleft
Encoding: 123 123 91
Width: 513
Flags: W
HStem: 1321 20G<385 419.508>
VStem: 177 131<-94.3575 410.576 629.424 1133.18>
LayerCount: 2
Fore
SplineSet
38 584 m 1,0,1
 89 595 89 595 117.5 616.5 c 128,-1,2
 146 638 146 638 159 670 c 128,-1,3
 172 702 172 702 174.5 745 c 128,-1,4
 177 788 177 788 177 844 c 2,5,-1
 177 977 l 2,6,7
 177 1055 177 1055 194.5 1113.5 c 128,-1,8
 212 1172 212 1172 243.5 1216 c 128,-1,9
 275 1260 275 1260 317.5 1290 c 128,-1,10
 360 1320 360 1320 410 1341 c 1,11,-1
 468 1219 l 1,12,13
 432 1202 432 1202 402.5 1181.5 c 128,-1,14
 373 1161 373 1161 352 1133.5 c 128,-1,15
 331 1106 331 1106 319.5 1069 c 128,-1,16
 308 1032 308 1032 308 981 c 2,17,-1
 308 844 l 2,18,19
 308 791 308 791 305 744 c 128,-1,20
 302 697 302 697 288.5 656.5 c 128,-1,21
 275 616 275 616 248.5 582 c 128,-1,22
 222 548 222 548 175 520 c 1,23,24
 222 492 222 492 248.5 458 c 128,-1,25
 275 424 275 424 288.5 383.5 c 128,-1,26
 302 343 302 343 305 296.5 c 128,-1,27
 308 250 308 250 308 197 c 2,28,-1
 308 59 l 2,29,30
 308 8 308 8 319.5 -29 c 128,-1,31
 331 -66 331 -66 352 -93.5 c 128,-1,32
 373 -121 373 -121 402.5 -141 c 128,-1,33
 432 -161 432 -161 468 -178 c 1,34,-1
 410 -301 l 1,35,36
 360 -280 360 -280 317.5 -249.5 c 128,-1,37
 275 -219 275 -219 243.5 -175.5 c 128,-1,38
 212 -132 212 -132 194.5 -73 c 128,-1,39
 177 -14 177 -14 177 63 c 2,40,-1
 177 197 l 2,41,42
 177 252 177 252 174.5 295 c 128,-1,43
 172 338 172 338 159 370.5 c 128,-1,44
 146 403 146 403 117.5 424 c 128,-1,45
 89 445 89 445 38 457 c 1,46,-1
 38 584 l 1,0,1
EndSplineSet
EndChar

StartChar: bar
Encoding: 124 124 92
Width: 398
Flags: W
HStem: -432 21G<134 265> 1321 20G<134 265>
VStem: 134 131<-432 1341>
LayerCount: 2
Fore
SplineSet
134 1341 m 1,0,-1
 265 1341 l 1,1,-1
 265 -432 l 1,2,-1
 134 -432 l 1,3,-1
 134 1341 l 1,0,-1
EndSplineSet
EndChar

StartChar: braceright
Encoding: 125 125 93
Width: 513
Flags: W
HStem: 1321 20G<93.6557 128>
VStem: 205 131<-94.5801 410.518 630.622 1134.93>
LayerCount: 2
Fore
SplineSet
476 457 m 1,0,1
 424 445 424 445 396 424 c 128,-1,2
 368 403 368 403 354.5 370.5 c 128,-1,3
 341 338 341 338 338.5 295 c 128,-1,4
 336 252 336 252 336 197 c 2,5,-1
 336 63 l 2,6,7
 336 -14 336 -14 318.5 -73 c 128,-1,8
 301 -132 301 -132 269.5 -175.5 c 128,-1,9
 238 -219 238 -219 195.5 -249.5 c 128,-1,10
 153 -280 153 -280 103 -301 c 1,11,-1
 46 -178 l 1,12,13
 82 -161 82 -161 111.5 -141 c 128,-1,14
 141 -121 141 -121 161.5 -93.5 c 128,-1,15
 182 -66 182 -66 193.5 -29 c 128,-1,16
 205 8 205 8 205 59 c 2,17,-1
 205 197 l 2,18,19
 205 250 205 250 208 296.5 c 128,-1,20
 211 343 211 343 224.5 383.5 c 128,-1,21
 238 424 238 424 264.5 458 c 128,-1,22
 291 492 291 492 338 520 c 1,23,24
 291 548 291 548 264.5 582 c 128,-1,25
 238 616 238 616 224.5 656.5 c 128,-1,26
 211 697 211 697 208 744 c 128,-1,27
 205 791 205 791 205 844 c 2,28,-1
 205 981 l 2,29,30
 205 1032 205 1032 193.5 1069 c 128,-1,31
 182 1106 182 1106 161.5 1133.5 c 128,-1,32
 141 1161 141 1161 111.5 1181.5 c 128,-1,33
 82 1202 82 1202 46 1219 c 1,34,-1
 103 1341 l 1,35,36
 153 1320 153 1320 195.5 1290 c 128,-1,37
 238 1260 238 1260 269.5 1216 c 128,-1,38
 301 1172 301 1172 318.5 1113.5 c 128,-1,39
 336 1055 336 1055 336 977 c 2,40,-1
 336 844 l 2,41,42
 336 788 336 788 338.5 745 c 128,-1,43
 341 702 341 702 354.5 670 c 128,-1,44
 368 638 368 638 396 616.5 c 128,-1,45
 424 595 424 595 476 584 c 1,46,-1
 476 457 l 1,0,1
EndSplineSet
EndChar

StartChar: asciitilde
Encoding: 126 126 94
Width: 996
Flags: W
HStem: 532 138<559.812 803.222> 659 138<193 447.612>
LayerCount: 2
Fore
SplineSet
65 635 m 1,0,1
 92 666 92 666 119.5 695 c 128,-1,2
 147 724 147 724 177.5 746.5 c 128,-1,3
 208 769 208 769 242.5 783 c 128,-1,4
 277 797 277 797 319 797 c 0,5,6
 369 797 369 797 420.5 777 c 128,-1,7
 472 757 472 757 520 733.5 c 128,-1,8
 568 710 568 710 611 690 c 128,-1,9
 654 670 654 670 687 670 c 0,10,11
 718 670 718 670 741 677.5 c 128,-1,12
 764 685 764 685 782.5 698 c 128,-1,13
 801 711 801 711 817.5 729.5 c 128,-1,14
 834 748 834 748 853 770 c 1,15,-1
 931 678 l 1,16,17
 904 647 904 647 876.5 620.5 c 128,-1,18
 849 594 849 594 818 574.5 c 128,-1,19
 787 555 787 555 751.5 543.5 c 128,-1,20
 716 532 716 532 673 532 c 0,21,22
 627 532 627 532 580 552 c 128,-1,23
 533 572 533 572 486.5 595.5 c 128,-1,24
 440 619 440 619 394.5 639 c 128,-1,25
 349 659 349 659 304 659 c 0,26,27
 274 659 274 659 252.5 651.5 c 128,-1,28
 231 644 231 644 213 631 c 128,-1,29
 195 618 195 618 178.5 599.5 c 128,-1,30
 162 581 162 581 143 559 c 1,31,-1
 65 635 l 1,0,1
EndSplineSet
EndChar

StartChar: quotesinglbase
Encoding: 8218 8218 95
Width: 355
Flags: W
HStem: -209 381
VStem: 157 102<-97.6841 0>
LayerCount: 2
Fore
SplineSet
259 172 m 1,0,-1
 259 0 l 2,1,2
 259 -40 259 -40 246.5 -77.5 c 128,-1,3
 234 -115 234 -115 212 -141 c 0,4,5
 195 -161 195 -161 167.5 -179.5 c 128,-1,6
 140 -198 140 -198 114 -209 c 1,7,-1
 67 -123 l 1,8,9
 79 -118 79 -118 99.5 -106 c 128,-1,10
 120 -94 120 -94 132 -80 c 0,11,12
 144 -67 144 -67 152 -46.5 c 128,-1,13
 160 -26 160 -26 157 0 c 1,14,-1
 73 172 l 1,15,-1
 259 172 l 1,0,-1
EndSplineSet
EndChar

StartChar: quotedblbase
Encoding: 8222 8222 96
Width: 641
Flags: W
HStem: -209 381
VStem: 157 102<-97.6841 0> 441 103<-97.6841 0>
LayerCount: 2
Fore
SplineSet
259 172 m 1,0,-1
 259 0 l 2,1,2
 259 -40 259 -40 246.5 -77.5 c 128,-1,3
 234 -115 234 -115 212 -141 c 0,4,5
 195 -161 195 -161 167.5 -179.5 c 128,-1,6
 140 -198 140 -198 114 -209 c 1,7,-1
 67 -123 l 1,8,9
 79 -118 79 -118 99.5 -106 c 128,-1,10
 120 -94 120 -94 132 -80 c 0,11,12
 144 -67 144 -67 152 -46.5 c 128,-1,13
 160 -26 160 -26 157 0 c 1,14,-1
 73 172 l 1,15,-1
 259 172 l 1,0,-1
544 172 m 1,16,-1
 544 0 l 2,17,18
 544 -40 544 -40 531 -77.5 c 128,-1,19
 518 -115 518 -115 497 -141 c 0,20,21
 480 -161 480 -161 452 -179.5 c 128,-1,22
 424 -198 424 -198 398 -209 c 1,23,-1
 351 -123 l 1,24,25
 364 -118 364 -118 384 -106 c 128,-1,26
 404 -94 404 -94 417 -80 c 0,27,28
 429 -67 429 -67 436.5 -46.5 c 128,-1,29
 444 -26 444 -26 441 0 c 1,30,-1
 357 172 l 1,31,-1
 544 172 l 1,16,-1
EndSplineSet
EndChar

StartChar: circumflex
Encoding: 710 710 97
Width: 721
Flags: W
HStem: 1034 307
VStem: 82 557
LayerCount: 2
Fore
SplineSet
426 1341 m 1,0,-1
 639 1128 l 1,1,-1
 545 1034 l 1,2,-1
 360 1219 l 1,3,-1
 176 1034 l 1,4,-1
 82 1128 l 1,5,-1
 295 1341 l 1,6,-1
 426 1341 l 1,0,-1
EndSplineSet
EndChar

StartChar: guilsinglleft
Encoding: 8249 8249 98
Width: 542
Flags: W
HStem: 246 676
VStem: 95 366
LayerCount: 2
Fore
SplineSet
95 649 m 1,0,-1
 367 922 l 1,1,-1
 461 827 l 1,2,-1
 218 584 l 1,3,-1
 461 340 l 1,4,-1
 367 246 l 1,5,-1
 95 518 l 1,6,-1
 95 649 l 1,0,-1
EndSplineSet
EndChar

StartChar: quoteleft
Encoding: 8216 8216 99
Width: 356
Flags: W
HStem: 961 380
VStem: 91 102<1133 1229.61>
LayerCount: 2
Fore
SplineSet
91 961 m 1,0,-1
 91 1133 l 2,1,2
 91 1173 91 1173 103.5 1210.5 c 128,-1,3
 116 1248 116 1248 138 1274 c 0,4,5
 155 1294 155 1294 182.5 1312 c 128,-1,6
 210 1330 210 1330 236 1341 c 1,7,-1
 283 1255 l 1,8,9
 271 1250 271 1250 250.5 1238 c 128,-1,10
 230 1226 230 1226 218 1212 c 1,11,12
 205 1200 205 1200 197.5 1179.5 c 128,-1,13
 190 1159 190 1159 193 1133 c 1,14,-1
 277 961 l 1,15,-1
 91 961 l 1,0,-1
EndSplineSet
EndChar

StartChar: quoteright
Encoding: 8217 8217 100
Width: 330
Flags: W
HStem: 961 380
VStem: 153 102<1072.39 1169>
LayerCount: 2
Fore
SplineSet
255 1341 m 1,0,-1
 255 1169 l 2,1,2
 255 1129 255 1129 242.5 1091.5 c 128,-1,3
 230 1054 230 1054 208 1028 c 0,4,5
 191 1008 191 1008 163.5 990 c 128,-1,6
 136 972 136 972 110 961 c 1,7,-1
 63 1047 l 1,8,9
 75 1052 75 1052 95.5 1064 c 128,-1,10
 116 1076 116 1076 128 1090 c 1,11,12
 141 1102 141 1102 148.5 1122.5 c 128,-1,13
 156 1143 156 1143 153 1169 c 1,14,-1
 69 1341 l 1,15,-1
 255 1341 l 1,0,-1
EndSplineSet
EndChar

StartChar: quotedblleft
Encoding: 8220 8220 101
Width: 642
Flags: W
HStem: 961 380
VStem: 91 102<1133 1229.61> 378 102<1133 1229.61>
LayerCount: 2
Fore
SplineSet
91 961 m 1,0,-1
 91 1133 l 2,1,2
 91 1173 91 1173 103.5 1210.5 c 128,-1,3
 116 1248 116 1248 138 1274 c 0,4,5
 155 1294 155 1294 182.5 1312 c 128,-1,6
 210 1330 210 1330 236 1341 c 1,7,-1
 283 1255 l 1,8,9
 271 1250 271 1250 250.5 1238 c 128,-1,10
 230 1226 230 1226 218 1212 c 1,11,12
 205 1200 205 1200 197.5 1179.5 c 128,-1,13
 190 1159 190 1159 193 1133 c 1,14,-1
 277 961 l 1,15,-1
 91 961 l 1,0,-1
378 961 m 1,16,-1
 378 1133 l 2,17,18
 378 1173 378 1173 390.5 1210.5 c 128,-1,19
 403 1248 403 1248 425 1274 c 0,20,21
 442 1294 442 1294 469.5 1312 c 128,-1,22
 497 1330 497 1330 523 1341 c 1,23,-1
 570 1255 l 1,24,25
 558 1250 558 1250 537.5 1238 c 128,-1,26
 517 1226 517 1226 505 1212 c 1,27,28
 492 1200 492 1200 484.5 1179.5 c 128,-1,29
 477 1159 477 1159 480 1133 c 1,30,-1
 564 961 l 1,31,-1
 378 961 l 1,16,-1
EndSplineSet
EndChar

StartChar: quotedblright
Encoding: 8221 8221 102
Width: 617
Flags: W
HStem: 961 380
VStem: 153 102<1072.39 1169> 440 102<1072.39 1169>
LayerCount: 2
Fore
SplineSet
255 1341 m 1,0,-1
 255 1169 l 2,1,2
 255 1129 255 1129 242.5 1091.5 c 128,-1,3
 230 1054 230 1054 208 1028 c 0,4,5
 191 1008 191 1008 163.5 990 c 128,-1,6
 136 972 136 972 110 961 c 1,7,-1
 63 1047 l 1,8,9
 75 1052 75 1052 95.5 1064 c 128,-1,10
 116 1076 116 1076 128 1090 c 1,11,12
 141 1102 141 1102 148.5 1122.5 c 128,-1,13
 156 1143 156 1143 153 1169 c 1,14,-1
 69 1341 l 1,15,-1
 255 1341 l 1,0,-1
542 1341 m 1,16,-1
 542 1169 l 2,17,18
 542 1129 542 1129 529.5 1091.5 c 128,-1,19
 517 1054 517 1054 495 1028 c 0,20,21
 478 1008 478 1008 450.5 990 c 128,-1,22
 423 972 423 972 397 961 c 1,23,-1
 350 1047 l 1,24,25
 362 1052 362 1052 382.5 1064 c 128,-1,26
 403 1076 403 1076 415 1090 c 1,27,28
 428 1102 428 1102 435.5 1122.5 c 128,-1,29
 443 1143 443 1143 440 1169 c 1,30,-1
 356 1341 l 1,31,-1
 542 1341 l 1,16,-1
EndSplineSet
EndChar

StartChar: bullet
Encoding: 8226 8226 103
Width: 636
Flags: W
HStem: 532 410<113 523>
VStem: 113 410<532 942>
LayerCount: 2
Fore
SplineSet
523 942 m 1,0,-1
 523 532 l 1,1,-1
 113 532 l 1,2,-1
 113 942 l 1,3,-1
 523 942 l 1,0,-1
EndSplineSet
EndChar

StartChar: endash
Encoding: 8211 8211 104
Width: 882
Flags: W
HStem: 444 134<111 771>
VStem: 111 660<444 578>
LayerCount: 2
Fore
SplineSet
111 578 m 1,0,-1
 771 578 l 1,1,-1
 771 444 l 1,2,-1
 111 444 l 1,3,-1
 111 578 l 1,0,-1
EndSplineSet
EndChar

StartChar: emdash
Encoding: 8212 8212 105
Width: 1188
Flags: W
HStem: 444 134<111 1076>
LayerCount: 2
Fore
SplineSet
111 578 m 1,0,-1
 1076 578 l 1,1,-1
 1076 444 l 1,2,-1
 111 444 l 1,3,-1
 111 578 l 1,0,-1
EndSplineSet
EndChar

StartChar: tilde
Encoding: 732 732 106
Width: 762
Flags: W
HStem: 1059 274
VStem: 82 598
LayerCount: 2
Fore
SplineSet
82 1139 m 1,0,1
 135 1210 135 1210 199.5 1259 c 128,-1,2
 264 1308 264 1308 336 1333 c 1,3,-1
 463 1208 l 1,4,5
 492 1221 492 1221 515.5 1243 c 128,-1,6
 539 1265 539 1265 556 1286 c 0,7,8
 575 1311 575 1311 590 1337 c 1,9,-1
 680 1253 l 1,10,11
 629 1188 629 1188 567.5 1136.5 c 128,-1,12
 506 1085 506 1085 426 1059 c 1,13,-1
 299 1184 l 1,14,15
 270 1171 270 1171 246.5 1149.5 c 128,-1,16
 223 1128 223 1128 206 1107 c 0,17,18
 187 1082 187 1082 172 1055 c 1,19,-1
 82 1139 l 1,0,1
EndSplineSet
EndChar

StartChar: guilsinglright
Encoding: 8250 8250 107
Width: 543
Flags: W
HStem: 246 676
VStem: 81 367
LayerCount: 2
Fore
SplineSet
448 518 m 1,0,-1
 176 246 l 1,1,-1
 81 340 l 1,2,-1
 325 584 l 1,3,-1
 81 827 l 1,4,-1
 176 922 l 1,5,-1
 448 649 l 1,6,-1
 448 518 l 1,0,-1
EndSplineSet
EndChar

StartChar: quotedbl
Encoding: 34 34 108
Width: 593
Flags: W
HStem: 922 340<100 231 362 493>
VStem: 100 131<922 1262> 362 131<922 1262>
LayerCount: 2
Fore
SplineSet
231 1262 m 1,0,-1
 231 922 l 1,1,-1
 100 922 l 1,2,-1
 100 1262 l 1,3,-1
 231 1262 l 1,0,-1
493 1262 m 1,4,-1
 493 922 l 1,5,-1
 362 922 l 1,6,-1
 362 1262 l 1,7,-1
 493 1262 l 1,4,-1
EndSplineSet
EndChar

StartChar: dotlessi
Encoding: 305 305 110
Width: 382
Flags: W
HStem: 0 21G<128 259> 902 20G<87 259>
VStem: 128 131<0 838.106>
LayerCount: 2
Fore
SplineSet
259 922 m 1,0,-1
 259 0 l 1,1,-1
 128 0 l 1,2,-1
 128 793 l 1,3,-1
 87 922 l 1,4,-1
 259 922 l 1,0,-1
EndSplineSet
EndChar

StartChar: ring
Encoding: 730 730 111
Width: 612
Flags: W
HStem: 995 115<249.252 377.293> 1249 113<249.252 377.293>
VStem: 123 115<1121.74 1237.35> 389 115<1121.74 1237.35>
LayerCount: 2
Fore
SplineSet
504 1180 m 0,0,1
 504 1090 504 1090 455 1042.5 c 128,-1,2
 406 995 406 995 313 995 c 256,3,4
 220 995 220 995 171.5 1042.5 c 128,-1,5
 123 1090 123 1090 123 1180 c 0,6,7
 123 1269 123 1269 171.5 1315.5 c 128,-1,8
 220 1362 220 1362 313 1362 c 256,9,10
 406 1362 406 1362 455 1315.5 c 128,-1,11
 504 1269 504 1269 504 1180 c 0,0,1
238 1180 m 0,12,13
 238 1148 238 1148 255.5 1129 c 128,-1,14
 273 1110 273 1110 313 1110 c 0,15,16
 354 1110 354 1110 371.5 1129 c 128,-1,17
 389 1148 389 1148 389 1180 c 0,18,19
 389 1211 389 1211 371.5 1230 c 128,-1,20
 354 1249 354 1249 313 1249 c 0,21,22
 273 1249 273 1249 255.5 1230 c 128,-1,23
 238 1211 238 1211 238 1180 c 0,12,13
EndSplineSet
EndChar

StartChar: fraction
Encoding: 8260 8260 112
Width: 614
Flags: W
HStem: 1262 20G<464.804 529.209>
VStem: 19 576
LayerCount: 2
Fore
SplineSet
472 1282 m 1,0,-1
 595 1239 l 1,1,-1
 142 -20 l 1,2,-1
 19 23 l 1,3,-1
 472 1282 l 1,0,-1
EndSplineSet
EndChar

StartChar: Euro
Encoding: 8364 8364 113
Width: 924
Flags: W
HStem: -20 131<365.512 773.561> 569 111<107 189 332 681> 774 111<107 189 335 726> 1151 131<429.325 765.296>
VStem: 189 143<240 569 680 774 885 1043.97>
LayerCount: 2
Fore
SplineSet
775 1102 m 1,0,1
 722 1128 722 1128 673.5 1139.5 c 128,-1,2
 625 1151 625 1151 584 1151 c 0,3,4
 516 1151 516 1151 470.5 1130.5 c 128,-1,5
 425 1110 425 1110 396.5 1074 c 128,-1,6
 368 1038 368 1038 354 989.5 c 128,-1,7
 340 941 340 941 335 885 c 1,8,-1
 750 885 l 1,9,-1
 726 774 l 1,10,-1
 332 774 l 1,11,-1
 332 680 l 1,12,-1
 705 680 l 1,13,-1
 681 569 l 1,14,-1
 332 569 l 1,15,-1
 332 174 l 1,16,17
 389 139 389 139 446.5 125 c 128,-1,18
 504 111 504 111 576 111 c 0,19,20
 610 111 610 111 639 114 c 128,-1,21
 668 117 668 117 694.5 124 c 128,-1,22
 721 131 721 131 747.5 142.5 c 128,-1,23
 774 154 774 154 804 172 c 1,24,-1
 863 43 l 1,25,26
 810 15 810 15 735.5 -2.5 c 128,-1,27
 661 -20 661 -20 568 -20 c 0,28,29
 531 -20 531 -20 478.5 -14.5 c 128,-1,30
 426 -9 426 -9 365.5 8 c 128,-1,31
 305 25 305 25 240.5 58 c 128,-1,32
 176 91 176 91 115 145 c 1,33,-1
 189 240 l 1,34,-1
 189 569 l 1,35,-1
 83 569 l 1,36,-1
 107 680 l 1,37,-1
 189 680 l 1,38,-1
 189 774 l 1,39,-1
 83 774 l 1,40,-1
 107 885 l 1,41,-1
 193 885 l 1,42,43
 200 969 200 969 223 1042 c 128,-1,44
 246 1115 246 1115 291 1168 c 128,-1,45
 336 1221 336 1221 406.5 1251.5 c 128,-1,46
 477 1282 477 1282 580 1282 c 0,47,48
 654 1282 654 1282 711.5 1268 c 128,-1,49
 769 1254 769 1254 826 1223 c 1,50,-1
 775 1102 l 1,0,1
EndSplineSet
EndChar

StartChar: uniEFFD
Encoding: 61437 61437 115
Width: 1083
Flags: W
HStem: 0 127<229 823> 897 127<229 823>
VStem: 102 127<127 897> 823 127<127 897>
LayerCount: 2
Fore
SplineSet
102 1024 m 1,0,-1
 950 1024 l 1,1,-1
 950 0 l 1,2,-1
 102 0 l 1,3,-1
 102 1024 l 1,0,-1
229 127 m 1,4,-1
 823 127 l 1,5,-1
 823 897 l 1,6,-1
 229 897 l 1,7,-1
 229 127 l 1,4,-1
EndSplineSet
EndChar

StartChar: minus
Encoding: 8722 8722 117
Width: 948
Flags: W
HStem: 662 131<127 821>
LayerCount: 2
Fore
SplineSet
127 793 m 1,0,-1
 821 793 l 1,1,-1
 821 662 l 1,2,-1
 127 662 l 1,3,-1
 127 793 l 1,0,-1
EndSplineSet
EndChar

StartChar: caron
Encoding: 711 711 118
Width: 721
Flags: W
HStem: 1034 307
VStem: 82 557
LayerCount: 2
Fore
SplineSet
295 1034 m 1,0,-1
 82 1247 l 1,1,-1
 176 1341 l 1,2,-1
 360 1155 l 1,3,-1
 545 1341 l 1,4,-1
 639 1247 l 1,5,-1
 426 1034 l 1,6,-1
 295 1034 l 1,0,-1
EndSplineSet
EndChar

StartChar: exclam
Encoding: 33 33 119
Width: 427
Flags: W
HStem: 0 172<130 302> 1242 20G<103 288>
VStem: 144 144<0 172 334 1176.15>
LayerCount: 2
Fore
SplineSet
288 1262 m 1,0,-1
 288 334 l 1,1,-1
 144 334 l 1,2,-1
 144 1130 l 1,3,-1
 103 1262 l 1,4,-1
 288 1262 l 1,0,-1
302 172 m 1,5,-1
 302 0 l 1,6,-1
 130 0 l 1,7,-1
 130 172 l 1,8,-1
 302 172 l 1,5,-1
EndSplineSet
EndChar

StartChar: Acute
Encoding: 65541 -1 121
Width: 893
Flags: W
HStem: 1352 309
VStem: 322 311
LayerCount: 2
Fore
SplineSet
633 1567 m 1,0,-1
 416 1352 l 1,1,-1
 322 1446 l 1,2,-1
 539 1661 l 1,3,-1
 633 1567 l 1,0,-1
EndSplineSet
EndChar

StartChar: OE
Encoding: 338 338 122
Width: 1313
Flags: W
HStem: -20 131<298.487 667.252 954.305 1226> 662 131<839 1105> 1130 132<369.251 695 839 1236>
VStem: 128 143<146.125 1021.17> 695 144<188.284 662 793 1130>
LayerCount: 2
Fore
SplineSet
812 74 m 1,0,1
 750 36 750 36 669.5 8 c 128,-1,2
 589 -20 589 -20 484 -20 c 0,3,4
 414 -20 414 -20 358 -8.5 c 128,-1,5
 302 3 302 3 258 20 c 128,-1,6
 214 37 214 37 181.5 57 c 128,-1,7
 149 77 149 77 128 94 c 1,8,-1
 130 788 l 2,9,10
 130 886 130 886 148.5 972 c 128,-1,11
 167 1058 167 1058 211 1122.5 c 128,-1,12
 255 1187 255 1187 328 1224.5 c 128,-1,13
 401 1262 401 1262 509 1262 c 2,14,-1
 1236 1262 l 1,15,-1
 1236 1130 l 1,16,-1
 839 1130 l 1,17,-1
 839 793 l 1,18,-1
 1105 793 l 1,19,-1
 1105 662 l 1,20,-1
 839 662 l 1,21,-1
 839 215 l 1,22,23
 885 185 885 185 930.5 165 c 128,-1,24
 976 145 976 145 1024.5 133 c 128,-1,25
 1073 121 1073 121 1125 116 c 128,-1,26
 1177 111 1177 111 1236 111 c 1,27,-1
 1226 -20 l 1,28,29
 1104 -20 1104 -20 1001.5 5 c 128,-1,30
 899 30 899 30 812 74 c 1,0,1
695 1130 m 1,31,-1
 509 1130 l 2,32,33
 434 1130 434 1130 387.5 1100 c 128,-1,34
 341 1070 341 1070 315 1021.5 c 128,-1,35
 289 973 289 973 280 911.5 c 128,-1,36
 271 850 271 850 271 788 c 2,37,-1
 271 174 l 1,38,39
 313 142 313 142 364.5 126.5 c 128,-1,40
 416 111 416 111 482 111 c 0,41,42
 539 111 539 111 593 125 c 128,-1,43
 647 139 647 139 695 174 c 1,44,-1
 695 1130 l 1,31,-1
EndSplineSet
EndChar

StartChar: oe
Encoding: 339 339 123
Width: 1372
Flags: W
HStem: -20 122<256.57 624.097 785.533 1200.04> 424 123<770 1129> 819 123<305.49 574.993 827.969 1071.3>
VStem: 111 131<130.614 754.625> 639 131<131.312 424 547 754.797> 1129 141<547 759.875>
LayerCount: 2
Fore
SplineSet
770 424 m 1,0,-1
 770 156 l 1,1,2
 818 124 818 124 873.5 113 c 128,-1,3
 929 102 929 102 975 102 c 0,4,5
 1064 102 1064 102 1134 122 c 128,-1,6
 1204 142 1204 142 1270 186 c 1,7,-1
 1270 49 l 1,8,9
 1208 12 1208 12 1136 -4 c 128,-1,10
 1064 -20 1064 -20 979 -20 c 0,11,12
 898 -20 898 -20 831 -5.5 c 128,-1,13
 764 9 764 9 705 35 c 1,14,15
 645 9 645 9 580 -5.5 c 128,-1,16
 515 -20 515 -20 441 -20 c 0,17,18
 381 -20 381 -20 331 -12 c 128,-1,19
 281 -4 281 -4 240.5 9 c 128,-1,20
 200 22 200 22 167.5 38.5 c 128,-1,21
 135 55 135 55 111 72 c 1,22,-1
 111 543 l 2,23,24
 111 571 111 571 111.5 609 c 128,-1,25
 112 647 112 647 119.5 689 c 128,-1,26
 127 731 127 731 144 773 c 128,-1,27
 161 815 161 815 195 852 c 0,28,29
 223 883 223 883 255.5 901 c 128,-1,30
 288 919 288 919 320.5 928 c 128,-1,31
 353 937 353 937 384 939.5 c 128,-1,32
 415 942 415 942 441 942 c 0,33,34
 475 942 475 942 508.5 937 c 128,-1,35
 542 932 542 932 575 919 c 128,-1,36
 608 906 608 906 640 885 c 128,-1,37
 672 864 672 864 703 831 c 1,38,39
 763 896 763 896 826 919 c 128,-1,40
 889 942 889 942 955 942 c 0,41,42
 980 942 980 942 1009.5 939.5 c 128,-1,43
 1039 937 1039 937 1069.5 928 c 128,-1,44
 1100 919 1100 919 1130.5 901 c 128,-1,45
 1161 883 1161 883 1188 852 c 0,46,47
 1220 815 1220 815 1237 773 c 128,-1,48
 1254 731 1254 731 1261.5 689 c 128,-1,49
 1269 647 1269 647 1269.5 609 c 128,-1,50
 1270 571 1270 571 1270 543 c 2,51,-1
 1270 424 l 1,52,-1
 770 424 l 1,0,-1
242 156 m 1,53,54
 288 124 288 124 342 113 c 128,-1,55
 396 102 396 102 441 102 c 256,56,57
 486 102 486 102 539.5 113 c 128,-1,58
 593 124 593 124 639 156 c 1,59,-1
 639 547 l 1,60,-1
 639 580 l 1,61,62
 637 622 637 622 630 668 c 128,-1,63
 623 714 623 714 598 750 c 0,64,65
 590 760 590 760 577.5 772 c 128,-1,66
 565 784 565 784 546.5 794.5 c 128,-1,67
 528 805 528 805 501.5 812 c 128,-1,68
 475 819 475 819 441 819 c 0,69,70
 406 819 406 819 380 812 c 128,-1,71
 354 805 354 805 335 794.5 c 128,-1,72
 316 784 316 784 303 772 c 128,-1,73
 290 760 290 760 283 750 c 0,74,75
 268 728 268 728 259.5 702 c 128,-1,76
 251 676 251 676 247 649 c 128,-1,77
 243 622 243 622 242.5 595.5 c 128,-1,78
 242 569 242 569 242 547 c 2,79,-1
 242 156 l 1,53,54
1129 547 m 1,80,81
 1129 569 1129 569 1128.5 595.5 c 128,-1,82
 1128 622 1128 622 1124.5 649 c 128,-1,83
 1121 676 1121 676 1113.5 702 c 128,-1,84
 1106 728 1106 728 1092 750 c 0,85,86
 1085 760 1085 760 1073.5 772 c 128,-1,87
 1062 784 1062 784 1045 794.5 c 128,-1,88
 1028 805 1028 805 1004 812 c 128,-1,89
 980 819 980 819 949 819 c 256,90,91
 918 819 918 819 894.5 812 c 128,-1,92
 871 805 871 805 854 794.5 c 128,-1,93
 837 784 837 784 825 772 c 128,-1,94
 813 760 813 760 805 750 c 1,95,96
 792 728 792 728 785 702 c 128,-1,97
 778 676 778 676 774.5 649 c 128,-1,98
 771 622 771 622 770.5 595.5 c 128,-1,99
 770 569 770 569 770 547 c 1,100,-1
 1129 547 l 1,80,81
EndSplineSet
EndChar

StartChar: exclamdown
Encoding: 161 161 125
Width: 403
Flags: W
HStem: 750 172<113 285>
VStem: 113 172<750 922> 128 143<-254.805 588>
LayerCount: 2
Fore
SplineSet
128 -340 m 1,0,-1
 128 588 l 1,1,-1
 271 588 l 1,2,-1
 271 -209 l 1,3,-1
 312 -340 l 1,4,-1
 128 -340 l 1,0,-1
113 750 m 1,5,-1
 113 922 l 1,6,-1
 285 922 l 1,7,-1
 285 750 l 1,8,-1
 113 750 l 1,5,-1
EndSplineSet
EndChar

StartChar: cent
Encoding: 162 162 126
Width: 766
Flags: W
HStem: -209 311<383.09 513.129> 819 121<514 635.78>
VStem: 129 131<209 749.375> 383 131<-209 -13.5 940 1108>
LayerCount: 2
Fore
SplineSet
383 -209 m 1,0,-1
 383 -14 l 1,1,2
 323 -7 323 -7 273.5 8.5 c 128,-1,3
 224 24 224 24 183.5 43.5 c 128,-1,4
 143 63 143 63 112 84.5 c 128,-1,5
 81 106 81 106 59 125 c 1,6,-1
 129 209 l 1,7,-1
 129 543 l 2,8,9
 129 571 129 571 129.5 609 c 128,-1,10
 130 647 130 647 137.5 689 c 128,-1,11
 145 731 145 731 163.5 773 c 128,-1,12
 182 815 182 815 217 852 c 0,13,14
 254 890 254 890 296.5 909 c 128,-1,15
 339 928 339 928 383 934 c 1,16,-1
 383 1108 l 1,17,-1
 514 1108 l 1,18,-1
 514 940 l 1,19,20
 557 938 557 938 595.5 930.5 c 128,-1,21
 634 923 634 923 671 913 c 1,22,-1
 637 795 l 1,23,24
 598 806 598 806 554 812.5 c 128,-1,25
 510 819 510 819 473 819 c 256,26,27
 436 819 436 819 408 812 c 128,-1,28
 380 805 380 805 359.5 794.5 c 128,-1,29
 339 784 339 784 325.5 772 c 128,-1,30
 312 760 312 760 305 750 c 0,31,32
 288 728 288 728 279 701.5 c 128,-1,33
 270 675 270 675 265.5 647 c 128,-1,34
 261 619 261 619 260.5 592 c 128,-1,35
 260 565 260 565 260 543 c 2,36,-1
 260 156 l 1,37,38
 311 128 311 128 362 115 c 128,-1,39
 413 102 413 102 473 102 c 0,40,41
 530 102 530 102 580.5 112.5 c 128,-1,42
 631 123 631 123 682 147 c 1,43,-1
 682 18 l 1,44,45
 601 -12 601 -12 514 -18 c 1,46,-1
 514 -209 l 1,47,-1
 383 -209 l 1,0,-1
EndSplineSet
EndChar

StartChar: sterling
Encoding: 163 163 127
Width: 868
Flags: W
HStem: 0 131<310 757> 662 131<102 167 310 579> 1151 131<409.467 743.296>
VStem: 167 143<131 662 793 1043.13>
LayerCount: 2
Fore
SplineSet
61 793 m 1,0,-1
 167 793 l 1,1,2
 167 893 167 893 184.5 982 c 128,-1,3
 202 1071 202 1071 246.5 1138 c 128,-1,4
 291 1205 291 1205 366.5 1243.5 c 128,-1,5
 442 1282 442 1282 558 1282 c 0,6,7
 632 1282 632 1282 689.5 1268 c 128,-1,8
 747 1254 747 1254 804 1223 c 1,9,-1
 753 1102 l 1,10,11
 700 1128 700 1128 651.5 1139.5 c 128,-1,12
 603 1151 603 1151 562 1151 c 0,13,14
 481 1151 481 1151 431.5 1122.5 c 128,-1,15
 382 1094 382 1094 355 1045 c 128,-1,16
 328 996 328 996 319 931 c 128,-1,17
 310 866 310 866 310 793 c 1,18,-1
 579 793 l 1,19,-1
 579 662 l 1,20,-1
 310 662 l 1,21,-1
 310 131 l 1,22,-1
 757 131 l 1,23,-1
 800 0 l 1,24,-1
 167 0 l 1,25,-1
 167 662 l 1,26,-1
 102 662 l 1,27,-1
 61 793 l 1,0,-1
EndSplineSet
EndChar

StartChar: currency
Encoding: 164 164 128
Width: 1186
Flags: W
HStem: 373 129<449.106 735.471> 1020 131<447.596 738.98> 1250 20G<155 195 991 1031>
VStem: 204 129<617.812 906.125> 851 129<617.812 908.107>
LayerCount: 2
Fore
SplineSet
980 762 m 256,0,1
 980 700 980 700 963 645 c 128,-1,2
 946 590 946 590 911 539 c 1,3,-1
 1103 346 l 1,4,-1
 1011 254 l 1,5,-1
 820 444 l 1,6,7
 769 407 769 407 712.5 390 c 128,-1,8
 656 373 656 373 593 373 c 256,9,10
 530 373 530 373 473.5 390 c 128,-1,11
 417 407 417 407 366 444 c 1,12,-1
 175 254 l 1,13,-1
 83 346 l 1,14,-1
 276 539 l 1,15,16
 241 590 241 590 222.5 645 c 128,-1,17
 204 700 204 700 204 762 c 256,18,19
 204 824 204 824 222.5 879 c 128,-1,20
 241 934 241 934 276 985 c 1,21,-1
 83 1178 l 1,22,-1
 175 1270 l 1,23,-1
 366 1079 l 1,24,25
 417 1116 417 1116 473.5 1133.5 c 128,-1,26
 530 1151 530 1151 593 1151 c 256,27,28
 656 1151 656 1151 712.5 1133.5 c 128,-1,29
 769 1116 769 1116 820 1079 c 1,30,-1
 1011 1270 l 1,31,-1
 1103 1178 l 1,32,-1
 911 985 l 1,33,34
 946 934 946 934 963 879 c 128,-1,35
 980 824 980 824 980 762 c 256,0,1
333 762 m 256,36,37
 333 709 333 709 353.5 662 c 128,-1,38
 374 615 374 615 409.5 579.5 c 128,-1,39
 445 544 445 544 492 523 c 128,-1,40
 539 502 539 502 593 502 c 0,41,42
 646 502 646 502 693 523 c 128,-1,43
 740 544 740 544 775 579.5 c 128,-1,44
 810 615 810 615 830.5 662 c 128,-1,45
 851 709 851 709 851 762 c 0,46,47
 851 816 851 816 831 863 c 128,-1,48
 811 910 811 910 776 945 c 128,-1,49
 741 980 741 980 694 1000 c 128,-1,50
 647 1020 647 1020 593 1020 c 256,51,52
 539 1020 539 1020 492 999.5 c 128,-1,53
 445 979 445 979 409.5 944 c 128,-1,54
 374 909 374 909 353.5 862 c 128,-1,55
 333 815 333 815 333 762 c 256,36,37
EndSplineSet
EndChar

StartChar: yen
Encoding: 165 165 129
Width: 861
Flags: W
HStem: 0 21G<359 502> 199 110<197 359 502 668> 410 110<197 359 502 668> 1262 20G<75 208.063 652.937 786>
VStem: 359 143<0 199 309 410 520 671.691>
LayerCount: 2
Fore
SplineSet
197 520 m 1,0,-1
 359 520 l 1,1,-1
 359 659 l 1,2,3
 344 662 344 662 325 668 c 128,-1,4
 306 674 306 674 285.5 684 c 128,-1,5
 265 694 265 694 244 710 c 128,-1,6
 223 726 223 726 203 750 c 0,7,8
 178 779 178 779 159 820 c 128,-1,9
 140 861 140 861 124 921.5 c 128,-1,10
 108 982 108 982 93.5 1065 c 128,-1,11
 79 1148 79 1148 62 1260 c 1,12,-1
 205 1282 l 1,13,-1
 222 1171 l 2,14,15
 234 1089 234 1089 245 1033 c 128,-1,16
 256 977 256 977 266.5 940 c 128,-1,17
 277 903 277 903 288.5 881 c 128,-1,18
 300 859 300 859 312 844 c 0,19,20
 340 812 340 812 372.5 802.5 c 128,-1,21
 405 793 405 793 431 793 c 256,22,23
 457 793 457 793 489 802.5 c 128,-1,24
 521 812 521 812 549 844 c 0,25,26
 561 859 561 859 572.5 881 c 128,-1,27
 584 903 584 903 594.5 940 c 128,-1,28
 605 977 605 977 616 1033 c 128,-1,29
 627 1089 627 1089 639 1171 c 2,30,-1
 656 1282 l 1,31,-1
 799 1260 l 1,32,33
 782 1148 782 1148 767.5 1065 c 128,-1,34
 753 982 753 982 737 921.5 c 128,-1,35
 721 861 721 861 702 820 c 128,-1,36
 683 779 683 779 658 750 c 0,37,38
 638 726 638 726 617 710 c 128,-1,39
 596 694 596 694 575.5 684 c 128,-1,40
 555 674 555 674 536 668 c 128,-1,41
 517 662 517 662 502 659 c 1,42,-1
 502 520 l 1,43,-1
 668 520 l 1,44,-1
 668 410 l 1,45,-1
 502 410 l 1,46,-1
 502 309 l 1,47,-1
 668 309 l 1,48,-1
 668 199 l 1,49,-1
 502 199 l 1,50,-1
 502 0 l 1,51,-1
 359 0 l 1,52,-1
 359 199 l 1,53,-1
 197 199 l 1,54,-1
 197 309 l 1,55,-1
 359 309 l 1,56,-1
 359 410 l 1,57,-1
 197 410 l 1,58,-1
 197 520 l 1,0,-1
EndSplineSet
EndChar

StartChar: brokenbar
Encoding: 166 166 130
Width: 402
Flags: W
HStem: -432 21G<136 267> 1321 20G<136 267>
VStem: 136 131<-432 246 662 1341>
LayerCount: 2
Fore
SplineSet
136 246 m 1,0,-1
 267 246 l 1,1,-1
 267 -432 l 1,2,-1
 136 -432 l 1,3,-1
 136 246 l 1,0,-1
267 662 m 1,4,-1
 136 662 l 1,5,-1
 136 1341 l 1,6,-1
 267 1341 l 1,7,-1
 267 662 l 1,4,-1
EndSplineSet
EndChar

StartChar: section
Encoding: 167 167 131
Width: 830
Flags: W
HStem: -74 123<140.594 543.678> 336 123<339.088 561> 807 123<270 491.94> 1217 122<287.531 688.813>
VStem: 139 131<529.893 805.852 926 1110> 561 131<156 340 460.232 736.673>
LayerCount: 2
Fore
SplineSet
488 336 m 0,0,1
 460 336 460 336 427 338.5 c 128,-1,2
 394 341 394 341 359.5 350 c 128,-1,3
 325 359 325 359 291 377 c 128,-1,4
 257 395 257 395 227 426 c 0,5,6
 192 463 192 463 173.5 505 c 128,-1,7
 155 547 155 547 147.5 588.5 c 128,-1,8
 140 630 140 630 139.5 668 c 128,-1,9
 139 706 139 706 139 735 c 2,10,-1
 139 1110 l 1,11,-1
 70 1194 l 1,12,13
 96 1216 96 1216 133.5 1241.5 c 128,-1,14
 171 1267 171 1267 222 1288.5 c 128,-1,15
 273 1310 273 1310 337.5 1324.5 c 128,-1,16
 402 1339 402 1339 481 1339 c 0,17,18
 540 1339 540 1339 591.5 1329.5 c 128,-1,19
 643 1320 643 1320 692 1300 c 1,20,-1
 692 1171 l 1,21,22
 641 1196 641 1196 590.5 1206.5 c 128,-1,23
 540 1217 540 1217 483 1217 c 0,24,25
 423 1217 423 1217 372 1204 c 128,-1,26
 321 1191 321 1191 270 1163 c 1,27,-1
 270 926 l 1,28,29
 287 928 287 928 305.5 929 c 128,-1,30
 324 930 324 930 344 930 c 0,31,32
 372 930 372 930 404.5 927.5 c 128,-1,33
 437 925 437 925 471.5 916 c 128,-1,34
 506 907 506 907 540 889 c 128,-1,35
 574 871 574 871 604 840 c 0,36,37
 640 803 640 803 658 760.5 c 128,-1,38
 676 718 676 718 683.5 676.5 c 128,-1,39
 691 635 691 635 691.5 596.5 c 128,-1,40
 692 558 692 558 692 530 c 2,41,-1
 692 156 l 1,42,-1
 762 72 l 1,43,44
 736 49 736 49 698 23.5 c 128,-1,45
 660 -2 660 -2 609 -23.5 c 128,-1,46
 558 -45 558 -45 493.5 -59.5 c 128,-1,47
 429 -74 429 -74 350 -74 c 0,48,49
 292 -74 292 -74 240.5 -64.5 c 128,-1,50
 189 -55 189 -55 139 -35 c 1,51,-1
 139 94 l 1,52,53
 190 69 190 69 240.5 59 c 128,-1,54
 291 49 291 49 348 49 c 0,55,56
 408 49 408 49 459 62 c 128,-1,57
 510 75 510 75 561 102 c 1,58,-1
 561 340 l 1,59,60
 543 337 543 337 524.5 336.5 c 128,-1,61
 506 336 506 336 488 336 c 0,0,1
316 528 m 0,62,63
 323 518 323 518 336.5 506 c 128,-1,64
 350 494 350 494 370 483.5 c 128,-1,65
 390 473 390 473 418 466 c 128,-1,66
 446 459 446 459 483 459 c 0,67,68
 519 459 519 459 561 465 c 1,69,-1
 561 530 l 2,70,71
 561 552 561 552 560.5 579.5 c 128,-1,72
 560 607 560 607 555.5 634.5 c 128,-1,73
 551 662 551 662 542 689 c 128,-1,74
 533 716 533 716 516 737 c 0,75,76
 508 747 508 747 495 759.5 c 128,-1,77
 482 772 482 772 461.5 782.5 c 128,-1,78
 441 793 441 793 413 800 c 128,-1,79
 385 807 385 807 348 807 c 0,80,81
 310 807 310 807 270 801 c 1,82,-1
 270 735 l 2,83,84
 270 713 270 713 270.5 686 c 128,-1,85
 271 659 271 659 275.5 631 c 128,-1,86
 280 603 280 603 289.5 576.5 c 128,-1,87
 299 550 299 550 316 528 c 0,62,63
EndSplineSet
EndChar

StartChar: dieresis
Encoding: 168 168 132
Width: 582
Flags: W
HStem: 1108 154<82 229 352 500>
VStem: 82 147<1108 1262> 352 148<1108 1262>
LayerCount: 2
Fore
SplineSet
229 1262 m 1,0,-1
 229 1108 l 1,1,-1
 82 1108 l 1,2,-1
 82 1262 l 1,3,-1
 229 1262 l 1,0,-1
500 1262 m 1,4,-1
 500 1108 l 1,5,-1
 352 1108 l 1,6,-1
 352 1262 l 1,7,-1
 500 1262 l 1,4,-1
EndSplineSet
EndChar

StartChar: copyright
Encoding: 169 169 133
Width: 1245
Flags: W
HStem: -20 92<343.877 893.278> 233 101<492.312 833.688> 918 100<538.909 797.03> 1190 92<346.365 890.785>
VStem: 135 88<151.457 1109.54> 385 106<420 869.807> 1013 97<151.171 1109.87>
LayerCount: 2
Fore
SplineSet
798 897 m 1,0,1
 767 906 767 906 730.5 912 c 128,-1,2
 694 918 694 918 665 918 c 0,3,4
 635 918 635 918 612 912 c 128,-1,5
 589 906 589 906 572.5 897.5 c 128,-1,6
 556 889 556 889 545 879 c 128,-1,7
 534 869 534 869 528 860 c 1,8,9
 514 843 514 843 506.5 821.5 c 128,-1,10
 499 800 499 800 495.5 777.5 c 128,-1,11
 492 755 492 755 491.5 732.5 c 128,-1,12
 491 710 491 710 491 692 c 2,13,-1
 491 377 l 1,14,15
 533 354 533 354 574.5 344 c 128,-1,16
 616 334 616 334 665 334 c 0,17,18
 712 334 712 334 752.5 342.5 c 128,-1,19
 793 351 793 351 835 371 c 1,20,-1
 835 264 l 1,21,22
 795 249 795 249 753 241 c 128,-1,23
 711 233 711 233 663 233 c 0,24,25
 598 233 598 233 546 244.5 c 128,-1,26
 494 256 494 256 452.5 274 c 128,-1,27
 411 292 411 292 380 313 c 128,-1,28
 349 334 349 334 327 352 c 1,29,-1
 385 420 l 1,30,-1
 385 692 l 2,31,32
 385 715 385 715 385.5 746 c 128,-1,33
 386 777 386 777 392 811 c 128,-1,34
 398 845 398 845 412.5 879.5 c 128,-1,35
 427 914 427 914 456 944 c 0,36,37
 481 969 481 969 508.5 984 c 128,-1,38
 536 999 536 999 564 1006.5 c 128,-1,39
 592 1014 592 1014 618.5 1016 c 128,-1,40
 645 1018 645 1018 667 1018 c 0,41,42
 712 1018 712 1018 751 1011.5 c 128,-1,43
 790 1005 790 1005 827 995 c 1,44,-1
 798 897 l 1,0,1
1110 127 m 1,45,46
 1080 106 1080 106 1033 80 c 128,-1,47
 986 54 986 54 924.5 32 c 128,-1,48
 863 10 863 10 786.5 -5 c 128,-1,49
 710 -20 710 -20 622 -20 c 256,50,51
 534 -20 534 -20 458 -5 c 128,-1,52
 382 10 382 10 320.5 32 c 128,-1,53
 259 54 259 54 212 80 c 128,-1,54
 165 106 165 106 135 127 c 1,55,-1
 135 1135 l 1,56,57
 165 1156 165 1156 212 1182 c 128,-1,58
 259 1208 259 1208 320.5 1230 c 128,-1,59
 382 1252 382 1252 458 1267 c 128,-1,60
 534 1282 534 1282 622 1282 c 256,61,62
 710 1282 710 1282 786.5 1267 c 128,-1,63
 863 1252 863 1252 924.5 1230 c 128,-1,64
 986 1208 986 1208 1033 1182 c 128,-1,65
 1080 1156 1080 1156 1110 1135 c 1,66,-1
 1110 127 l 1,45,46
1013 1083 m 1,67,68
 941 1134 941 1134 838.5 1162 c 128,-1,69
 736 1190 736 1190 618 1190 c 0,70,71
 561 1190 561 1190 505.5 1183 c 128,-1,72
 450 1176 450 1176 399 1162 c 128,-1,73
 348 1148 348 1148 303.5 1128 c 128,-1,74
 259 1108 259 1108 223 1083 c 1,75,-1
 223 178 l 1,76,77
 259 153 259 153 303.5 133 c 128,-1,78
 348 113 348 113 399 99.5 c 128,-1,79
 450 86 450 86 505.5 79 c 128,-1,80
 561 72 561 72 618 72 c 0,81,82
 736 72 736 72 838.5 99.5 c 128,-1,83
 941 127 941 127 1013 178 c 1,84,-1
 1013 1083 l 1,67,68
EndSplineSet
EndChar

StartChar: ordfeminine
Encoding: 170 170 134
Width: 591
Flags: W
HStem: 668 112<191.952 363.406> 966.5 98.5<200.473 364> 1178 104<172 327.861>
VStem: 71 111<790.738 942.834> 364 117<784 969>
LayerCount: 2
Fore
SplineSet
172 1282 m 1,0,1
 226 1282 226 1282 281.5 1272.5 c 128,-1,2
 337 1263 337 1263 381 1238 c 128,-1,3
 425 1213 425 1213 453 1168 c 128,-1,4
 481 1123 481 1123 481 1053 c 2,5,-1
 481 784 l 1,6,-1
 514 731 l 1,7,8
 454 696 454 696 396.5 682 c 128,-1,9
 339 668 339 668 288 668 c 0,10,11
 223 668 223 668 184.5 684 c 128,-1,12
 146 700 146 700 124 723 c 1,13,14
 101 745 101 745 86 779 c 128,-1,15
 71 813 71 813 71 856 c 0,16,17
 71 923 71 923 96.5 965.5 c 128,-1,18
 122 1008 122 1008 163.5 1032 c 128,-1,19
 205 1056 205 1056 257.5 1065 c 128,-1,20
 310 1074 310 1074 364 1075 c 1,21,22
 360 1104 360 1104 339.5 1123.5 c 128,-1,23
 319 1143 319 1143 290 1155 c 128,-1,24
 261 1167 261 1167 226.5 1172 c 128,-1,25
 192 1177 192 1177 161 1178 c 1,26,-1
 172 1282 l 1,0,1
364 969 m 1,27,28
 340 969 340 969 309 966.5 c 128,-1,29
 278 964 278 964 249.5 953.5 c 128,-1,30
 221 943 221 943 201.5 923 c 128,-1,31
 182 903 182 903 182 868 c 0,32,33
 182 847 182 847 188.5 831.5 c 128,-1,34
 195 816 195 816 204 807 c 0,35,36
 220 791 220 791 240 785.5 c 128,-1,37
 260 780 260 780 282 780 c 0,38,39
 307 780 307 780 326 785 c 128,-1,40
 345 790 345 790 364 797 c 1,41,-1
 364 969 l 1,27,28
EndSplineSet
EndChar

StartChar: guillemotleft
Encoding: 171 171 135
Width: 686
Flags: W
HStem: 246 676
VStem: 95 526
LayerCount: 2
Fore
SplineSet
95 649 m 1,0,-1
 367 922 l 1,1,-1
 461 827 l 1,2,-1
 218 584 l 1,3,-1
 461 340 l 1,4,-1
 367 246 l 1,5,-1
 95 518 l 1,6,-1
 95 649 l 1,0,-1
349 584 m 1,7,-1
 527 762 l 1,8,-1
 621 668 l 1,9,-1
 537 584 l 1,10,-1
 621 500 l 1,11,-1
 527 406 l 1,12,-1
 349 584 l 1,7,-1
EndSplineSet
EndChar

StartChar: logicalnot
Encoding: 172 172 136
Width: 850
Flags: W
HStem: 823 131<75 601>
VStem: 601 127<614 823>
LayerCount: 2
Fore
SplineSet
75 954 m 1,0,-1
 728 954 l 1,1,-1
 728 614 l 1,2,-1
 601 614 l 1,3,-1
 601 823 l 1,4,-1
 75 823 l 1,5,-1
 75 954 l 1,0,-1
EndSplineSet
EndChar

StartChar: uni00AD
Encoding: 173 173 137
Width: 804
Flags: W
HStem: 434 144<113 691>
VStem: 113 578<434 578>
LayerCount: 2
Fore
SplineSet
113 578 m 1,0,-1
 691 578 l 1,1,-1
 691 434 l 1,2,-1
 113 434 l 1,3,-1
 113 578 l 1,0,-1
EndSplineSet
EndChar

StartChar: registered
Encoding: 174 174 138
Width: 1245
Flags: W
HStem: -20 92<343.877 893.278> 623 100<512 594 710 725> 918 100<512.864 691.71> 1190 92<346.365 890.785>
VStem: 135 88<151.457 1109.54> 405 107<246 623 723 893> 725 106<723 876.226> 1013 97<151.171 1109.87>
LayerCount: 2
Fore
SplineSet
1110 127 m 1,0,1
 1080 106 1080 106 1033 80 c 128,-1,2
 986 54 986 54 924.5 32 c 128,-1,3
 863 10 863 10 786.5 -5 c 128,-1,4
 710 -20 710 -20 622 -20 c 256,5,6
 534 -20 534 -20 458 -5 c 128,-1,7
 382 10 382 10 320.5 32 c 128,-1,8
 259 54 259 54 212 80 c 128,-1,9
 165 106 165 106 135 127 c 1,10,-1
 135 1135 l 1,11,12
 165 1156 165 1156 212 1182 c 128,-1,13
 259 1208 259 1208 320.5 1230 c 128,-1,14
 382 1252 382 1252 458 1267 c 128,-1,15
 534 1282 534 1282 622 1282 c 256,16,17
 710 1282 710 1282 786.5 1267 c 128,-1,18
 863 1252 863 1252 924.5 1230 c 128,-1,19
 986 1208 986 1208 1033 1182 c 128,-1,20
 1080 1156 1080 1156 1110 1135 c 1,21,-1
 1110 127 l 1,0,1
1013 1083 m 1,22,23
 941 1134 941 1134 838.5 1162 c 128,-1,24
 736 1190 736 1190 618 1190 c 0,25,26
 561 1190 561 1190 505.5 1183 c 128,-1,27
 450 1176 450 1176 399 1162 c 128,-1,28
 348 1148 348 1148 303.5 1128 c 128,-1,29
 259 1108 259 1108 223 1083 c 1,30,-1
 223 178 l 1,31,32
 259 153 259 153 303.5 133 c 128,-1,33
 348 113 348 113 399 99.5 c 128,-1,34
 450 86 450 86 505.5 79 c 128,-1,35
 561 72 561 72 618 72 c 0,36,37
 736 72 736 72 838.5 99.5 c 128,-1,38
 941 127 941 127 1013 178 c 1,39,-1
 1013 1083 l 1,22,23
370 969 m 1,40,41
 423 990 423 990 480.5 1004 c 128,-1,42
 538 1018 538 1018 594 1018 c 0,43,44
 652 1018 652 1018 693.5 1003.5 c 128,-1,45
 735 989 735 989 766 963 c 1,46,47
 788 943 788 943 801 921 c 128,-1,48
 814 899 814 899 820.5 876.5 c 128,-1,49
 827 854 827 854 829 830.5 c 128,-1,50
 831 807 831 807 831 784 c 2,51,-1
 831 623 l 1,52,-1
 710 623 l 1,53,-1
 868 276 l 1,54,-1
 772 233 l 1,55,-1
 594 623 l 1,56,-1
 512 623 l 1,57,-1
 512 246 l 1,58,-1
 405 246 l 1,59,-1
 405 893 l 1,60,-1
 370 969 l 1,40,41
512 723 m 1,61,-1
 725 723 l 1,62,-1
 725 762 l 2,63,64
 725 837 725 837 691 877.5 c 128,-1,65
 657 918 657 918 585 918 c 0,66,67
 544 918 544 918 512 905 c 1,68,-1
 512 723 l 1,61,-1
EndSplineSet
EndChar

StartChar: macron
Encoding: 175 175 139
Width: 680
Flags: W
HStem: 1135 127<82 598>
VStem: 82 516<1135 1262>
LayerCount: 2
Fore
SplineSet
82 1262 m 1,0,-1
 598 1262 l 1,1,-1
 598 1135 l 1,2,-1
 82 1135 l 1,3,-1
 82 1262 l 1,0,-1
EndSplineSet
EndChar

StartChar: degree
Encoding: 176 176 140
Width: 529
Flags: W
HStem: 963 114<197.635 325.704> 1229 112<196.943 325.382>
VStem: 75 111<1090.52 1215.37> 337 117<1090.2 1214.79>
LayerCount: 2
Fore
SplineSet
454 1151 m 0,0,1
 454 1113 454 1113 444 1078.5 c 128,-1,2
 434 1044 434 1044 411.5 1018.5 c 128,-1,3
 389 993 389 993 352.5 978 c 128,-1,4
 316 963 316 963 263 963 c 0,5,6
 177 963 177 963 126 1010 c 128,-1,7
 75 1057 75 1057 75 1151 c 0,8,9
 75 1191 75 1191 84.5 1225.5 c 128,-1,10
 94 1260 94 1260 115.5 1285.5 c 128,-1,11
 137 1311 137 1311 173 1326 c 128,-1,12
 209 1341 209 1341 263 1341 c 0,13,14
 356 1341 356 1341 405 1294 c 128,-1,15
 454 1247 454 1247 454 1151 c 0,0,1
186 1153 m 0,16,17
 186 1119 186 1119 202.5 1098 c 128,-1,18
 219 1077 219 1077 261 1077 c 256,19,20
 303 1077 303 1077 320 1098 c 128,-1,21
 337 1119 337 1119 337 1153 c 0,22,23
 337 1185 337 1185 320 1207 c 128,-1,24
 303 1229 303 1229 261 1229 c 256,25,26
 219 1229 219 1229 202.5 1207 c 128,-1,27
 186 1185 186 1185 186 1153 c 0,16,17
EndSplineSet
EndChar

StartChar: plusminus
Encoding: 177 177 141
Width: 928
Flags: W
HStem: 193 131<117 811> 662 131<117 395 533 811>
VStem: 395 138<444 662 793 1092>
LayerCount: 2
Fore
SplineSet
117 793 m 1,0,-1
 395 793 l 1,1,-1
 395 1092 l 1,2,-1
 533 1092 l 1,3,-1
 533 793 l 1,4,-1
 811 793 l 1,5,-1
 811 662 l 1,6,-1
 533 662 l 1,7,-1
 533 444 l 1,8,-1
 395 444 l 1,9,-1
 395 662 l 1,10,-1
 117 662 l 1,11,-1
 117 793 l 1,0,-1
117 324 m 1,12,-1
 811 324 l 1,13,-1
 811 193 l 1,14,-1
 117 193 l 1,15,-1
 117 324 l 1,12,-1
EndSplineSet
EndChar

StartChar: twosuperior
Encoding: 178 178 142
Width: 508
Flags: W
HStem: 688 113<261 411> 1169 113<124.78 260.918>
VStem: 280 131<999.308 1158.13>
LayerCount: 2
Fore
SplineSet
208 1169 m 0,0,1
 188 1169 188 1169 168.5 1164.5 c 128,-1,2
 149 1160 149 1160 124 1149 c 1,3,-1
 87 1245 l 1,4,5
 119 1264 119 1264 156 1273 c 128,-1,6
 193 1282 193 1282 228 1282 c 0,7,8
 312 1282 312 1282 356 1239 c 128,-1,9
 400 1196 400 1196 400 1120 c 0,10,11
 400 1078 400 1078 385.5 1042 c 128,-1,12
 371 1006 371 1006 351 969 c 2,13,-1
 261 801 l 1,14,-1
 411 801 l 1,15,-1
 411 688 l 1,16,-1
 75 688 l 1,17,-1
 257 1038 l 2,18,19
 266 1057 266 1057 273 1073 c 128,-1,20
 280 1089 280 1089 280 1108 c 0,21,22
 280 1136 280 1136 261.5 1152.5 c 128,-1,23
 243 1169 243 1169 208 1169 c 0,0,1
EndSplineSet
EndChar

StartChar: threesuperior
Encoding: 179 179 143
Width: 477
Flags: W
HStem: 1149 113<87 218>
VStem: 281 117<831.385 951.826>
LayerCount: 2
Fore
SplineSet
87 1149 m 1,0,-1
 87 1262 l 1,1,-1
 394 1262 l 1,2,-1
 288 1063 l 1,3,4
 312 1056 312 1056 332 1044.5 c 128,-1,5
 352 1033 352 1033 366.5 1015.5 c 128,-1,6
 381 998 381 998 389.5 973 c 128,-1,7
 398 948 398 948 398 915 c 0,8,9
 398 862 398 862 376 823 c 128,-1,10
 354 784 354 784 317 755 c 128,-1,11
 280 726 280 726 233 705 c 128,-1,12
 186 684 186 684 136 668 c 1,13,-1
 95 770 l 1,14,15
 133 780 133 780 167 793.5 c 128,-1,16
 201 807 201 807 226.5 824 c 128,-1,17
 252 841 252 841 266.5 862 c 128,-1,18
 281 883 281 883 281 907 c 0,19,20
 281 929 281 929 267.5 945 c 128,-1,21
 254 961 254 961 214 961 c 2,22,-1
 120 961 l 1,23,-1
 218 1149 l 1,24,-1
 87 1149 l 1,0,-1
EndSplineSet
EndChar

StartChar: acute
Encoding: 180 180 144
Width: 475
Flags: W
HStem: 1032 309
VStem: 82 311
LayerCount: 2
Fore
SplineSet
393 1247 m 1,0,-1
 176 1032 l 1,1,-1
 82 1126 l 1,2,-1
 299 1341 l 1,3,-1
 393 1247 l 1,0,-1
EndSplineSet
EndChar

StartChar: mu
Encoding: 181 181 145
AltUni2: 0003bc.ffffffff.0
Width: 919
Flags: W
HStem: -432 21G<141 272> -20 122<348.75 668.936> 902 20G<141 272 670 801>
VStem: 141 131<-432 33 177.643 922> 670 131<174 922>
LayerCount: 2
Fore
SplineSet
141 506 m 1,0,-1
 141 922 l 1,1,-1
 272 922 l 1,2,-1
 272 502 l 2,3,4
 272 434 272 434 273.5 383.5 c 128,-1,5
 275 333 275 333 279 295.5 c 128,-1,6
 283 258 283 258 290.5 231.5 c 128,-1,7
 298 205 298 205 311 186 c 0,8,9
 320 172 320 172 335.5 157.5 c 128,-1,10
 351 143 351 143 374 130.5 c 128,-1,11
 397 118 397 118 429.5 110 c 128,-1,12
 462 102 462 102 506 102 c 0,13,14
 555 102 555 102 595.5 110.5 c 128,-1,15
 636 119 636 119 670 133 c 1,16,-1
 670 922 l 1,17,-1
 801 922 l 1,18,-1
 801 174 l 1,19,-1
 850 74 l 1,20,21
 823 58 823 58 787.5 41 c 128,-1,22
 752 24 752 24 707.5 10.5 c 128,-1,23
 663 -3 663 -3 610 -11.5 c 128,-1,24
 557 -20 557 -20 496 -20 c 0,25,26
 470 -20 470 -20 442 -18 c 128,-1,27
 414 -16 414 -16 385 -10 c 128,-1,28
 356 -4 356 -4 327 6.5 c 128,-1,29
 298 17 298 17 272 33 c 1,30,-1
 272 -432 l 1,31,-1
 141 -432 l 1,32,-1
 141 461 l 1,33,-1
 141 506 l 1,0,-1
EndSplineSet
EndChar

StartChar: paragraph
Encoding: 182 182 146
Width: 940
Flags: W
HStem: 1210 131<490 629 773 855>
VStem: 76 414<666.79 1209.83> 349 141<-215 588> 629 144<-215 1210>
LayerCount: 2
Fore
SplineSet
308 588 m 2,0,1
 290 588 290 588 268 589.5 c 128,-1,2
 246 591 246 591 223 597.5 c 128,-1,3
 200 604 200 604 177.5 616.5 c 128,-1,4
 155 629 155 629 134 651 c 0,5,6
 110 677 110 677 98 707 c 128,-1,7
 86 737 86 737 81 766.5 c 128,-1,8
 76 796 76 796 76 822.5 c 128,-1,9
 76 849 76 849 76 868 c 2,10,-1
 76 1061 l 2,11,12
 76 1080 76 1080 76 1106.5 c 128,-1,13
 76 1133 76 1133 81 1162.5 c 128,-1,14
 86 1192 86 1192 98 1222 c 128,-1,15
 110 1252 110 1252 134 1278 c 0,16,17
 155 1300 155 1300 177.5 1312.5 c 128,-1,18
 200 1325 200 1325 223 1331.5 c 128,-1,19
 246 1338 246 1338 268 1339.5 c 128,-1,20
 290 1341 290 1341 308 1341 c 2,21,-1
 855 1341 l 1,22,-1
 855 1210 l 1,23,-1
 773 1210 l 1,24,-1
 773 -215 l 1,25,-1
 629 -215 l 1,26,-1
 629 1210 l 1,27,-1
 490 1210 l 1,28,-1
 490 -215 l 1,29,-1
 349 -215 l 1,30,-1
 349 588 l 1,31,-1
 308 588 l 2,0,1
EndSplineSet
EndChar

StartChar: periodcentered
Encoding: 183 183 147
Width: 401
Flags: W
HStem: 537 172<115 287>
VStem: 115 172<537 709>
LayerCount: 2
Fore
SplineSet
287 709 m 1,0,-1
 287 537 l 1,1,-1
 115 537 l 1,2,-1
 115 709 l 1,3,-1
 287 709 l 1,0,-1
EndSplineSet
EndChar

StartChar: cedilla
Encoding: 184 184 148
Width: 563
Flags: W
HStem: -354 100<93.1443 355.96> -158 158<170 292.909> -158 97<293 335.885>
VStem: 170 123<-61 0> 356 125<-251.438 -166.196>
LayerCount: 2
Fore
SplineSet
170 -158 m 1,0,-1
 170 0 l 1,1,-1
 293 0 l 1,2,-1
 293 -61 l 1,3,-1
 301 -61 l 2,4,5
 386 -61 386 -61 433.5 -97 c 128,-1,6
 481 -133 481 -133 481 -207 c 0,7,8
 481 -248 481 -248 464 -276.5 c 128,-1,9
 447 -305 447 -305 419 -322 c 128,-1,10
 391 -339 391 -339 355 -346.5 c 128,-1,11
 319 -354 319 -354 281 -354 c 0,12,13
 222 -354 222 -354 171 -343 c 128,-1,14
 120 -332 120 -332 82 -315 c 1,15,-1
 82 -205 l 1,16,17
 133 -226 133 -226 183 -240 c 128,-1,18
 233 -254 233 -254 281 -254 c 0,19,20
 295 -254 295 -254 308.5 -252 c 128,-1,21
 322 -250 322 -250 332.5 -244.5 c 128,-1,22
 343 -239 343 -239 349.5 -230 c 128,-1,23
 356 -221 356 -221 356 -207 c 0,24,25
 356 -181 356 -181 336.5 -169.5 c 128,-1,26
 317 -158 317 -158 276 -158 c 2,27,-1
 170 -158 l 1,0,-1
EndSplineSet
EndChar

StartChar: onesuperior
Encoding: 185 185 149
Width: 356
Flags: W
HStem: 688 574<123 240>
VStem: 123 117<688 1172.67>
LayerCount: 2
Fore
SplineSet
240 1262 m 1,0,-1
 240 688 l 1,1,-1
 123 688 l 1,2,-1
 123 1128 l 1,3,-1
 80 1262 l 1,4,-1
 240 1262 l 1,0,-1
EndSplineSet
EndChar

StartChar: ordmasculine
Encoding: 186 186 150
Width: 574
Flags: W
HStem: 668 112<215.208 354.223> 1169 113<215.087 354.324>
VStem: 98 110<787.359 1161.88> 360 117<785.083 1164.16>
LayerCount: 2
Fore
SplineSet
477 897 m 2,0,1
 477 881 477 881 476.5 859 c 128,-1,2
 476 837 476 837 471.5 813 c 128,-1,3
 467 789 467 789 457 764.5 c 128,-1,4
 447 740 447 740 428 719 c 0,5,6
 412 701 412 701 393.5 691 c 128,-1,7
 375 681 375 681 356 676 c 128,-1,8
 337 671 337 671 319 669.5 c 128,-1,9
 301 668 301 668 286 668 c 256,10,11
 271 668 271 668 253.5 669.5 c 128,-1,12
 236 671 236 671 217.5 676 c 128,-1,13
 199 681 199 681 180.5 691 c 128,-1,14
 162 701 162 701 145 719 c 0,15,16
 126 740 126 740 116 764.5 c 128,-1,17
 106 789 106 789 102 813 c 128,-1,18
 98 837 98 837 98 859 c 128,-1,19
 98 881 98 881 98 897 c 2,20,-1
 98 1053 l 2,21,22
 98 1069 98 1069 98 1091 c 128,-1,23
 98 1113 98 1113 102 1137 c 128,-1,24
 106 1161 106 1161 116 1185.5 c 128,-1,25
 126 1210 126 1210 145 1231 c 0,26,27
 162 1249 162 1249 180.5 1259 c 128,-1,28
 199 1269 199 1269 217.5 1274 c 128,-1,29
 236 1279 236 1279 253.5 1280.5 c 128,-1,30
 271 1282 271 1282 286 1282 c 256,31,32
 301 1282 301 1282 319 1280.5 c 128,-1,33
 337 1279 337 1279 356 1274 c 128,-1,34
 375 1269 375 1269 393.5 1259 c 128,-1,35
 412 1249 412 1249 428 1231 c 0,36,37
 447 1210 447 1210 457 1185.5 c 128,-1,38
 467 1161 467 1161 471.5 1137 c 128,-1,39
 476 1113 476 1113 476.5 1091 c 128,-1,40
 477 1069 477 1069 477 1053 c 2,41,-1
 477 897 l 2,0,1
208 887 m 2,42,43
 208 868 208 868 210 846 c 128,-1,44
 212 824 212 824 225 809 c 0,45,46
 231 803 231 803 245.5 791.5 c 128,-1,47
 260 780 260 780 286 780 c 256,48,49
 312 780 312 780 326.5 791.5 c 128,-1,50
 341 803 341 803 346 809 c 0,51,52
 357 824 357 824 358.5 846 c 128,-1,53
 360 868 360 868 360 887 c 2,54,-1
 360 1063 l 2,55,56
 360 1081 360 1081 358.5 1103 c 128,-1,57
 357 1125 357 1125 346 1141 c 0,58,59
 341 1147 341 1147 326.5 1158 c 128,-1,60
 312 1169 312 1169 286 1169 c 256,61,62
 260 1169 260 1169 245.5 1158 c 128,-1,63
 231 1147 231 1147 225 1141 c 0,64,65
 212 1125 212 1125 210 1103 c 128,-1,66
 208 1081 208 1081 208 1063 c 2,67,-1
 208 887 l 2,42,43
EndSplineSet
EndChar

StartChar: guillemotright
Encoding: 187 187 151
Width: 685
Flags: W
HStem: 246 676
VStem: 64 526
LayerCount: 2
Fore
SplineSet
158 406 m 1,0,-1
 64 500 l 1,1,-1
 148 584 l 1,2,-1
 64 668 l 1,3,-1
 158 762 l 1,4,-1
 336 584 l 1,5,-1
 158 406 l 1,0,-1
590 518 m 1,6,-1
 318 246 l 1,7,-1
 223 340 l 1,8,-1
 467 584 l 1,9,-1
 223 827 l 1,10,-1
 318 922 l 1,11,-1
 590 649 l 1,12,-1
 590 518 l 1,6,-1
EndSplineSet
EndChar

StartChar: onequarter
Encoding: 188 188 152
Width: 1262
Flags: W
HStem: 0 21G<971 1088> 272 113<841.178 971 1088 1178> 1262 0G<76 236 643.82 708.209>
VStem: 119 117<688 1172.67> 709 110<409.24 573> 971 117<0 272 385 573>
LayerCount: 2
Fore
SplineSet
651 1282 m 1,0,-1
 774 1239 l 1,1,-1
 322 -20 l 1,2,-1
 199 23 l 1,3,-1
 651 1282 l 1,0,-1
236 1262 m 1,4,-1
 236 688 l 1,5,-1
 119 688 l 1,6,-1
 119 1128 l 1,7,-1
 76 1262 l 1,8,-1
 236 1262 l 1,4,-1
971 385 m 1,9,-1
 971 573 l 1,10,-1
 1088 573 l 1,11,-1
 1088 385 l 1,12,-1
 1178 385 l 1,13,-1
 1210 272 l 1,14,-1
 1088 272 l 1,15,-1
 1088 0 l 1,16,-1
 971 0 l 1,17,-1
 971 272 l 1,18,-1
 895 272 l 2,19,20
 805 272 805 272 757 321.5 c 128,-1,21
 709 371 709 371 709 459 c 2,22,-1
 709 573 l 1,23,-1
 819 573 l 1,24,-1
 819 477 l 2,25,26
 819 432 819 432 840.5 408.5 c 128,-1,27
 862 385 862 385 907 385 c 2,28,-1
 971 385 l 1,9,-1
EndSplineSet
EndChar

StartChar: onehalf
Encoding: 189 189 153
Width: 1056
Flags: W
HStem: 0 113<836 985> 481 113<687.306 843.514> 1262 0G<66 226 633.82 698.209>
VStem: 109 117<688 1172.67> 854 131<310.164 470.904>
LayerCount: 2
Fore
SplineSet
641 1282 m 1,0,-1
 764 1239 l 1,1,-1
 312 -20 l 1,2,-1
 189 23 l 1,3,-1
 641 1282 l 1,0,-1
226 1262 m 1,4,-1
 226 688 l 1,5,-1
 109 688 l 1,6,-1
 109 1128 l 1,7,-1
 66 1262 l 1,8,-1
 226 1262 l 1,4,-1
783 481 m 0,9,10
 745 481 745 481 699 461 c 1,11,-1
 662 557 l 1,12,13
 694 576 694 576 731 585 c 128,-1,14
 768 594 768 594 803 594 c 0,15,16
 887 594 887 594 931 550.5 c 128,-1,17
 975 507 975 507 975 432 c 0,18,19
 975 390 975 390 960.5 354 c 128,-1,20
 946 318 946 318 926 281 c 2,21,-1
 836 113 l 1,22,-1
 985 113 l 1,23,-1
 985 0 l 1,24,-1
 650 0 l 1,25,-1
 832 350 l 2,26,27
 841 369 841 369 847.5 385 c 128,-1,28
 854 401 854 401 854 420 c 0,29,30
 854 448 854 448 836 464.5 c 128,-1,31
 818 481 818 481 783 481 c 0,9,10
EndSplineSet
EndChar

StartChar: threequarters
Encoding: 190 190 154
Width: 1312
Flags: W
HStem: 0 21G<1021 1138> 272 113<891.178 1021 1138 1228> 1149 113<83 214> 1262 20G<693.82 758.209>
VStem: 277 117<831.385 951.826> 759 110<409.24 573> 1021 117<0 272 385 573>
LayerCount: 2
Fore
SplineSet
701 1282 m 1,0,-1
 824 1239 l 1,1,-1
 372 -20 l 1,2,-1
 249 23 l 1,3,-1
 701 1282 l 1,0,-1
1021 385 m 1,4,-1
 1021 573 l 1,5,-1
 1138 573 l 1,6,-1
 1138 385 l 1,7,-1
 1228 385 l 1,8,-1
 1260 272 l 1,9,-1
 1138 272 l 1,10,-1
 1138 0 l 1,11,-1
 1021 0 l 1,12,-1
 1021 272 l 1,13,-1
 945 272 l 2,14,15
 855 272 855 272 807 321.5 c 128,-1,16
 759 371 759 371 759 459 c 2,17,-1
 759 573 l 1,18,-1
 869 573 l 1,19,-1
 869 477 l 2,20,21
 869 432 869 432 890.5 408.5 c 128,-1,22
 912 385 912 385 957 385 c 2,23,-1
 1021 385 l 1,4,-1
83 1149 m 1,24,-1
 83 1262 l 1,25,-1
 390 1262 l 1,26,-1
 284 1063 l 1,27,28
 308 1056 308 1056 328 1044.5 c 128,-1,29
 348 1033 348 1033 362.5 1015.5 c 128,-1,30
 377 998 377 998 385.5 973 c 128,-1,31
 394 948 394 948 394 915 c 0,32,33
 394 862 394 862 372 823 c 128,-1,34
 350 784 350 784 313 755 c 128,-1,35
 276 726 276 726 229 705 c 128,-1,36
 182 684 182 684 132 668 c 1,37,-1
 91 770 l 1,38,39
 129 780 129 780 163 793.5 c 128,-1,40
 197 807 197 807 222.5 824 c 128,-1,41
 248 841 248 841 262.5 862 c 128,-1,42
 277 883 277 883 277 907 c 0,43,44
 277 929 277 929 263.5 945 c 128,-1,45
 250 961 250 961 210 961 c 2,46,-1
 116 961 l 1,47,-1
 214 1149 l 1,48,-1
 83 1149 l 1,24,-1
EndSplineSet
EndChar

StartChar: questiondown
Encoding: 191 191 155
Width: 730
Flags: W
HStem: -360 131<282.627 617.992> 750 172<324 496>
VStem: 72 143<-163.263 91.749> 324 172<750 922> 340 144<375 588>
LayerCount: 2
Fore
SplineSet
420 -360 m 0,0,1
 339 -360 339 -360 274.5 -336.5 c 128,-1,2
 210 -313 210 -313 165 -271.5 c 128,-1,3
 120 -230 120 -230 96 -172 c 128,-1,4
 72 -114 72 -114 72 -45 c 0,5,6
 72 6 72 6 83.5 48.5 c 128,-1,7
 95 91 95 91 114.5 126.5 c 128,-1,8
 134 162 134 162 159.5 192 c 128,-1,9
 185 222 185 222 213 250 c 2,10,-1
 340 375 l 1,11,-1
 340 588 l 1,12,-1
 484 588 l 1,13,-1
 484 317 l 1,14,-1
 320 160 l 2,15,16
 300 141 300 141 281 119 c 128,-1,17
 262 97 262 97 247.5 72 c 128,-1,18
 233 47 233 47 224 18 c 128,-1,19
 215 -11 215 -11 215 -45 c 0,20,21
 215 -84 215 -84 230 -118 c 128,-1,22
 245 -152 245 -152 272.5 -176.5 c 128,-1,23
 300 -201 300 -201 338 -215 c 128,-1,24
 376 -229 376 -229 422 -229 c 0,25,26
 476 -229 476 -229 523.5 -217.5 c 128,-1,27
 571 -206 571 -206 627 -180 c 1,28,-1
 680 -301 l 1,29,30
 620 -332 620 -332 559.5 -346 c 128,-1,31
 499 -360 499 -360 420 -360 c 0,0,1
324 750 m 1,32,-1
 324 922 l 1,33,-1
 496 922 l 1,34,-1
 496 750 l 1,35,-1
 324 750 l 1,32,-1
EndSplineSet
EndChar

StartChar: AE
Encoding: 198 198 162
Width: 1151
Flags: W
HStem: 0 131<693 1070> 662 131<320 550 693 939> 1130 132<693 1070> 1151 131<365.626 549.374>
VStem: 550 143<131 662 793 1130>
LayerCount: 2
Fore
SplineSet
1070 1130 m 1,0,-1
 693 1130 l 1,1,-1
 693 793 l 1,2,-1
 939 793 l 1,3,-1
 939 662 l 1,4,-1
 693 662 l 1,5,-1
 693 131 l 1,6,-1
 1070 131 l 1,7,-1
 1070 0 l 1,8,-1
 550 0 l 1,9,-1
 550 662 l 1,10,-1
 304 662 l 1,11,-1
 216 -20 l 1,12,-1
 74 -2 l 1,13,-1
 238 1257 l 1,14,15
 272 1266 272 1266 305 1271 c 128,-1,16
 338 1276 338 1276 367 1278.5 c 128,-1,17
 396 1281 396 1281 419 1281.5 c 128,-1,18
 442 1282 442 1282 457 1282 c 256,19,20
 472 1282 472 1282 493.5 1281.5 c 128,-1,21
 515 1281 515 1281 542 1279 c 128,-1,22
 569 1277 569 1277 599.5 1273 c 128,-1,23
 630 1269 630 1269 662 1262 c 1,24,-1
 1070 1262 l 1,25,-1
 1070 1130 l 1,0,-1
457 1151 m 0,26,27
 433 1151 433 1151 409 1148.5 c 128,-1,28
 385 1146 385 1146 365 1141 c 1,29,-1
 320 793 l 1,30,-1
 550 793 l 1,31,-1
 550 1141 l 1,32,33
 530 1146 530 1146 506 1148.5 c 128,-1,34
 482 1151 482 1151 457 1151 c 0,26,27
EndSplineSet
EndChar

StartChar: Ccedilla
Encoding: 199 199 163
Width: 850
Flags: W
HStem: -354 100<303.138 565.948> -158 97<503 545.885> -20 131<503.037 720.561> 1151 131<377.537 712.296>
VStem: 136 143<240 1043.53> 380 123<-61 -20> 566 125<-247.214 -166.196>
LayerCount: 2
Fore
SplineSet
380 -158 m 1,0,-1
 380 -8 l 1,1,2
 308 4 308 4 224.5 39 c 128,-1,3
 141 74 141 74 62 145 c 1,4,-1
 136 240 l 1,5,-1
 136 788 l 2,6,7
 136 890 136 890 153.5 979.5 c 128,-1,8
 171 1069 171 1069 215 1136.5 c 128,-1,9
 259 1204 259 1204 334.5 1243 c 128,-1,10
 410 1282 410 1282 527 1282 c 0,11,12
 601 1282 601 1282 658.5 1268 c 128,-1,13
 716 1254 716 1254 773 1223 c 1,14,-1
 722 1102 l 1,15,16
 669 1128 669 1128 620.5 1139.5 c 128,-1,17
 572 1151 572 1151 531 1151 c 0,18,19
 450 1151 450 1151 400.5 1122.5 c 128,-1,20
 351 1094 351 1094 324 1045 c 128,-1,21
 297 996 297 996 288 931 c 128,-1,22
 279 866 279 866 279 793 c 2,23,-1
 279 174 l 1,24,25
 336 139 336 139 393.5 125 c 128,-1,26
 451 111 451 111 523 111 c 0,27,28
 557 111 557 111 586 114 c 128,-1,29
 615 117 615 117 641.5 124 c 128,-1,30
 668 131 668 131 694.5 142.5 c 128,-1,31
 721 154 721 154 751 172 c 1,32,-1
 810 43 l 1,33,34
 757 15 757 15 682.5 -2.5 c 128,-1,35
 608 -20 608 -20 515 -20 c 2,36,-1
 503 -20 l 1,37,-1
 503 -61 l 1,38,-1
 511 -61 l 2,39,40
 596 -61 596 -61 643.5 -97 c 128,-1,41
 691 -133 691 -133 691 -207 c 0,42,43
 691 -248 691 -248 674 -276.5 c 128,-1,44
 657 -305 657 -305 629 -322 c 128,-1,45
 601 -339 601 -339 565 -346.5 c 128,-1,46
 529 -354 529 -354 490 -354 c 0,47,48
 432 -354 432 -354 381 -343 c 128,-1,49
 330 -332 330 -332 292 -315 c 1,50,-1
 292 -205 l 1,51,52
 343 -226 343 -226 392.5 -240 c 128,-1,53
 442 -254 442 -254 490 -254 c 0,54,55
 519 -254 519 -254 542.5 -244.5 c 128,-1,56
 566 -235 566 -235 566 -207 c 0,57,58
 566 -181 566 -181 546.5 -169.5 c 128,-1,59
 527 -158 527 -158 486 -158 c 2,60,-1
 380 -158 l 1,0,-1
EndSplineSet
EndChar

StartChar: Eth
Encoding: 208 208 172
Width: 997
Flags: W
HStem: 0 131<296 542.486> 662 131<67 153 296 489> 1151 131<296.497 559.132>
VStem: 153 143<131 662 793 1116> 749 143<359.867 919.902>
LayerCount: 2
Fore
SplineSet
26 793 m 1,0,-1
 153 793 l 1,1,-1
 153 1116 l 1,2,-1
 114 1229 l 1,3,4
 163 1252 163 1252 234 1267 c 128,-1,5
 305 1282 305 1282 390 1282 c 0,6,7
 520 1282 520 1282 615 1231 c 128,-1,8
 710 1180 710 1180 771.5 1092.5 c 128,-1,9
 833 1005 833 1005 862.5 888.5 c 128,-1,10
 892 772 892 772 892 641 c 0,11,12
 892 500 892 500 860.5 382 c 128,-1,13
 829 264 829 264 760 179 c 128,-1,14
 691 94 691 94 581.5 47 c 128,-1,15
 472 0 472 0 316 0 c 2,16,-1
 153 0 l 1,17,-1
 153 662 l 1,18,-1
 67 662 l 1,19,-1
 26 793 l 1,0,-1
296 793 m 1,20,-1
 489 793 l 1,21,-1
 489 662 l 1,22,-1
 296 662 l 1,23,-1
 296 131 l 1,24,-1
 337 131 l 2,25,26
 452 131 452 131 531 169 c 128,-1,27
 610 207 610 207 658.5 275 c 128,-1,28
 707 343 707 343 728 436.5 c 128,-1,29
 749 530 749 530 749 641 c 0,30,31
 749 767 749 767 723 862.5 c 128,-1,32
 697 958 697 958 650 1022 c 128,-1,33
 603 1086 603 1086 537.5 1118.5 c 128,-1,34
 472 1151 472 1151 392 1151 c 0,35,36
 364 1151 364 1151 339.5 1148.5 c 128,-1,37
 315 1146 315 1146 296 1141 c 1,38,-1
 296 793 l 1,20,-1
EndSplineSet
EndChar

StartChar: multiply
Encoding: 215 215 179
Width: 790
Flags: W
HStem: 420 612
VStem: 88 612
LayerCount: 2
Fore
SplineSet
180 1032 m 1,0,-1
 391 821 l 1,1,-1
 604 1032 l 1,2,-1
 700 936 l 1,3,-1
 489 725 l 1,4,-1
 700 512 l 1,5,-1
 608 420 l 1,6,-1
 395 631 l 1,7,-1
 184 420 l 1,8,-1
 88 516 l 1,9,-1
 299 729 l 1,10,-1
 88 940 l 1,11,-1
 180 1032 l 1,0,-1
EndSplineSet
EndChar

StartChar: Oslash
Encoding: 216 216 180
Width: 1048
Flags: W
HStem: -20 131<319.283 713.011> 1151 131<369.676 647.281> 1321 20G<918.041 961.423>
VStem: 130 143<317 1044.01> 744 144<240 809>
LayerCount: 2
Fore
SplineSet
130 94 m 1,0,-1
 130 809 l 2,1,2
 130 906 130 906 149 992.5 c 128,-1,3
 168 1079 168 1079 212 1143 c 128,-1,4
 256 1207 256 1207 328.5 1244.5 c 128,-1,5
 401 1282 401 1282 509 1282 c 0,6,7
 615 1282 615 1282 687 1245 c 128,-1,8
 759 1208 759 1208 804 1145 c 1,9,-1
 931 1341 l 1,10,-1
 1039 1270 l 1,11,-1
 867 1001 l 1,12,13
 888 912 888 912 888 809 c 2,14,-1
 888 240 l 1,15,-1
 961 145 l 1,16,17
 927 116 927 116 883 86.5 c 128,-1,18
 839 57 839 57 783.5 33.5 c 128,-1,19
 728 10 728 10 659.5 -5 c 128,-1,20
 591 -20 591 -20 509 -20 c 0,21,22
 424 -20 424 -20 358 -6.5 c 128,-1,23
 292 7 292 7 243 29 c 1,24,-1
 85 -219 l 1,25,-1
 -24 -145 l 1,26,-1
 130 94 l 1,0,-1
273 317 m 1,27,-1
 716 1008 l 1,28,29
 704 1039 704 1039 686.5 1065 c 128,-1,30
 669 1091 669 1091 643.5 1110 c 128,-1,31
 618 1129 618 1129 585 1140 c 128,-1,32
 552 1151 552 1151 509 1151 c 0,33,34
 435 1151 435 1151 389 1121 c 128,-1,35
 343 1091 343 1091 317 1042.5 c 128,-1,36
 291 994 291 994 282 932.5 c 128,-1,37
 273 871 273 871 273 809 c 2,38,-1
 273 317 l 1,27,-1
509 111 m 0,39,40
 583 111 583 111 640.5 126.5 c 128,-1,41
 698 142 698 142 744 174 c 1,42,-1
 744 809 l 1,43,-1
 318 147 l 1,44,45
 359 129 359 129 405.5 120 c 128,-1,46
 452 111 452 111 509 111 c 0,39,40
EndSplineSet
EndChar

StartChar: Thorn
Encoding: 222 222 186
Width: 897
Flags: W
HStem: 0 21G<144 287> 375 131<287 676> 864 131<288.344 591.975> 1242 20G<144 287>
VStem: 144 143<0 375 506 852.664 979 1262> 676 139<506 777.809>
LayerCount: 2
Fore
SplineSet
144 0 m 1,0,-1
 144 1262 l 1,1,-1
 287 1262 l 1,2,-1
 287 979 l 1,3,4
 330 987 330 987 372 991 c 128,-1,5
 414 995 414 995 449 995 c 0,6,7
 534 995 534 995 605.5 969 c 128,-1,8
 677 943 677 943 723 897 c 0,9,10
 758 861 758 861 777 822 c 128,-1,11
 796 783 796 783 804.5 743 c 128,-1,12
 813 703 813 703 814 662.5 c 128,-1,13
 815 622 815 622 815 584 c 2,14,-1
 815 375 l 1,15,-1
 287 375 l 1,16,-1
 287 0 l 1,17,-1
 144 0 l 1,0,-1
287 506 m 1,18,-1
 676 506 l 1,19,-1
 676 582 l 2,20,21
 676 603 676 603 675 629.5 c 128,-1,22
 674 656 674 656 669 684.5 c 128,-1,23
 664 713 664 713 652 741 c 128,-1,24
 640 769 640 769 619 795 c 1,25,26
 597 819 597 819 573.5 833 c 128,-1,27
 550 847 550 847 526.5 854 c 128,-1,28
 503 861 503 861 481 862.5 c 128,-1,29
 459 864 459 864 441 864 c 0,30,31
 421 864 421 864 399 862 c 128,-1,32
 377 860 377 860 356.5 857 c 128,-1,33
 336 854 336 854 318 849.5 c 128,-1,34
 300 845 300 845 287 840 c 1,35,-1
 287 506 l 1,18,-1
EndSplineSet
EndChar

StartChar: germandbls
Encoding: 223 223 187
Width: 1181
Flags: W
HStem: -20 122<549.363 945.183> 795 127<45 219 683.866 946> 1214 127<472.357 824.14>
VStem: 219 131<-20 795 922 1092.58> 514 125<588.494 768.871> 946 131<195 314.721 922 1090.81>
LayerCount: 2
Fore
SplineSet
45 922 m 1,0,-1
 219 922 l 1,1,2
 219 1005 219 1005 244 1081 c 128,-1,3
 269 1157 269 1157 321.5 1214.5 c 128,-1,4
 374 1272 374 1272 455 1306.5 c 128,-1,5
 536 1341 536 1341 647 1341 c 0,6,7
 774 1341 774 1341 857 1303.5 c 128,-1,8
 940 1266 940 1266 989 1202 c 128,-1,9
 1038 1138 1038 1138 1057.5 1051.5 c 128,-1,10
 1077 965 1077 965 1077 868 c 2,11,-1
 1077 795 l 1,12,-1
 797 795 l 2,13,14
 726 795 726 795 682.5 769.5 c 128,-1,15
 639 744 639 744 639 680 c 0,16,17
 639 654 639 654 648 634 c 128,-1,18
 657 614 657 614 672.5 598.5 c 128,-1,19
 688 583 688 583 709.5 570 c 128,-1,20
 731 557 731 557 756 545 c 2,21,-1
 893 479 l 2,22,23
 980 436 980 436 1028.5 379.5 c 128,-1,24
 1077 323 1077 323 1077 242 c 2,25,-1
 1077 195 l 1,26,-1
 1145 111 l 1,27,28
 1103 70 1103 70 1057 44.5 c 128,-1,29
 1011 19 1011 19 964.5 4.5 c 128,-1,30
 918 -10 918 -10 872 -15 c 128,-1,31
 826 -20 826 -20 784 -20 c 0,32,33
 698 -20 698 -20 630 -5.5 c 128,-1,34
 562 9 562 9 514 31 c 1,35,-1
 514 162 l 1,36,37
 541 150 541 150 568.5 139 c 128,-1,38
 596 128 596 128 627.5 119.5 c 128,-1,39
 659 111 659 111 695 106.5 c 128,-1,40
 731 102 731 102 776 102 c 0,41,42
 830 102 830 102 875 114 c 128,-1,43
 920 126 920 126 946 147 c 1,44,-1
 946 188 l 2,45,46
 946 219 946 219 940.5 243.5 c 128,-1,47
 935 268 935 268 921.5 289.5 c 128,-1,48
 908 311 908 311 884 330 c 128,-1,49
 860 349 860 349 823 369 c 1,50,-1
 668 446 l 2,51,52
 636 462 636 462 608 482 c 128,-1,53
 580 502 580 502 559 530 c 128,-1,54
 538 558 538 558 526 594.5 c 128,-1,55
 514 631 514 631 514 680 c 0,56,57
 514 734 514 734 533.5 779 c 128,-1,58
 553 824 553 824 589.5 855.5 c 128,-1,59
 626 887 626 887 678.5 904.5 c 128,-1,60
 731 922 731 922 797 922 c 2,61,-1
 946 922 l 1,62,63
 946 986 946 986 927 1039.5 c 128,-1,64
 908 1093 908 1093 870.5 1132 c 128,-1,65
 833 1171 833 1171 777 1192.5 c 128,-1,66
 721 1214 721 1214 647 1214 c 256,67,68
 573 1214 573 1214 517 1192 c 128,-1,69
 461 1170 461 1170 424 1131 c 128,-1,70
 387 1092 387 1092 368.5 1038 c 128,-1,71
 350 984 350 984 350 920 c 2,72,-1
 350 -20 l 1,73,-1
 219 -20 l 1,74,-1
 219 795 l 1,75,-1
 45 795 l 1,76,-1
 45 922 l 1,0,-1
EndSplineSet
EndChar

StartChar: ae
Encoding: 230 230 194
Width: 1277
Flags: W
HStem: -20 122<253.414 571.843 718.246 1111.23> 451 122<298.685 573 704 1046> 819 123<217 433.975 755.016 994.611>
VStem: 61 139<154.297 371.272> 573 131<130.614 451 573 703.789> 1046 131<573 767.711>
LayerCount: 2
Fore
SplineSet
704 451 m 1,0,-1
 704 156 l 1,1,2
 749 124 749 124 801.5 113 c 128,-1,3
 854 102 854 102 899 102 c 0,4,5
 982 102 982 102 1048 121.5 c 128,-1,6
 1114 141 1114 141 1177 186 c 1,7,-1
 1177 49 l 1,8,9
 1118 12 1118 12 1049 -4 c 128,-1,10
 980 -20 980 -20 899 -20 c 0,11,12
 821 -20 821 -20 761.5 -9 c 128,-1,13
 702 2 702 2 651 27 c 1,14,15
 586 2 586 2 522 -9 c 128,-1,16
 458 -20 458 -20 401 -20 c 0,17,18
 301 -20 301 -20 239.5 3.5 c 128,-1,19
 178 27 178 27 143 59 c 0,20,21
 109 91 109 91 85 140.5 c 128,-1,22
 61 190 61 190 61 252 c 0,23,24
 61 349 61 349 104.5 411.5 c 128,-1,25
 148 474 148 474 219.5 509.5 c 128,-1,26
 291 545 291 545 383 558.5 c 128,-1,27
 475 572 475 572 573 573 c 1,28,29
 568 651 568 651 532.5 698 c 128,-1,30
 497 745 497 745 444 770 c 128,-1,31
 391 795 391 795 328 803 c 128,-1,32
 265 811 265 811 207 813 c 1,33,-1
 217 942 l 1,34,35
 273 942 273 942 331 936 c 128,-1,36
 389 930 389 930 443 915 c 128,-1,37
 497 900 497 900 543.5 874.5 c 128,-1,38
 590 849 590 849 624 811 c 1,39,40
 631 822 631 822 637 832.5 c 128,-1,41
 643 843 643 843 651 852 c 0,42,43
 677 883 677 883 706.5 901 c 128,-1,44
 736 919 736 919 765 928 c 128,-1,45
 794 937 794 937 822 939.5 c 128,-1,46
 850 942 850 942 874 942 c 0,47,48
 899 942 899 942 927 939.5 c 128,-1,49
 955 937 955 937 984.5 928 c 128,-1,50
 1014 919 1014 919 1042.5 901 c 128,-1,51
 1071 883 1071 883 1097 852 c 0,52,53
 1128 815 1128 815 1144 773 c 128,-1,54
 1160 731 1160 731 1167.5 689 c 128,-1,55
 1175 647 1175 647 1176 609 c 128,-1,56
 1177 571 1177 571 1177 543 c 2,57,-1
 1177 451 l 1,58,-1
 704 451 l 1,0,-1
573 451 m 1,59,60
 540 451 540 451 500 449 c 128,-1,61
 460 447 460 447 418.5 440.5 c 128,-1,62
 377 434 377 434 337.5 422 c 128,-1,63
 298 410 298 410 267.5 389.5 c 128,-1,64
 237 369 237 369 218.5 338.5 c 128,-1,65
 200 308 200 308 200 266 c 0,66,67
 200 223 200 223 214.5 195 c 128,-1,68
 229 167 229 167 247 152 c 0,69,70
 279 123 279 123 321 112.5 c 128,-1,71
 363 102 363 102 405 102 c 0,72,73
 455 102 455 102 495.5 110.5 c 128,-1,74
 536 119 536 119 573 133 c 1,75,-1
 573 451 l 1,59,60
1046 573 m 1,76,77
 1046 593 1046 593 1045.5 617 c 128,-1,78
 1045 641 1045 641 1041.5 665.5 c 128,-1,79
 1038 690 1038 690 1031 713.5 c 128,-1,80
 1024 737 1024 737 1011 756 c 0,81,82
 1004 765 1004 765 993 776 c 128,-1,83
 982 787 982 787 966 796.5 c 128,-1,84
 950 806 950 806 927.5 812.5 c 128,-1,85
 905 819 905 819 876 819 c 256,86,87
 847 819 847 819 824.5 812.5 c 128,-1,88
 802 806 802 806 785 796.5 c 128,-1,89
 768 787 768 787 757 776 c 128,-1,90
 746 765 746 765 739 756 c 1,91,92
 719 725 719 725 711.5 686 c 128,-1,93
 704 647 704 647 704 612 c 2,94,-1
 704 573 l 1,95,-1
 1046 573 l 1,76,77
EndSplineSet
EndChar

StartChar: ccedilla
Encoding: 231 231 195
Width: 732
Flags: W
HStem: -354 100<221.144 483.949> -158 97<421 463.886> -20 122<421.168 663.406> 819 123<311.093 618.78>
VStem: 112 131<209 749.375> 298 123<-61 -18> 484 125<-247.214 -166.196>
LayerCount: 2
Fore
SplineSet
298 -158 m 1,0,-1
 298 -2 l 1,1,2
 252 8 252 8 213 23 c 128,-1,3
 174 38 174 38 142 55.5 c 128,-1,4
 110 73 110 73 85 91 c 128,-1,5
 60 109 60 109 42 125 c 1,6,-1
 112 209 l 1,7,-1
 112 543 l 2,8,9
 112 571 112 571 112.5 609 c 128,-1,10
 113 647 113 647 120.5 689 c 128,-1,11
 128 731 128 731 146.5 773 c 128,-1,12
 165 815 165 815 200 852 c 0,13,14
 230 883 230 883 264 901 c 128,-1,15
 298 919 298 919 332.5 928 c 128,-1,16
 367 937 367 937 399.5 939.5 c 128,-1,17
 432 942 432 942 460 942 c 0,18,19
 514 942 514 942 561.5 934 c 128,-1,20
 609 926 609 926 654 913 c 1,21,-1
 620 795 l 1,22,23
 581 806 581 806 537 812.5 c 128,-1,24
 493 819 493 819 456 819 c 256,25,26
 419 819 419 819 391 812 c 128,-1,27
 363 805 363 805 342.5 794.5 c 128,-1,28
 322 784 322 784 308.5 772 c 128,-1,29
 295 760 295 760 288 750 c 0,30,31
 271 728 271 728 262 701.5 c 128,-1,32
 253 675 253 675 248.5 647 c 128,-1,33
 244 619 244 619 243.5 592 c 128,-1,34
 243 565 243 565 243 543 c 2,35,-1
 243 156 l 1,36,37
 294 128 294 128 345 115 c 128,-1,38
 396 102 396 102 456 102 c 0,39,40
 513 102 513 102 563.5 112.5 c 128,-1,41
 614 123 614 123 665 147 c 1,42,-1
 665 18 l 1,43,44
 615 -2 615 -2 564 -11 c 128,-1,45
 513 -20 513 -20 454 -20 c 0,46,47
 444 -20 444 -20 436.5 -19 c 128,-1,48
 429 -18 429 -18 421 -18 c 1,49,-1
 421 -61 l 1,50,-1
 429 -61 l 2,51,52
 514 -61 514 -61 561.5 -97 c 128,-1,53
 609 -133 609 -133 609 -207 c 0,54,55
 609 -248 609 -248 592 -276.5 c 128,-1,56
 575 -305 575 -305 547 -322 c 128,-1,57
 519 -339 519 -339 483 -346.5 c 128,-1,58
 447 -354 447 -354 409 -354 c 0,59,60
 350 -354 350 -354 299 -343 c 128,-1,61
 248 -332 248 -332 210 -315 c 1,62,-1
 210 -205 l 1,63,64
 261 -226 261 -226 311 -240 c 128,-1,65
 361 -254 361 -254 409 -254 c 0,66,67
 438 -254 438 -254 461 -244.5 c 128,-1,68
 484 -235 484 -235 484 -207 c 0,69,70
 484 -181 484 -181 464.5 -169.5 c 128,-1,71
 445 -158 445 -158 405 -158 c 2,72,-1
 298 -158 l 1,0,-1
EndSplineSet
EndChar

StartChar: ecircumflex
Encoding: 234 234 198
Width: 847
Flags: W
HStem: -20 122<261.21 676.951> 424 123<245 603> 819 123<302.359 545.295> 1321 20G<337 508>
VStem: 114 131<209 424 547 761.188> 603 143<547 759.875>
LayerCount: 2
Fore
SplineSet
488 1341 m 1,0,-1
 701 1128 l 1,1,-1
 607 1034 l 1,2,-1
 423 1219 l 1,3,-1
 238 1034 l 1,4,-1
 144 1128 l 1,5,-1
 357 1341 l 1,6,-1
 488 1341 l 1,0,-1
603 547 m 1,7,8
 603 569 603 569 602.5 595.5 c 128,-1,9
 602 622 602 622 598.5 649 c 128,-1,10
 595 676 595 676 587.5 702 c 128,-1,11
 580 728 580 728 566 750 c 0,12,13
 559 760 559 760 547.5 772 c 128,-1,14
 536 784 536 784 519 794.5 c 128,-1,15
 502 805 502 805 478 812 c 128,-1,16
 454 819 454 819 423 819 c 256,17,18
 392 819 392 819 369 812 c 128,-1,19
 346 805 346 805 328.5 794.5 c 128,-1,20
 311 784 311 784 299.5 772 c 128,-1,21
 288 760 288 760 281 750 c 0,22,23
 267 728 267 728 260 702 c 128,-1,24
 253 676 253 676 249.5 649 c 128,-1,25
 246 622 246 622 245.5 595.5 c 128,-1,26
 245 569 245 569 245 547 c 1,27,-1
 603 547 l 1,7,8
245 424 m 1,28,-1
 245 156 l 1,29,30
 293 124 293 124 348 113 c 128,-1,31
 403 102 403 102 451 102 c 0,32,33
 539 102 539 102 609.5 121.5 c 128,-1,34
 680 141 680 141 746 186 c 1,35,-1
 746 49 l 1,36,37
 684 12 684 12 611.5 -4 c 128,-1,38
 539 -20 539 -20 454 -20 c 0,39,40
 323 -20 323 -20 224 16.5 c 128,-1,41
 125 53 125 53 44 125 c 1,42,-1
 114 209 l 1,43,-1
 114 543 l 2,44,45
 114 571 114 571 114 609 c 128,-1,46
 114 647 114 647 121 689 c 128,-1,47
 128 731 128 731 144.5 773 c 128,-1,48
 161 815 161 815 193 852 c 0,49,50
 221 883 221 883 251.5 901 c 128,-1,51
 282 919 282 919 313 928 c 128,-1,52
 344 937 344 937 373.5 939.5 c 128,-1,53
 403 942 403 942 429 942 c 0,54,55
 454 942 454 942 484 939.5 c 128,-1,56
 514 937 514 937 544.5 928 c 128,-1,57
 575 919 575 919 606 901 c 128,-1,58
 637 883 637 883 664 852 c 0,59,60
 696 815 696 815 713 773 c 128,-1,61
 730 731 730 731 737.5 689 c 128,-1,62
 745 647 745 647 745.5 609 c 128,-1,63
 746 571 746 571 746 543 c 2,64,-1
 746 424 l 1,65,-1
 245 424 l 1,28,-1
EndSplineSet
EndChar

StartChar: eth
Encoding: 240 240 204
Width: 886
Flags: W
HStem: -20 122<306.281 574.682> 715 123<249.473 631.767> 932 21G<449 489.192> 1321 20G<672.825 713>
VStem: 111 131<167.351 689.013> 639 131<167.351 689.013 809 1000.42>
LayerCount: 2
Fore
SplineSet
785 1249 m 1,0,-1
 672 1137 l 1,1,2
 720 1075 720 1075 745 998.5 c 128,-1,3
 770 922 770 922 770 829 c 2,4,-1
 770 379 l 2,5,6
 770 350 770 350 769.5 312 c 128,-1,7
 769 274 769 274 762 232.5 c 128,-1,8
 755 191 755 191 737.5 149 c 128,-1,9
 720 107 720 107 686 70 c 0,10,11
 658 39 658 39 626 21 c 128,-1,12
 594 3 594 3 561.5 -6 c 128,-1,13
 529 -15 529 -15 498 -17.5 c 128,-1,14
 467 -20 467 -20 441 -20 c 256,15,16
 415 -20 415 -20 384 -17.5 c 128,-1,17
 353 -15 353 -15 320.5 -6 c 128,-1,18
 288 3 288 3 255.5 21 c 128,-1,19
 223 39 223 39 195 70 c 0,20,21
 161 107 161 107 144 149 c 128,-1,22
 127 191 127 191 119.5 232.5 c 128,-1,23
 112 274 112 274 111.5 312 c 128,-1,24
 111 350 111 350 111 379 c 2,25,-1
 111 745 l 1,26,27
 135 762 135 762 167.5 779 c 128,-1,28
 200 796 200 796 240.5 809 c 128,-1,29
 281 822 281 822 331 830 c 128,-1,30
 381 838 381 838 441 838 c 0,31,32
 493 838 493 838 541.5 830.5 c 128,-1,33
 590 823 590 823 635 809 c 1,34,35
 635 881 635 881 619 937 c 128,-1,36
 603 993 603 993 574 1036 c 1,37,-1
 469 932 l 1,38,-1
 375 1026 l 1,39,-1
 482 1133 l 1,40,41
 443 1164 443 1164 397 1189 c 128,-1,42
 351 1214 351 1214 301 1239 c 1,43,-1
 348 1343 l 1,44,45
 417 1320 417 1320 473.5 1291 c 128,-1,46
 530 1262 530 1262 578 1227 c 1,47,-1
 693 1341 l 1,48,-1
 785 1249 l 1,0,-1
242 375 m 2,49,50
 242 352 242 352 242.5 325.5 c 128,-1,51
 243 299 243 299 247 272 c 128,-1,52
 251 245 251 245 259.5 219 c 128,-1,53
 268 193 268 193 283 172 c 0,54,55
 290 162 290 162 303 149.5 c 128,-1,56
 316 137 316 137 335 126.5 c 128,-1,57
 354 116 354 116 380 109 c 128,-1,58
 406 102 406 102 441 102 c 0,59,60
 475 102 475 102 501.5 109 c 128,-1,61
 528 116 528 116 546.5 126.5 c 128,-1,62
 565 137 565 137 577.5 149.5 c 128,-1,63
 590 162 590 162 598 172 c 0,64,65
 613 193 613 193 621.5 219 c 128,-1,66
 630 245 630 245 634 272 c 128,-1,67
 638 299 638 299 638.5 325.5 c 128,-1,68
 639 352 639 352 639 375 c 2,69,-1
 639 666 l 1,70,71
 593 695 593 695 539.5 705 c 128,-1,72
 486 715 486 715 441 715 c 256,73,74
 396 715 396 715 342 705 c 128,-1,75
 288 695 288 695 242 666 c 1,76,-1
 242 375 l 2,49,50
EndSplineSet
EndChar

StartChar: divide
Encoding: 247 247 211
Width: 868
Flags: W
HStem: 350 172<349 521> 662 131<87 781> 932 172<349 521>
VStem: 349 172<350 522 932 1104>
LayerCount: 2
Fore
SplineSet
87 793 m 1,0,-1
 781 793 l 1,1,-1
 781 662 l 1,2,-1
 87 662 l 1,3,-1
 87 793 l 1,0,-1
521 522 m 1,4,-1
 521 350 l 1,5,-1
 349 350 l 1,6,-1
 349 522 l 1,7,-1
 521 522 l 1,4,-1
521 1104 m 1,8,-1
 521 932 l 1,9,-1
 349 932 l 1,10,-1
 349 1104 l 1,11,-1
 521 1104 l 1,8,-1
EndSplineSet
EndChar

StartChar: oslash
Encoding: 248 248 212
Width: 915
Flags: W
HStem: -20 122<317.062 626.441> 819 123<309.49 578.682>
VStem: 115 131<242 754.625> 643 131<209 547>
LayerCount: 2
Fore
SplineSet
115 72 m 1,0,-1
 115 543 l 2,1,2
 115 571 115 571 115.5 609 c 128,-1,3
 116 647 116 647 123.5 689 c 128,-1,4
 131 731 131 731 148 773 c 128,-1,5
 165 815 165 815 199 852 c 0,6,7
 227 883 227 883 259.5 901 c 128,-1,8
 292 919 292 919 324.5 928 c 128,-1,9
 357 937 357 937 388 939.5 c 128,-1,10
 419 942 419 942 445 942 c 256,11,12
 471 942 471 942 502 939.5 c 128,-1,13
 533 937 533 937 565.5 928 c 128,-1,14
 598 919 598 919 630 901 c 128,-1,15
 662 883 662 883 690 852 c 2,16,-1
 703 838 l 1,17,-1
 807 973 l 1,18,-1
 908 891 l 1,19,-1
 762 702 l 1,20,21
 773 657 773 657 773.5 615.5 c 128,-1,22
 774 574 774 574 774 543 c 2,23,-1
 774 209 l 1,24,-1
 844 125 l 1,25,26
 762 53 762 53 664 16.5 c 128,-1,27
 566 -20 566 -20 445 -20 c 0,28,29
 380 -20 380 -20 328 -11 c 128,-1,30
 276 -2 276 -2 234 12 c 1,31,-1
 96 -166 l 1,32,-1
 -4 -84 l 1,33,-1
 115 72 l 1,0,-1
246 242 m 1,34,-1
 617 725 l 1,35,-1
 602 750 l 1,36,37
 594 760 594 760 581.5 772 c 128,-1,38
 569 784 569 784 550.5 794.5 c 128,-1,39
 532 805 532 805 505.5 812 c 128,-1,40
 479 819 479 819 445 819 c 0,41,42
 410 819 410 819 384 812 c 128,-1,43
 358 805 358 805 339 794.5 c 128,-1,44
 320 784 320 784 307 772 c 128,-1,45
 294 760 294 760 287 750 c 0,46,47
 272 728 272 728 263.5 702 c 128,-1,48
 255 676 255 676 251 649 c 128,-1,49
 247 622 247 622 246.5 595.5 c 128,-1,50
 246 569 246 569 246 547 c 2,51,-1
 246 242 l 1,34,-1
643 547 m 1,52,-1
 316 121 l 1,53,54
 350 110 350 110 383 106 c 128,-1,55
 416 102 416 102 445 102 c 0,56,57
 490 102 490 102 543.5 113 c 128,-1,58
 597 124 597 124 643 156 c 1,59,-1
 643 547 l 1,52,-1
EndSplineSet
EndChar

StartChar: thorn
Encoding: 254 254 218
Width: 890
Flags: W
HStem: -432 21G<123 254> -20 122<255.343 541.729> 819 123<255.628 547.912> 1321 20G<82 254>
VStem: 123 131<-432 4 118.751 803.77 924 1257.11> 663 136<239.827 687.893>
LayerCount: 2
Fore
SplineSet
123 1212 m 1,0,-1
 82 1341 l 1,1,-1
 254 1341 l 1,2,-1
 254 924 l 1,3,4
 327 942 327 942 412 942 c 0,5,6
 518 942 518 942 591.5 901.5 c 128,-1,7
 665 861 665 861 711 794 c 128,-1,8
 757 727 757 727 778 640 c 128,-1,9
 799 553 799 553 799 461 c 256,10,11
 799 369 799 369 775.5 282 c 128,-1,12
 752 195 752 195 704.5 128 c 128,-1,13
 657 61 657 61 586 20.5 c 128,-1,14
 515 -20 515 -20 420 -20 c 0,15,16
 373 -20 373 -20 335 -14 c 128,-1,17
 297 -8 297 -8 254 4 c 1,18,-1
 254 -432 l 1,19,-1
 123 -432 l 1,20,-1
 123 1212 l 1,0,-1
254 135 m 1,21,22
 276 126 276 126 313 114 c 128,-1,23
 350 102 350 102 401 102 c 0,24,25
 476 102 476 102 526.5 135 c 128,-1,26
 577 168 577 168 607.5 220 c 128,-1,27
 638 272 638 272 650.5 335.5 c 128,-1,28
 663 399 663 399 663 461 c 0,29,30
 663 522 663 522 652 586 c 128,-1,31
 641 650 641 650 611.5 701.5 c 128,-1,32
 582 753 582 753 531.5 786 c 128,-1,33
 481 819 481 819 403 819 c 0,34,35
 365 819 365 819 325 810.5 c 128,-1,36
 285 802 285 802 254 786 c 1,37,-1
 254 135 l 1,21,22
EndSplineSet
EndChar

StartChar: foursuperior
Encoding: 8308 8308 220
Width: 612
Flags: W
HStem: 961 112<193.208 324 441 531> 1242 20G<62 170 324 441>
VStem: 62 108<1097.24 1262> 324 117<688 961 1073 1262>
LayerCount: 2
Fore
SplineSet
324 1073 m 1,0,-1
 324 1262 l 1,1,-1
 441 1262 l 1,2,-1
 441 1073 l 1,3,-1
 531 1073 l 1,4,-1
 561 961 l 1,5,-1
 441 961 l 1,6,-1
 441 688 l 1,7,-1
 324 688 l 1,8,-1
 324 961 l 1,9,-1
 246 961 l 2,10,11
 156 961 156 961 109 1010 c 128,-1,12
 62 1059 62 1059 62 1147 c 2,13,-1
 62 1262 l 1,14,-1
 170 1262 l 1,15,-1
 170 1165 l 2,16,17
 170 1120 170 1120 192.5 1096.5 c 128,-1,18
 215 1073 215 1073 258 1073 c 2,19,-1
 324 1073 l 1,0,-1
EndSplineSet
EndChar

StartChar: foundryicon
Encoding: 65542 -1 221
Width: 2163
Flags: W
HStem: 283 67<360.221 437.401> 342 61<1915 1963.46> 367 51<1032.59 1086.73> 369 80<1343.83 1407.14> 383 51<241.466 324 868.594 944 1159.17 1182 1278 1307> 432 43<1917.85 1961.41> 459 37<834 883 1050.7 1087> 514 53<991 1064.38> 528 54<832.918 879.764 1510.7 1557.3 1917.1 1961.97> 584 63<197.988 259.721 1182 1206>
VStem: 104 78<440.933 571.283> 260 64<551 582> 340 78<526.288 578> 461 88<514 578> 582 127<373 434> 760 190<395.365 434 459.343 494.781> 883 67<496 519.233> 975 69<420.333 451.936> 1087 95<418 434> 1087 72<434 455 492 507.812> 1182 96<584 647> 1206 101<371.127 434> 1206 72<434 584> 1333 86<380.86 436.624> 1432 73<428.72 517.776> 1563 73<428.374 518.02> 1665 127<373 434> 1849 68<403 433.18 475.205 536.667> 1964 68<283 341.375 475.169 513.906>
LayerCount: 2
Fore
SplineSet
2062 514 m 1,0,-1
 2030 514 l 1,1,2
 2032 511 2032 511 2032 508.5 c 128,-1,3
 2032 506 2032 506 2032 504 c 0,4,5
 2032 476 2032 476 2009.5 454 c 128,-1,6
 1987 432 1987 432 1939 432 c 0,7,8
 1931 432 1931 432 1925.5 432 c 128,-1,9
 1920 432 1920 432 1915 434 c 1,10,-1
 1915 403 l 1,11,-1
 1952 403 l 2,12,13
 1990 403 1990 403 2011 385.5 c 128,-1,14
 2032 368 2032 368 2032 330 c 0,15,16
 2032 314 2032 314 2027 302.5 c 128,-1,17
 2022 291 2022 291 2019 283 c 1,18,-1
 1964 283 l 1,19,-1
 1964 342 l 1,20,-1
 1870 342 l 1,21,22
 1859 350 1859 350 1854 362.5 c 128,-1,23
 1849 375 1849 375 1849 387 c 0,24,25
 1849 422 1849 422 1878 449 c 1,26,27
 1849 466 1849 466 1849 506 c 0,28,29
 1849 538 1849 538 1872 560 c 128,-1,30
 1895 582 1895 582 1937 582 c 0,31,32
 1956 582 1956 582 1972.5 576 c 128,-1,33
 1989 570 1989 570 2001 561 c 1,34,35
 2009 570 2009 570 2019 576 c 128,-1,36
 2029 582 2029 582 2040 582 c 0,37,38
 2048 582 2048 582 2052 581 c 128,-1,39
 2056 580 2056 580 2062 578 c 1,40,-1
 2062 514 l 1,0,-1
502 358 m 2,41,42
 489 313 489 313 466 298 c 128,-1,43
 443 283 443 283 414 283 c 0,44,45
 397 283 397 283 382 287 c 128,-1,46
 367 291 367 291 360 297 c 1,47,-1
 360 350 l 1,48,-1
 395 350 l 2,49,50
 411 350 411 350 421.5 354.5 c 128,-1,51
 432 359 432 359 438 373 c 1,52,-1
 410 373 l 1,53,-1
 360 514 l 1,54,-1
 340 514 l 1,55,-1
 340 578 l 1,56,-1
 418 578 l 1,57,-1
 446 477 l 1,58,-1
 457 428 l 1,59,-1
 479 514 l 1,60,-1
 461 514 l 1,61,-1
 461 578 l 1,62,-1
 549 578 l 1,63,-1
 549 514 l 1,64,-1
 502 358 l 2,41,42
324 383 m 1,65,66
 287 367 287 367 240 367 c 0,67,68
 177 367 177 367 140.5 403 c 128,-1,69
 104 439 104 439 104 502 c 0,70,71
 104 568 104 568 139.5 607.5 c 128,-1,72
 175 647 175 647 244 647 c 0,73,74
 262 647 262 647 283 643 c 128,-1,75
 304 639 304 639 324 633 c 1,76,-1
 324 551 l 1,77,-1
 260 551 l 1,78,-1
 260 582 l 1,79,80
 255 584 255 584 251 584 c 128,-1,81
 247 584 247 584 242 584 c 0,82,83
 213 584 213 584 197.5 563 c 128,-1,84
 182 542 182 542 182 510 c 0,85,86
 182 434 182 434 258 434 c 2,87,-1
 324 434 l 1,88,-1
 324 383 l 1,65,66
1532 367 m 0,89,90
 1484 367 1484 367 1458 394.5 c 128,-1,91
 1432 422 1432 422 1432 473 c 256,92,93
 1432 524 1432 524 1459 553 c 128,-1,94
 1486 582 1486 582 1534 582 c 256,95,96
 1582 582 1582 582 1609 554 c 128,-1,97
 1636 526 1636 526 1636 475 c 256,98,99
 1636 424 1636 424 1608.5 395.5 c 128,-1,100
 1581 367 1581 367 1532 367 c 0,89,90
991 567 m 1,101,102
 1010 573 1010 573 1027.5 577.5 c 128,-1,103
 1045 582 1045 582 1065 582 c 0,104,105
 1113 582 1113 582 1136 561.5 c 128,-1,106
 1159 541 1159 541 1159 504 c 2,107,-1
 1159 434 l 1,108,-1
 1182 434 l 1,109,-1
 1182 379 l 1,110,111
 1172 373 1172 373 1162 371 c 128,-1,112
 1152 369 1152 369 1141 369 c 0,113,114
 1107 369 1107 369 1096 383 c 1,115,116
 1085 374 1085 374 1071.5 370.5 c 128,-1,117
 1058 367 1058 367 1044 367 c 0,118,119
 1015 367 1015 367 995 383 c 128,-1,120
 975 399 975 399 975 430 c 0,121,122
 975 458 975 458 993 475 c 128,-1,123
 1011 492 1011 492 1055 492 c 2,124,-1
 1087 492 l 1,125,-1
 1087 494 l 2,126,127
 1087 502 1087 502 1077.5 508 c 128,-1,128
 1068 514 1068 514 1042 514 c 2,129,-1
 991 514 l 1,130,-1
 991 567 l 1,101,102
944 434 m 1,131,-1
 944 381 l 1,132,133
 927 373 927 373 907 370 c 128,-1,134
 887 367 887 367 868 367 c 0,135,136
 814 367 814 367 787 394.5 c 128,-1,137
 760 422 760 422 760 471 c 0,138,139
 760 521 760 521 784.5 551.5 c 128,-1,140
 809 582 809 582 860 582 c 0,141,142
 902 582 902 582 926 557.5 c 128,-1,143
 950 533 950 533 950 496 c 0,144,145
 950 488 950 488 949 479 c 128,-1,146
 948 470 948 470 946 459 c 1,147,-1
 834 459 l 1,148,149
 839 445 839 445 852 439.5 c 128,-1,150
 865 434 865 434 885 434 c 2,151,-1
 944 434 l 1,131,-1
1661 514 m 1,152,-1
 1661 578 l 1,153,-1
 1731 578 l 1,154,-1
 1751 545 l 1,155,156
 1756 554 1756 554 1760.5 559.5 c 128,-1,157
 1765 565 1765 565 1772 571 c 0,158,159
 1785 582 1785 582 1802 582 c 0,160,161
 1808 582 1808 582 1815 581 c 128,-1,162
 1822 580 1822 580 1827 578 c 1,163,-1
 1827 514 l 1,164,-1
 1757 514 l 1,165,-1
 1757 434 l 1,166,-1
 1792 434 l 1,167,-1
 1792 373 l 1,168,-1
 1665 373 l 1,169,-1
 1665 434 l 1,170,-1
 1683 434 l 1,171,-1
 1683 514 l 1,172,-1
 1661 514 l 1,152,-1
578 514 m 1,173,-1
 578 578 l 1,174,-1
 647 578 l 1,175,-1
 668 545 l 1,176,177
 673 554 673 554 677.5 559.5 c 128,-1,178
 682 565 682 565 688 571 c 0,179,180
 701 582 701 582 719 582 c 0,181,182
 727 582 727 582 732.5 581 c 128,-1,183
 738 580 738 580 743 578 c 1,184,-1
 743 514 l 1,185,-1
 674 514 l 1,186,-1
 674 434 l 1,187,-1
 709 434 l 1,188,-1
 709 373 l 1,189,-1
 582 373 l 1,190,-1
 582 434 l 1,191,-1
 602 434 l 1,192,-1
 602 514 l 1,193,-1
 578 514 l 1,173,-1
1206 584 m 1,194,-1
 1182 584 l 1,195,-1
 1182 647 l 1,196,-1
 1278 647 l 1,197,-1
 1278 434 l 1,198,-1
 1307 434 l 1,199,-1
 1307 377 l 1,200,201
 1287 369 1287 369 1262 369 c 0,202,203
 1206 369 1206 369 1206 426 c 2,204,-1
 1206 584 l 1,194,-1
1333 408 m 0,205,206
 1333 425 1333 425 1343.5 437 c 128,-1,207
 1354 449 1354 449 1374 449 c 0,208,209
 1396 449 1396 449 1407.5 437 c 128,-1,210
 1419 425 1419 425 1419 408 c 0,211,212
 1419 392 1419 392 1407.5 380.5 c 128,-1,213
 1396 369 1396 369 1374 369 c 0,214,215
 1354 369 1354 369 1343.5 380.5 c 128,-1,216
 1333 392 1333 392 1333 408 c 0,205,206
1534 422 m 256,217,218
 1548 422 1548 422 1555.5 434 c 128,-1,219
 1563 446 1563 446 1563 475 c 0,220,221
 1563 501 1563 501 1555.5 512.5 c 128,-1,222
 1548 524 1548 524 1534 524 c 256,223,224
 1520 524 1520 524 1512.5 512.5 c 128,-1,225
 1505 501 1505 501 1505 475 c 0,226,227
 1505 446 1505 446 1512.5 434 c 128,-1,228
 1520 422 1520 422 1534 422 c 256,217,218
1917 506 m 256,229,230
 1917 475 1917 475 1942 475 c 0,231,232
 1962 475 1962 475 1962 506 c 256,233,234
 1962 537 1962 537 1942 537 c 0,235,236
 1917 537 1917 537 1917 506 c 256,229,230
1065 418 m 0,237,238
 1071 418 1071 418 1076 418.5 c 128,-1,239
 1081 419 1081 419 1087 424 c 1,240,-1
 1087 455 l 1,241,-1
 1071 455 l 2,242,243
 1057 455 1057 455 1050.5 449.5 c 128,-1,244
 1044 444 1044 444 1044 436 c 0,245,246
 1044 427 1044 427 1050 422.5 c 128,-1,247
 1056 418 1056 418 1065 418 c 0,237,238
858 528 m 0,248,249
 838 528 838 528 831 496 c 1,250,-1
 883 496 l 1,251,252
 883 511 883 511 877.5 519.5 c 128,-1,253
 872 528 872 528 858 528 c 0,248,249
EndSplineSet
EndChar

StartChar: numbersign
Encoding: 35 35 222
Width: 938
Flags: W
HStem: 0 21G<157 258.167 418 520.167> 432 109<84 248 366 508 626 788> 760 108<151 313 432 573 694 856> 1242 20G<411.939 512 671.939 774>
LayerCount: 2
Fore
SplineSet
157 0 m 1,0,-1
 248 432 l 1,1,-1
 61 432 l 1,2,-1
 84 541 l 1,3,-1
 268 541 l 1,4,-1
 313 760 l 1,5,-1
 129 760 l 1,6,-1
 151 868 l 1,7,-1
 336 868 l 1,8,-1
 416 1262 l 1,9,-1
 512 1262 l 1,10,-1
 432 868 l 1,11,-1
 596 868 l 1,12,-1
 676 1262 l 1,13,-1
 774 1262 l 1,14,-1
 694 868 l 1,15,-1
 878 868 l 1,16,-1
 856 760 l 1,17,-1
 672 760 l 1,18,-1
 626 541 l 1,19,-1
 811 541 l 1,20,-1
 788 432 l 1,21,-1
 606 432 l 1,22,-1
 516 0 l 1,23,-1
 418 0 l 1,24,-1
 508 432 l 1,25,-1
 344 432 l 1,26,-1
 254 0 l 1,27,-1
 157 0 l 1,0,-1
530 541 m 1,28,-1
 573 760 l 1,29,-1
 411 760 l 1,30,-1
 366 541 l 1,31,-1
 530 541 l 1,28,-1
EndSplineSet
EndChar
